<svg xmlns="http://www.w3.org/2000/svg" viewBox="0 0 525.69 481.5"><defs><style>.cls-1{fill:#bd8e3a;}.cls-2{fill:#8b4323;}.cls-3{fill:#633319;}.cls-4{fill:#311408;}.cls-5{fill:#c4541d;}.cls-6{fill:#eab773;}.cls-7{fill:#dd9a59;}.cls-8{fill:#a47b33;}.cls-9{fill:#461e0d;}.cls-10{fill:#804b38;}.cls-11{fill:#7e191e;}.cls-12{fill:#613318;}.cls-13{fill:#f9f0e2;stroke:#9a643e;stroke-miterlimit:10;stroke-width:5px;}.cls-14{fill:#ff6b9b;stroke:#ff6b9b;stroke-linecap:round;stroke-linejoin:round;stroke-width:4px;}</style></defs><g id="レイヤー_2" data-name="レイヤー 2"><g id="レイヤー_1-2" data-name="レイヤー 1"><path class="cls-1" d="M422.19,388.21c-1.11,1-2.33,2.37-3.38,3.37S417,394,416,395s-2,2.16-3,3.22-1.81,2.38-2.76,3.46-2.39,1.87-3.31,3-1.62,2.54-2.5,3.64-1.82,2.41-2.66,3.52c-1,1.27-2.12,2.25-2.9,3.34-1,1.37-1.8,2.6-2.48,3.62-1.54,2.3-1.38,1.67-2.64,3.44s-1.21,1.74-2.49,3.44-1.3,1.68-2.58,3.38-1.65,1.54-2.25,3.59,1.45-.33,4.48,0c1.24.15,2.65,1.14,4.42,1.29,1.37.12,2.9.15,4.58.25,1.41.08,2.92.44,4.56.49,1.44.06,3-.52,4.59-.5,1.45,0,3-.17,4.56-.17s3,.57,4.57.55,3-.15,4.58-.2,3-.48,4.55-.55,3,.13,4.59,0,3-.36,4.57-.47,3.07.41,4.64.27,2.94-1.22,4.5-1.37,3.39.36,4.95.19c-.62-1.5-1.37-3.22-2-4.63s-1.8-2.72-2.45-4.12-.58-3.31-1.27-4.69-1.93-2.65-2.66-4-1.15-3.06-1.92-4.38-1.77-2.72-2.58-4-2.25-2.42-3.12-3.67-1.94-2.58-2.87-3.78-1.49-3-2.48-4.11-2.35-2.27-3.41-3.31S423.32,389.14,422.19,388.21Z"/><path class="cls-1" d="M404.65,436.27h-.24a25.9,25.9,0,0,1-2.74-.28c-.64-.09-1.26-.18-1.85-.21l-1.88-.1c-1,0-1.89-.09-2.74-.16a10.78,10.78,0,0,1-3.1-.85,7.08,7.08,0,0,0-1.38-.44,7.78,7.78,0,0,0-2.72.51c-1,.4-2.27.44-2.85-.32a2.46,2.46,0,0,1-.19-2.17,6.5,6.5,0,0,1,1.63-3c.23-.27.51-.58.86-1.06l2.59-3.38c1.08-1.45,1.23-1.64,2-2.77l.45-.63a15.51,15.51,0,0,1,1.2-1.53,14.8,14.8,0,0,0,1.4-1.88c.69-1,1.53-2.27,2.51-3.65a17.78,17.78,0,0,1,1.54-1.8,18.39,18.39,0,0,0,1.39-1.59l.67-.88c.63-.86,1.3-1.75,2-2.66a17.73,17.73,0,0,0,1-1.53,19.11,19.11,0,0,1,1.48-2.15,13.3,13.3,0,0,1,1.88-1.7,10,10,0,0,0,1.46-1.3c.41-.46.78-1,1.16-1.47a25.86,25.86,0,0,1,1.64-2l.66-.72c.78-.83,1.56-1.68,2.39-2.52a11.93,11.93,0,0,0,1.15-1.46,14.7,14.7,0,0,1,1.66-2c.43-.42.9-.9,1.37-1.39.69-.7,1.38-1.42,2-2a1.53,1.53,0,0,1,2-.05,34.2,34.2,0,0,1,2.48,2.41l2.39,2.35a32.26,32.26,0,0,1,2.36,2.33,12.1,12.1,0,0,1,1.49,2.4,11.17,11.17,0,0,0,1.05,1.79l.71.91c.72.92,1.47,1.88,2.2,2.92a12.19,12.19,0,0,0,1.26,1.46,13.63,13.63,0,0,1,1.89,2.27l1,1.46c.56.84,1.13,1.69,1.65,2.6a17.16,17.16,0,0,1,1.1,2.46,18,18,0,0,0,.85,2,12.31,12.31,0,0,0,1.12,1.65,15.43,15.43,0,0,1,1.56,2.4,9.57,9.57,0,0,1,.77,2.73,8.25,8.25,0,0,0,.51,2,12.47,12.47,0,0,0,1.05,1.73,15.81,15.81,0,0,1,1.42,2.42c.69,1.56,1.41,3.22,2,4.67a1.53,1.53,0,0,1-1.25,2.11,15.68,15.68,0,0,1-2.88-.1,16.21,16.21,0,0,0-1.66-.12,6.45,6.45,0,0,0-2.27.61,8.81,8.81,0,0,1-2.69.79l-.66,0a17.7,17.7,0,0,1-2.06-.17,12.86,12.86,0,0,0-1.61-.15c-1.05.07-1.76.16-2.47.24s-1.64.2-2.44.25l-1,0-3-.09a19.33,19.33,0,0,0-2.7.28,21.27,21.27,0,0,1-2.47.29l-2,.09c-.89.05-1.77.09-2.63.11-.91-.23-1.88-.15-2.72-.31a16.7,16.7,0,0,0-4-.15,19.41,19.41,0,0,1-2.18.08A12.09,12.09,0,0,0,407,436a13.44,13.44,0,0,1-2.31.27Zm-14.37-5.14.81.05a8.73,8.73,0,0,1,2.13.64,8.07,8.07,0,0,0,2.24.64c.82.07,1.69.11,2.62.15l1.92.1c.67,0,1.37.14,2.09.24a23.18,23.18,0,0,0,2.43.26l.13,1.53v-1.53a11,11,0,0,0,1.77-.22,21.21,21.21,0,0,1,2.64-.29c1,0,1.59,0,2.23-.08a20.81,20.81,0,0,1,4.76.2,10.54,10.54,0,0,0,2,.26c.91,0,1.75-.06,2.61-.11l2-.09a16.61,16.61,0,0,0,2.08-.25,22.15,22.15,0,0,1,2.45-.3l.74,0,3,.09.81,0c.75,0,1.5-.13,2.26-.23s1.52-.18,2.3-.24a16.87,16.87,0,0,1,2.53.15,13.43,13.43,0,0,0,1.68.14,6,6,0,0,0,2.18-.58,9.62,9.62,0,0,1,2.72-.81l.72,0c.63,0,1.29.07,2,.13h.06c-.33-.77-.67-1.54-1-2.24a12.11,12.11,0,0,0-1.22-2.11,15.89,15.89,0,0,1-1.29-2.15,10.62,10.62,0,0,1-.75-2.74,7.34,7.34,0,0,0-.5-1.91,12.61,12.61,0,0,0-1.27-1.93,16.53,16.53,0,0,1-1.37-2,21.28,21.28,0,0,1-1-2.31,12.84,12.84,0,0,0-.89-2c-.48-.85-1-1.64-1.54-2.42l-1-1.54a11.67,11.67,0,0,0-1.51-1.79,16.63,16.63,0,0,1-1.57-1.82c-.68-1-1.4-1.9-2.09-2.78l-.73-.93a14.53,14.53,0,0,1-1.34-2.27,8.82,8.82,0,0,0-1.08-1.77A27.72,27.72,0,0,0,426,394l-2.53-2.49-1.22-1.25-.89.92c-.5.52-1,1-1.45,1.47a10.51,10.51,0,0,0-1.29,1.6,15.42,15.42,0,0,1-1.46,1.83c-.8.81-1.57,1.64-2.32,2.45l-.68.73c-.52.56-1,1.17-1.42,1.76s-.85,1.14-1.31,1.67a13.45,13.45,0,0,1-1.87,1.67,11,11,0,0,0-1.43,1.27,17.79,17.79,0,0,0-1.22,1.8,20,20,0,0,1-1.24,1.82c-.69.88-1.35,1.75-2,2.58l-.67.89a21.15,21.15,0,0,1-1.61,1.85,16.63,16.63,0,0,0-1.27,1.47c-1,1.35-1.78,2.56-2.45,3.58a17.2,17.2,0,0,1-1.66,2.21,13.69,13.69,0,0,0-1,1.27l-.44.62c-.82,1.16-1,1.36-2.08,2.85L389.9,430c-.41.56-.74.93-1,1.24l-.05,0a7.48,7.48,0,0,1,1.44-.15Z"/><path class="cls-2" d="M444.68,372.76c-1.37.74-2.44,1.72-3.76,2.53s-3.05,1-4.33,1.82-2.06,2.45-3.3,3.35-2.61,1.67-3.82,2.61-3,1.25-4.14,2.23-2.24,2.44-3.37,3.46a49.4,49.4,0,0,1,4,3c1.06,1.05,2.18,2.19,3.28,3.45s2.23,2.19,3.25,3.51,1.39,2.82,2.34,4.17,2,2.37,2.92,3.76,1.68,2.63,2.5,4.05,1.23,2.9,2,4.35,1.46,2.76,2.19,4.23,1,3,1.74,4.44,1.38,2.82,2,4.32,1.31,3,1.93,4.53c1.46-.15,3.05-.65,4.56-.82s2.87-.83,4.38-1,3,.45,4.52.25,2.93-.47,4.44-.69,3-.16,4.49-.39c2.37-.36,4.38-1.36,6.54-1.85-.56-1.52-1.33-2.73-1.89-4.18s-.62-3.21-1.2-4.64-1.3-2.94-1.91-4.36-1.62-2.78-2.25-4.18-1.1-3-1.78-4.4-1.58-2.8-2.29-4.16-1-3.15-1.71-4.48-2.45-2.3-3.24-3.59-1-3.18-1.85-4.44-2-2.58-2.88-3.79-2.39-2.22-3.35-3.37-1.47-3.05-2.5-4.12-2.7-1.92-3.81-2.88A40,40,0,0,0,444.68,372.76Z"/><path class="cls-2" d="M450.12,434.08a1.52,1.52,0,0,1-1.41-.95c-.62-1.5-1.31-3.08-1.93-4.5-.41-.94-.85-1.85-1.29-2.75l-.72-1.53c-.35-.76-.63-1.53-.9-2.3a16.23,16.23,0,0,0-.83-2.11c-.72-1.45-1.45-2.84-2.17-4.18-.39-.74-.71-1.5-1-2.25a17.69,17.69,0,0,0-.95-2.06c-.69-1.18-1.4-2.31-2.08-3.39l-.4-.62a17.2,17.2,0,0,0-1.5-2,20.23,20.23,0,0,1-1.38-1.74,15.49,15.49,0,0,1-1.25-2.25,11.29,11.29,0,0,0-1-1.85,22.89,22.89,0,0,0-1.86-2c-.46-.47-.92-.93-1.33-1.4-1.08-1.24-2.17-2.35-3.21-3.37a16,16,0,0,0-2.22-1.71c-.58-.4-1.15-.79-1.63-1.18a1.57,1.57,0,0,1-.56-1.15,1.54,1.54,0,0,1,.5-1.17,20.18,20.18,0,0,0,1.43-1.48,22.16,22.16,0,0,1,2-2,9.66,9.66,0,0,1,2.49-1.38,8.15,8.15,0,0,0,1.7-.88c.71-.56,1.47-1.05,2.24-1.55.54-.35,1.09-.71,1.62-1.09a7.73,7.73,0,0,0,1.29-1.36,9.87,9.87,0,0,1,2.05-2,10.53,10.53,0,0,1,2.61-1.14,9.55,9.55,0,0,0,1.78-.72c.55-.34,1.06-.7,1.56-1.07a21.23,21.23,0,0,1,2.27-1.5,1.53,1.53,0,0,1,1.61.1l1,.68a26.15,26.15,0,0,1,2.84,2.1,13.06,13.06,0,0,0,1.41,1,14.71,14.71,0,0,1,2.49,2,8.88,8.88,0,0,1,1.54,2.44,8.33,8.33,0,0,0,1,1.75,12.42,12.42,0,0,0,1.32,1.29,13.93,13.93,0,0,1,2.09,2.16l1,1.27c.64.82,1.31,1.67,1.93,2.58a9.85,9.85,0,0,1,1.11,2.6,9.09,9.09,0,0,0,.76,1.88,7.32,7.32,0,0,0,1.26,1.35,9.42,9.42,0,0,1,2,2.29,12.45,12.45,0,0,1,1,2.56,13,13,0,0,0,.73,2c.3.55.61,1.1.94,1.66.47.82,1,1.66,1.38,2.54s.68,1.6,1,2.44c.24.67.48,1.34.79,2a18.27,18.27,0,0,0,1,1.78,20.13,20.13,0,0,1,1.3,2.43l.71,1.61c.4.9.82,1.82,1.21,2.77a14.6,14.6,0,0,1,.69,2.6,11.41,11.41,0,0,0,.52,2.07c.25.64.54,1.23.83,1.83a21.64,21.64,0,0,1,1.06,2.38,1.55,1.55,0,0,1-.08,1.25,1.52,1.52,0,0,1-1,.76c-.87.2-1.7.49-2.55.77a24.9,24.9,0,0,1-4.1,1.11c-.83.12-1.65.17-2.47.22a19.16,19.16,0,0,0-2,.17l-2,.31c-.82.13-1.64.27-2.45.37l-.84.06a13.57,13.57,0,0,1-1.9-.18,9.89,9.89,0,0,0-1.42-.14,12,12,0,0,0-2.34.48,15,15,0,0,1-2.43.56,20.65,20.65,0,0,0-2.12.39c-.83.17-1.66.35-2.44.43ZM424.3,388.56l0,0a19.41,19.41,0,0,1,2.65,2.06c1.09,1.07,2.24,2.24,3.36,3.53.38.43.79.85,1.21,1.28a24.54,24.54,0,0,1,2.1,2.31,13.28,13.28,0,0,1,1.37,2.39,13.76,13.76,0,0,0,1,1.84c.36.52.78,1,1.2,1.51a20.24,20.24,0,0,1,1.76,2.3l.39.61c.7,1.12,1.44,2.28,2.14,3.49a20.08,20.08,0,0,1,1.14,2.43c.27.65.55,1.33.89,2,.74,1.37,1.49,2.79,2.22,4.27a20.66,20.66,0,0,1,1,2.46c.24.67.47,1.35.78,2l.71,1.5c.45.93.91,1.88,1.34,2.86l1.48,3.44q.51-.09,1-.21c.81-.17,1.62-.34,2.41-.43a13.59,13.59,0,0,0,1.94-.45,15.33,15.33,0,0,1,2.43-.57l.75,0a13.26,13.26,0,0,1,1.86.17,10.48,10.48,0,0,0,1.46.15c1.21-.13,2-.26,2.79-.39l2.07-.33c.75-.1,1.52-.15,2.3-.19s1.45-.08,2.18-.19a20,20,0,0,0,3.58-1L477,427l-.27-.55c-.33-.67-.66-1.35-.94-2.07a14.63,14.63,0,0,1-.68-2.6,10.42,10.42,0,0,0-.52-2c-.37-.91-.77-1.8-1.16-2.67l-.73-1.65a18,18,0,0,0-1.12-2.08,22.14,22.14,0,0,1-1.13-2.07c-.33-.73-.6-1.48-.88-2.21s-.54-1.47-.87-2.16-.85-1.59-1.29-2.36c-.34-.59-.68-1.17-1-1.76a15.06,15.06,0,0,1-1-2.49,9.58,9.58,0,0,0-.73-1.95,7.33,7.33,0,0,0-1.41-1.54,9.21,9.21,0,0,1-1.81-2,10.78,10.78,0,0,1-1.06-2.56,7.15,7.15,0,0,0-.75-1.81c-.56-.85-1.18-1.63-1.78-2.39l-1.05-1.34a11.75,11.75,0,0,0-1.68-1.71,15.44,15.44,0,0,1-1.63-1.6,11.26,11.26,0,0,1-1.42-2.37,6.87,6.87,0,0,0-1-1.67,11.54,11.54,0,0,0-2-1.53,18.15,18.15,0,0,1-1.72-1.25,24.07,24.07,0,0,0-2.53-1.87l-.23-.16c-.4.26-.77.54-1.15.81-.57.42-1.15.84-1.77,1.22a12.37,12.37,0,0,1-2.41,1,8.36,8.36,0,0,0-1.87.77,7.58,7.58,0,0,0-1.38,1.43,10.35,10.35,0,0,1-1.86,1.89c-.57.42-1.17.8-1.76,1.19s-1.37.89-2,1.39a10.47,10.47,0,0,1-2.38,1.28,7.33,7.33,0,0,0-1.73.91,18.28,18.28,0,0,0-1.68,1.72l-.33.37Z"/><path class="cls-2" d="M523.22,369.8c-2.12-.6-2.18.55-4.37.73s-2.27-.7-4.47-.52-2.2.26-4.4.45-2.26,1.48-4.35.78c-1.67-.56,1.86-1.08,1.82-2.62,0-.77-.57-1.22-2.22-2.1-1.58-.52-2.89-1.72-4.44-2.13s-3.38.07-5-.24-3.18-.79-4.78-1-3.2-1.23-4.82-1.31-3.32.18-4.94.21-3.25.63-4.86.77-3.24.38-4.84.63-2.72.44-4.31.79a29.55,29.55,0,0,1,3.41,2.37,43.3,43.3,0,0,1,3.9,2.71c1.1,1,2.27,2.08,3.42,3.3s1.79,2.52,2.85,3.8,1.91,2.39,2.88,3.72,1.49,2.7,2.4,4.06,1.72,2.54,2.56,3.93,1.55,2.66,2.34,4.09,1.81,2.53,2.55,4,1.85,2.56,2.56,4,.58,3.16,1.26,4.64,1.32,2.81,2,4.29.95,3,1.56,4.49,1.61,2.56,2.19,4.07c1.27-.91,2.13-2,3.26-2.94s2.67-1.65,3.69-2.72,2-2.35,2.93-3.52,1.51-2.68,2.31-3.93,1.82-2.49,2.5-3.82,1.17-2.84,1.72-4.22,1.68-2.69,2.1-4.11-.11-3.21.19-4.64,1.42-2.94,1.61-4.38c.2-1.62.18-3.18.26-4.58.09-1.72-.45-3.25-.48-4.54C523.13,371.52,525.38,370.41,523.22,369.8Z"/><path class="cls-2" d="M503.11,419.25a1.62,1.62,0,0,1-.44-.07,1.54,1.54,0,0,1-1-.92,11.23,11.23,0,0,0-1-1.88,14.62,14.62,0,0,1-1.17-2.17c-.31-.77-.56-1.55-.81-2.33a20.55,20.55,0,0,0-.74-2.13c-.39-.9-.8-1.78-1.2-2.64l-.75-1.62a11.55,11.55,0,0,1-.74-2.69,8.14,8.14,0,0,0-.5-1.91,13.84,13.84,0,0,0-1.23-1.94,16.84,16.84,0,0,1-1.31-2.05,19,19,0,0,0-1.28-2,19.08,19.08,0,0,1-1.25-1.92c-.78-1.41-1.53-2.76-2.3-4-.57-.95-1.18-1.84-1.76-2.71l-.78-1.18a21.57,21.57,0,0,1-1.17-2,18,18,0,0,0-1.18-2c-1-1.31-1.91-2.52-2.84-3.66-.49-.6-.92-1.22-1.34-1.84a16.61,16.61,0,0,0-1.44-1.88c-1.11-1.19-2.25-2.25-3.32-3.21a15.22,15.22,0,0,0-2.27-1.61c-.53-.33-1-.66-1.52-1l-.95-.72a18.41,18.41,0,0,0-2.29-1.55,1.53,1.53,0,0,1,.4-2.83c1.63-.37,2.75-.56,4.41-.82s3.27-.49,5-.63a19.25,19.25,0,0,0,1.94-.34,15.6,15.6,0,0,1,3-.44c.61,0,1.25-.06,1.87-.11.8-.06,1.61-.12,2.41-.12l.76,0a9.89,9.89,0,0,1,3,.76,9.1,9.1,0,0,0,2,.56,31.41,31.41,0,0,1,3.1.61c.58.14,1.18.28,1.78.4a6,6,0,0,0,1.05.08l1.94-.05a8,8,0,0,1,2.08.23,11,11,0,0,1,2.71,1.25,11,11,0,0,0,1.82.91c1.7.88,3.22,1.69,3.27,3.5a2,2,0,0,1,0,.5,7.11,7.11,0,0,1,.9-.14c1.08-.09,1.61-.15,2.15-.22s1.13-.13,2.26-.22l.69,0a6.34,6.34,0,0,1,2.11.35,3.75,3.75,0,0,0,1.22.21,4.43,4.43,0,0,0,1.88-.42,4.83,4.83,0,0,1,3.47-.27,2.81,2.81,0,0,1,1.86,1.35,2.89,2.89,0,0,1-.25,2.51,4.73,4.73,0,0,0-.51,2.08,12.41,12.41,0,0,0,.19,1.49,13.47,13.47,0,0,1,.29,3.17l-.05,1.33c0,1.07-.08,2.2-.22,3.36a9.08,9.08,0,0,1-.93,2.7,8.74,8.74,0,0,0-.7,1.8,6.68,6.68,0,0,0,0,1.69,8.62,8.62,0,0,1-.2,3.08,11.17,11.17,0,0,1-1.26,2.57,12,12,0,0,0-.88,1.66l-.47,1.21a28.44,28.44,0,0,1-1.32,3.15,22.63,22.63,0,0,1-1.63,2.57c-.32.45-.64.9-.94,1.37s-.56,1-.83,1.48a16.22,16.22,0,0,1-1.57,2.57c-1.07,1.37-2,2.54-3,3.63a11.7,11.7,0,0,1-2.29,1.75,12.14,12.14,0,0,0-1.51,1.07c-.41.36-.78.72-1.15,1.09A18.53,18.53,0,0,1,504,419a1.57,1.57,0,0,1-.89.29Zm-31.95-54.18.42.32c.42.3.87.58,1.34.88a18.32,18.32,0,0,1,2.69,1.93c1.12,1,2.32,2.13,3.5,3.39a18.78,18.78,0,0,1,1.72,2.23c.38.55.76,1.11,1.2,1.64,1,1.18,2,2.43,2.94,3.79a19.69,19.69,0,0,1,1.4,2.33c.32.6.65,1.21,1,1.79l.77,1.16c.61.9,1.23,1.83,1.83,2.82.79,1.31,1.56,2.69,2.36,4.13.32.57.7,1.11,1.08,1.66a19.67,19.67,0,0,1,1.5,2.36,14.37,14.37,0,0,0,1.08,1.67,17.25,17.25,0,0,1,1.49,2.38,10.14,10.14,0,0,1,.76,2.7,8.93,8.93,0,0,0,.52,2l.73,1.58c.42.89.84,1.8,1.24,2.74a24.54,24.54,0,0,1,.85,2.41c.23.7.45,1.41.73,2.1a11.25,11.25,0,0,0,.93,1.71l.32.53.48-.47c.42-.41.84-.82,1.29-1.22a17.66,17.66,0,0,1,1.87-1.34A9,9,0,0,0,509,411a40.82,40.82,0,0,0,2.65-3.17,14.49,14.49,0,0,0,1.45-2.35c.31-.58.62-1.16,1-1.7s.67-1,1-1.48a20.83,20.83,0,0,0,1.4-2.2,25.42,25.42,0,0,0,1.19-2.83l.48-1.27a15.62,15.62,0,0,1,1.11-2.1,9,9,0,0,0,.95-1.88,6,6,0,0,0,.07-2,9.25,9.25,0,0,1,.08-2.51,11.75,11.75,0,0,1,.93-2.47,6.78,6.78,0,0,0,.67-1.79,29.83,29.83,0,0,0,.18-3.07l.06-1.39a11.49,11.49,0,0,0-.24-2.49,14.11,14.11,0,0,1-.24-1.93,7.4,7.4,0,0,1,.68-3.17c-.35-.06-.44,0-.93.21a6.75,6.75,0,0,1-2.45.66l-.69,0a6.44,6.44,0,0,1-2.11-.35,3.75,3.75,0,0,0-1.22-.21c-1.52.11-2.05.17-2.59.24s-1.13.13-2.26.22a3.35,3.35,0,0,0-1.39.43,4.31,4.31,0,0,1-3.56.28,2.56,2.56,0,0,1-1.49-1.6c-.12-1.16.85-1.73,1.49-2.11a6.23,6.23,0,0,0,.72-.46,9.34,9.34,0,0,1-1.36-.65,11.21,11.21,0,0,1-2.15-1.06,8.47,8.47,0,0,0-2-.94,5.16,5.16,0,0,0-1.3-.13l-1.94.05a8.75,8.75,0,0,1-1.63-.14c-.64-.12-1.27-.27-1.91-.42a26.59,26.59,0,0,0-2.77-.55,11.58,11.58,0,0,1-2.63-.73,7.41,7.41,0,0,0-2.08-.57,20.68,20.68,0,0,0-2.77.09c-.69.06-1.38.11-2.06.12a12.74,12.74,0,0,0-2.44.37,20.67,20.67,0,0,1-2.31.4c-1.61.14-3.18.36-4.75.61l-.65.1Z"/><path class="cls-1" d="M466.71,364.16c-1.55.35-3,.82-4.54,1.25s-2.92,1.2-4.39,1.73-3.08.79-4.53,1.4-3,1.12-4.37,1.81-2.49,1.49-3.87,2.24c1.2.84,1.75,2.19,3,3.31,1.12,1,2.28,2,3.45,3.18s2.39,1.95,3.47,3.23,2.15,2.23,3.14,3.56,2,2.35,3,3.72,1,3,1.89,4.4,2.35,2.21,3.15,3.63,1.3,2.83,2.06,4.27.62,3.16,1.34,4.62,1.61,2.67,2.29,4.14,1.75,2.64,2.39,4.13,1.26,2.87,1.86,4.37,1.43,2.82,2,4.34.58,3.14,1.14,4.66c1.45-.33,2.76-1,4.12-1.44s2.79-.88,4.13-1.34,2.88-.67,4.18-1.21,2.69-1.2,4-1.84,2.76-1.06,4-1.79,2.54-1.75,3.68-2.58c-.57-1.5-1.13-3.11-1.71-4.54s-1.55-2.82-2.16-4.23-1.71-2.74-2.34-4.14-.59-3.25-1.25-4.63-1.48-2.84-2.18-4.19-1.26-3-2-4.31-2.13-2.48-2.92-3.79-1.84-2.61-2.68-3.87-1.32-3-2.21-4.2-2-2.54-3-3.7-2.36-2.21-3.38-3.29-2.06-2.51-3.15-3.5a46.3,46.3,0,0,0-3.74-2.84A37.13,37.13,0,0,0,466.71,364.16Z"/><path class="cls-1" d="M479.21,429.69a1.52,1.52,0,0,1-1.44-1,14.6,14.6,0,0,1-.63-2.59,11.37,11.37,0,0,0-.5-2,23,23,0,0,0-1-2.19c-.35-.71-.7-1.41-1-2.13q-.67-1.62-1.35-3.18l-.5-1.15a14.11,14.11,0,0,0-1.14-2,17.26,17.26,0,0,1-1.25-2.14,21.36,21.36,0,0,0-1.15-2.11c-.4-.67-.79-1.32-1.12-2a10.46,10.46,0,0,1-.79-2.71,7.06,7.06,0,0,0-.53-1.87c-.36-.69-.68-1.39-1-2.08s-.66-1.47-1.05-2.15a8,8,0,0,0-1.39-1.6,10.64,10.64,0,0,1-1.72-2,12.25,12.25,0,0,1-1.08-2.52,8.51,8.51,0,0,0-.79-1.83,24.12,24.12,0,0,0-1.63-2.08c-.45-.52-.89-1-1.29-1.58a24.27,24.27,0,0,0-1.79-2.06c-.45-.48-.89-1-1.29-1.43a16.13,16.13,0,0,0-1.86-1.76,20.47,20.47,0,0,1-1.53-1.38c-1.06-1.1-2.12-2-3.13-2.89a12.41,12.41,0,0,1-1.9-2.07,6.33,6.33,0,0,0-1.24-1.35,1.52,1.52,0,0,1-.65-1.33,1.54,1.54,0,0,1,.8-1.26c.54-.3,1-.61,1.53-.91a24.74,24.74,0,0,1,2.4-1.37c.94-.45,1.91-.83,2.89-1.22l1.56-.62a19.88,19.88,0,0,1,2.74-.88c.63-.17,1.26-.33,1.86-.55s1.16-.46,1.74-.71a22.2,22.2,0,0,1,2.75-1l.9-.27c1.23-.36,2.46-.72,3.72-1a1.6,1.6,0,0,1,1.08.15,37.13,37.13,0,0,1,4,2.67l.89.63a31.11,31.11,0,0,1,3,2.31,21.06,21.06,0,0,1,2,2.17c.39.46.79.94,1.23,1.41s.83.8,1.28,1.21a19.3,19.3,0,0,1,2.18,2.16l.54.65c.82,1,1.66,2,2.48,3.11a13.53,13.53,0,0,1,1.3,2.42,12.44,12.44,0,0,0,1,1.85c.32.48.67,1,1,1.46.57.79,1.16,1.59,1.68,2.46a10.6,10.6,0,0,0,1.2,1.51,13.93,13.93,0,0,1,1.75,2.32,26.15,26.15,0,0,1,1.12,2.39c.27.65.56,1.32.89,2l.74,1.41c.49.92,1,1.86,1.46,2.83a10.27,10.27,0,0,1,.76,2.68,8.79,8.79,0,0,0,.51,2,14.1,14.1,0,0,0,1,1.75,16.29,16.29,0,0,1,1.35,2.42,18.35,18.35,0,0,0,.94,1.81,23.2,23.2,0,0,1,1.23,2.44c.35.87.69,1.81,1,2.75l.68,1.83a1.53,1.53,0,0,1-.53,1.79l-.9.65c-.93.68-1.91,1.4-2.89,2a16.61,16.61,0,0,1-2.45,1.14c-.55.22-1.1.44-1.62.71-1.3.65-2.64,1.28-4.05,1.87a16.19,16.19,0,0,1-2.51.76c-.59.15-1.19.29-1.77.49-1.61.57-2.87,1-4.21,1.38a15.38,15.38,0,0,0-1.64.59,18.05,18.05,0,0,1-2.57.87,1.86,1.86,0,0,1-.33,0Zm-31.74-56.78c.11.14.22.27.32.41a10.15,10.15,0,0,0,1.25,1.43c1.31,1.13,2.43,2.1,3.56,3.27a15.16,15.16,0,0,0,1.31,1.18,17.72,17.72,0,0,1,2.22,2.13c.37.44.77.86,1.18,1.29a27.33,27.33,0,0,1,2,2.34c.36.47.76.94,1.17,1.42a27.37,27.37,0,0,1,1.85,2.35,10.53,10.53,0,0,1,1.13,2.56,9.2,9.2,0,0,0,.8,1.9,7.59,7.59,0,0,0,1.24,1.38,10.36,10.36,0,0,1,1.93,2.3c.43.75.79,1.56,1.17,2.38.29.64.58,1.29.91,1.93a9.48,9.48,0,0,1,.82,2.71,8.86,8.86,0,0,0,.54,1.95c.29.6.65,1.18,1,1.77.45.77.92,1.56,1.31,2.4a13.39,13.39,0,0,0,1,1.74,15.65,15.65,0,0,1,1.39,2.42l.49,1.15c.47,1.07.94,2.15,1.38,3.26.26.64.58,1.26.9,1.9s.8,1.61,1.13,2.46a14.65,14.65,0,0,1,.65,2.61l.12.67.7-.28c.65-.26,1.29-.51,1.94-.7,1.29-.36,2.48-.78,3.68-1.19s1.74-.53,2.41-.7a12.88,12.88,0,0,0,2.06-.61c1.34-.56,2.61-1.16,3.85-1.79.61-.3,1.24-.56,1.86-.81a12.24,12.24,0,0,0,2-.92c.9-.54,1.78-1.19,2.64-1.82l-.29-.77c-.33-.91-.67-1.81-1-2.65a17.06,17.06,0,0,0-1.06-2.09,22.13,22.13,0,0,1-1.08-2.11,14.67,14.67,0,0,0-1.12-2,16.89,16.89,0,0,1-1.22-2.13,11,11,0,0,1-.73-2.69,7.92,7.92,0,0,0-.5-1.9c-.45-.94-.94-1.84-1.41-2.73l-.75-1.43c-.37-.71-.69-1.45-1-2.17a22.46,22.46,0,0,0-1-2.1,11.24,11.24,0,0,0-1.37-1.79,13.54,13.54,0,0,1-1.51-1.94c-.49-.8-1-1.53-1.54-2.25-.39-.53-.76-1.05-1.11-1.57a15.1,15.1,0,0,1-1.19-2.29,11.49,11.49,0,0,0-1-1.86c-.78-1.05-1.59-2-2.36-3l-.55-.66a17.71,17.71,0,0,0-1.85-1.83c-.52-.46-1-.92-1.48-1.39s-.91-1-1.34-1.54a19.56,19.56,0,0,0-1.72-1.87,27.17,27.17,0,0,0-2.7-2.08l-.91-.66c-1.13-.83-2.16-1.56-3.19-2.17-1,.25-2,.54-3,.83l-.91.26a23.09,23.09,0,0,0-2.39.92c-.64.28-1.27.55-1.92.78s-1.39.44-2.09.62a18.9,18.9,0,0,0-2.35.75l-1.64.65c-.9.35-1.8.71-2.67,1.13a20.37,20.37,0,0,0-2.07,1.18Z"/><path class="cls-1" d="M262.62,337.25c.83,1.24,2.26,1.87,3.47,2.86s2,2.18,3.44,2.89a32.3,32.3,0,0,0,4.25,1.55c1.36.44,2.76,1.05,4.31,1.41s3,0,4.58.19,2.82,1.2,4.39,1.37,3,.38,4.54.5,3,.06,4.55.14,3-.14,4.57-.09,3-.49,4.57-.46,3,1.29,4.53,1.31,3-1,4.55-1,3,.79,4.53.78,3-.5,4.56-.51,3-.24,4.57-.26,3,.72,4.55.7,3,.06,4.61,0,3-.5,4.58-.53,3.16,0,4.69,0,3.15-.57,4.69-.59,3.17.77,4.7.74,3.15-1.1,4.68-1.13,3.18.41,4.71.37,3.17-.33,4.69-.37,3.17-.16,4.7-.22,3.17-.05,4.68-.11,3.18,0,4.68-.11,3.19,0,4.7-.15,3.17-.39,4.67-.54,3.14-.65,4.62-.85,3.24.06,4.68-.22c1.64-.31,3.17-.64,4.57-1a36,36,0,0,0,4.55-1.3,19.52,19.52,0,0,0,3.78-2.8,13.65,13.65,0,0,0,3-3.41c.86-1.24,2-2.35,2.52-3.9s.21-3,.36-4.53.88-3,.81-4.52-1.16-2.87-1.41-4.4-.61-2.87-1-4.36-.24-3-.7-4.49-.28-3.1-.82-4.53-1.81-2.53-2.41-3.92-.8-3-1.45-4.35-2-2.43-2.65-3.77-.7-3.08-1.42-4.38-1.66-2.59-2.4-3.85-2-2.44-2.73-3.67-1.24-2.94-2-4.11c-.94-1.44-1.48-2.92-2.21-4-1.57-2.32-3.13-1-2.62-3.19s1.42-.6,3.5-2.21c1-.81,1.88-2.21,3.08-3.31a43.64,43.64,0,0,0,2.83-3.46,26.52,26.52,0,0,0,3-3.32,15.52,15.52,0,0,0,1.35-4.24c.39-1.45,1.38-2.91,1.14-4.41a11.2,11.2,0,0,0-1.8-4.27c-.75-1.1-2.51-1.46-3.79-2.53-1.05-.86-1.83-2.28-3.28-3.1a28.19,28.19,0,0,0-4-2c-1.53-.59-3.11-.13-4.46-.3-1.6-.21-3-.7-4.34-.43a12.41,12.41,0,0,0-4.07,1.65,16.11,16.11,0,0,0-3.59,2.63,23.62,23.62,0,0,0-2.78,3.55c-.78,1.31-.64,3.06-1.19,4.37a42.65,42.65,0,0,0-1.49,4.13c-.74,2.5.64,3.32-1.26,4.43a15.7,15.7,0,0,0-3.58-3.5,29.39,29.39,0,0,0-4.38-1.71,44.31,44.31,0,0,0-4.38-1.7c-1.48-.38-3.11-.35-4.65-.64s-3.13-.14-4.66-.34-3.08-1-4.59-1.11-3.21-.21-4.66-.28c-1.74-.09-3.33-.35-4.64-.35s-2.86,1-4.61,1.06c-1.43.07-3-.31-4.65-.17s-3,.53-4.59.74-3.1.28-4.63.57-3.17.28-4.65.67-2.74,1.77-4.15,2.29-3.39.28-4.66,1a15.49,15.49,0,0,0-3.56,3.41c-1.9-1.12.31-2.14-.43-4.65a44,44,0,0,0-1.55-4.2,36,36,0,0,0-2.39-3.79,23,23,0,0,0-2.29-3.87c-1-1.11-2.72-1.31-4-2.09s-2.23-2-3.74-2.31a13.55,13.55,0,0,0-4.45,0,18.27,18.27,0,0,0-4.36.91c-1.28.48-2.27,1.81-3.68,2.61a29.62,29.62,0,0,0-3.84,2.21c-1.3,1.06-2.95,1.64-3.7,2.75a14.86,14.86,0,0,0-1.08,8.93,16.44,16.44,0,0,0,1.48,4.33c.75,1.26,2.5,1.88,3.47,3s1.65,2.61,2.71,3.59,2.46,2,3.5,2.79c2.09,1.61,3.57.32,3.93,2.51s-1.78,1.11-3.6,3.39c-.82,1-1.7,2.38-2.76,3.8-.86,1.14-1.3,2.74-2.25,4.1-.86,1.2-2.47,2-3.36,3.35s-.9,3.08-1.75,4.43-1.7,2.58-2.5,4-1.35,2.78-2.08,4.17-2.08,2.45-2.74,3.87-1.56,2.76-2.15,4.2-.94,3-1.43,4.5-.72,3.08-1.09,4.59-.84,3.06-1.06,4.58a37.47,37.47,0,0,0-.24,4.7c0,1.59.8,3.05,1.05,4.57a22.32,22.32,0,0,0,.89,4.49A20.48,20.48,0,0,0,262.62,337.25Z"/><path class="cls-1" d="M309.85,350.45h0a7.5,7.5,0,0,1-2.93-.78,5.29,5.29,0,0,0-1.63-.52h0a11.25,11.25,0,0,0-2,.22,15.61,15.61,0,0,1-2.32.24h-.68c-.56,0-1.12,0-1.67.06s-1.17.06-1.75.06l-.74,0c-.67,0-1.34,0-2-.05-.88,0-1.74,0-2.58-.09-1-.08-2.05-.21-3-.33L286.9,349a10,10,0,0,1-2.81-.83,8.16,8.16,0,0,0-1.65-.55,7.42,7.42,0,0,0-1.14-.07l-1.7,0a8.08,8.08,0,0,1-1.83-.17,25.48,25.48,0,0,1-3.13-1l-2.08-.7a27.14,27.14,0,0,1-3.7-1.4,10.36,10.36,0,0,1-2.74-2.14c-.33-.33-.65-.65-1-.93s-.76-.56-1.14-.82a9,9,0,0,1-2.64-2.38,14.48,14.48,0,0,1-1.58-3.47l-.4-1.11a17,17,0,0,1-.82-3.72l-.15-1.09a13,13,0,0,0-.43-1.6,10,10,0,0,1-.63-3.22,38.2,38.2,0,0,1,.24-4.9,35.12,35.12,0,0,1,.78-3.54l.66-2.78a24.68,24.68,0,0,1,.78-3.13c.18-.53.34-1.09.5-1.64a29.87,29.87,0,0,1,1-2.95,26.1,26.1,0,0,1,1.3-2.59c.31-.56.61-1.11.88-1.69a11.26,11.26,0,0,1,1.63-2.35,9.9,9.9,0,0,0,1.15-1.57c.3-.57.58-1.15.84-1.73.41-.85.8-1.69,1.26-2.49s1.05-1.7,1.59-2.52l.94-1.47a7.94,7.94,0,0,0,.7-1.85,9.14,9.14,0,0,1,1.08-2.63,10,10,0,0,1,2.07-2.13,8,8,0,0,0,1.31-1.26,11.7,11.7,0,0,0,1-1.9,11.72,11.72,0,0,1,1.25-2.23l1.26-1.76c.54-.76,1-1.46,1.53-2.07a6.32,6.32,0,0,1,3.06-2.09A20.17,20.17,0,0,1,281,269l-.84-.63a32.64,32.64,0,0,1-2.77-2.25,11.72,11.72,0,0,1-1.8-2.28,12.05,12.05,0,0,0-1-1.43,6.93,6.93,0,0,0-1.29-1,7.34,7.34,0,0,1-2.34-2.19,14.59,14.59,0,0,1-1.45-4l-.19-.72a12.2,12.2,0,0,1-.19-5.13l.1-.68a9.88,9.88,0,0,1,1.39-4.38,7.66,7.66,0,0,1,2.53-2.1,12.32,12.32,0,0,0,1.46-1,14.07,14.07,0,0,1,2.67-1.62c.45-.23.91-.46,1.39-.73a10.19,10.19,0,0,0,1.46-1.11,8.53,8.53,0,0,1,2.43-1.62,18,18,0,0,1,4.37-.94,15,15,0,0,1,5.28,0,7.27,7.27,0,0,1,3.21,1.75,10.49,10.49,0,0,0,1,.76,7.71,7.71,0,0,0,1.37.61,7.17,7.17,0,0,1,2.95,1.76,13.28,13.28,0,0,1,1.81,2.87c.21.43.42.85.65,1.24s.61.93.93,1.39a13.7,13.7,0,0,1,1.56,2.59c.64,1.55,1.23,3.07,1.62,4.36a5.48,5.48,0,0,1,.21,1.47,9.19,9.19,0,0,1,1.55-1.13,7.78,7.78,0,0,1,3.05-.78,8,8,0,0,0,1.83-.33,7.3,7.3,0,0,0,1.49-.88,9,9,0,0,1,2.81-1.46,20.68,20.68,0,0,1,2.87-.44c.64-.07,1.26-.13,1.88-.25,1-.18,2-.28,3-.38l1.73-.19c.65-.09,1.31-.21,1.95-.33a26.62,26.62,0,0,1,2.71-.42,17.29,17.29,0,0,1,2.89.07c.52,0,1,.1,1.52.1a8.43,8.43,0,0,0,2.43-.52,12.09,12.09,0,0,1,5.11-.38c.69.07,1.41.14,2.15.18l.79,0c1.25.06,2.58.12,3.94.24a12.93,12.93,0,0,1,2.68.62,12.22,12.22,0,0,0,2,.5,17.21,17.21,0,0,0,1.92.12,18.8,18.8,0,0,1,2.81.24c.63.11,1.27.17,1.91.23a17.8,17.8,0,0,1,2.85.43,20.27,20.27,0,0,1,3,1.12c.5.22,1,.44,1.5.62l1.24.43a19.14,19.14,0,0,1,3.37,1.39,10,10,0,0,1,2.31,1.91,7.07,7.07,0,0,1,.31-1.94,40.73,40.73,0,0,1,1.54-4.29,6.9,6.9,0,0,0,.35-1.54,8.6,8.6,0,0,1,.93-3,25,25,0,0,1,3-3.79,19.9,19.9,0,0,1,8.5-4.76,9.34,9.34,0,0,1,3.54.19c.42.08.85.17,1.29.23h1.34l1,0a7.07,7.07,0,0,1,2.5.4,31.3,31.3,0,0,1,4.19,2.13,9.56,9.56,0,0,1,2.51,2.24,8.58,8.58,0,0,0,1,1,7.75,7.75,0,0,0,1.53.92,6.24,6.24,0,0,1,2.55,1.93,12.63,12.63,0,0,1,2.05,4.89,7,7,0,0,1-.73,3.81,12.25,12.25,0,0,0-.44,1.24l-.24,1a12.1,12.1,0,0,1-1.28,3.6,11.8,11.8,0,0,1-2.08,2.44c-.36.36-.72.72-1.05,1.1s-.7.87-1,1.32a17.72,17.72,0,0,1-1.92,2.26,13.46,13.46,0,0,0-1.36,1.5,13.1,13.1,0,0,1-1.82,1.9,5.42,5.42,0,0,1-2.89,1.18.23.23,0,0,1-.07.11,5.53,5.53,0,0,1,2.41,2,16.89,16.89,0,0,1,1.1,2,21.9,21.9,0,0,0,1.12,2,14.66,14.66,0,0,1,1.09,2.21,13.73,13.73,0,0,0,.93,1.94,15,15,0,0,0,1.13,1.49,16.31,16.31,0,0,1,1.62,2.21c.31.53.66,1.05,1,1.58.49.75,1,1.5,1.42,2.3a10.11,10.11,0,0,1,.88,2.6,9,9,0,0,0,.56,1.83,9.71,9.71,0,0,0,1.1,1.51,11,11,0,0,1,1.58,2.3,16.28,16.28,0,0,1,.87,2.55,13.75,13.75,0,0,0,.6,1.85,8.65,8.65,0,0,0,1,1.57,8.32,8.32,0,0,1,2,5.2,8.53,8.53,0,0,0,.3,1.82,13.69,13.69,0,0,1,.48,2.8,14.4,14.4,0,0,0,.24,1.78c.49,1.91.81,3.19,1,4.5a7.55,7.55,0,0,0,.59,1.68,8.19,8.19,0,0,1,.83,2.88,10,10,0,0,1-.47,3.14,11.67,11.67,0,0,0-.33,1.6c-.05.52-.06,1-.07,1.56a11.54,11.54,0,0,1-.35,3.27,10.45,10.45,0,0,1-2,3.34c-.26.32-.52.65-.75,1a15,15,0,0,1-3.35,3.76c-.34.25-.67.54-1,.84A12.08,12.08,0,0,1,412.4,344a20,20,0,0,1-3.2,1l-1.55.4c-1.44.41-3,.74-4.7,1.06a10.92,10.92,0,0,1-2.09.17h-1.2a10.57,10.57,0,0,0-1.48.08c-.61.08-1.22.22-1.86.35a24.76,24.76,0,0,1-2.8.5l-1.86.22c-.92.13-1.88.25-2.86.32s-1.68.08-2.56.09c-.7,0-1.43,0-2.16.07s-1.67,0-2.53.06-1.44,0-2.18.05l-2.6.07-4.15.14c-.87,0-1.75.1-2.64.12-.71,0-1.42.1-2.14.17s-1.7.18-2.56.2a21.61,21.61,0,0,1-2.54-.19,15.61,15.61,0,0,0-2.05-.18,6.17,6.17,0,0,0-1.94.47,9,9,0,0,1-2.87.66h0a11,11,0,0,1-2.7-.41,8.6,8.6,0,0,0-1.95-.34,14.17,14.17,0,0,0-2.1.27,16.86,16.86,0,0,1-2.64.33l-4.69,0a14.82,14.82,0,0,0-2.11.25,17.73,17.73,0,0,1-2.48.27l-4.09,0a11.29,11.29,0,0,1-3.21-.39,8.82,8.82,0,0,0-1.82-.3c-.79,0-1.52.07-2.25.13-1.52.11-3,.13-4.44.37a13.34,13.34,0,0,1-5.21-.18,5.88,5.88,0,0,0-3.66.1,8.41,8.41,0,0,1-2.68.57Zm-4.68-4.37a7.34,7.34,0,0,1,2.9.76,5.46,5.46,0,0,0,1.76.55l0,1.53v-1.53a5.86,5.86,0,0,0,1.72-.42,10.35,10.35,0,0,1,5.39-.15,9,9,0,0,0,3.94.12,16.72,16.72,0,0,1,2.55-.28c.71,0,1.42-.07,2.15-.12s1.6-.13,2.41-.14h0a10.91,10.91,0,0,1,2.6.39,8.63,8.63,0,0,0,1.89.31l4.06,0a16.05,16.05,0,0,0,2.63-.24,16.72,16.72,0,0,1,2.55-.28l4.69,0a12.68,12.68,0,0,0,2.13-.28,16.13,16.13,0,0,1,2.55-.31h0a11.22,11.22,0,0,1,2.79.42,8.64,8.64,0,0,0,1.86.32,6.47,6.47,0,0,0,2-.49,8.86,8.86,0,0,1,2.76-.64h0a19.53,19.53,0,0,1,2.6.2,14.25,14.25,0,0,0,1.94.17c.92,0,1.69-.1,2.45-.18s1.59-.17,2.37-.19,1.72-.07,2.56-.11l4.26-.15,2.53-.07c.78,0,1.54,0,2.28,0s1.61,0,2.38-.06,1.54-.05,2.29-.07,1.61,0,2.38-.08c.93-.07,1.82-.18,2.69-.3l1.95-.24a19.12,19.12,0,0,0,2.46-.44c.72-.15,1.41-.3,2.1-.39a13.4,13.4,0,0,1,1.89-.11h1.2a7.46,7.46,0,0,0,1.51-.11c1.59-.31,3.09-.62,4.45-1,.55-.15,1.11-.29,1.65-.42a16.65,16.65,0,0,0,2.69-.81,9.32,9.32,0,0,0,2.3-1.65c.4-.34.78-.68,1.18-1a12.08,12.08,0,0,0,2.67-3.05c.27-.38.57-.76.87-1.14a7.61,7.61,0,0,0,1.44-2.34,8.83,8.83,0,0,0,.24-2.4c0-.61,0-1.23.07-1.84a13.15,13.15,0,0,1,.43-2.07,8.1,8.1,0,0,0,.37-2.21,6.06,6.06,0,0,0-.59-1.82,10.33,10.33,0,0,1-.8-2.41c-.19-1.23-.49-2.41-.8-3.64a16.82,16.82,0,0,1-.48-2.83,11.47,11.47,0,0,0-.35-2.16,11.92,11.92,0,0,1-.43-2.44,8.38,8.38,0,0,0-.36-2,7.69,7.69,0,0,0-1-1.68,11.29,11.29,0,0,1-1.35-2.18,17.56,17.56,0,0,1-.72-2.23,13.86,13.86,0,0,0-.7-2.06,8.59,8.59,0,0,0-1.17-1.66,11.23,11.23,0,0,1-1.45-2.07,10.68,10.68,0,0,1-.83-2.53,7.22,7.22,0,0,0-.58-1.82c-.4-.73-.85-1.41-1.29-2.09s-.76-1.14-1.09-1.72a14.26,14.26,0,0,0-1.34-1.8,12.55,12.55,0,0,1-2.52-4.19,10.29,10.29,0,0,0-.84-1.73c-.5-.78-.9-1.58-1.28-2.32a14.37,14.37,0,0,0-.9-1.63,2.5,2.5,0,0,0-1.29-1c-1-.45-2.07-1.21-1.56-3.36a2.75,2.75,0,0,1,2.64-2.5A2.46,2.46,0,0,0,401,267a10,10,0,0,0,1.34-1.43,17.21,17.21,0,0,1,1.64-1.8,13.38,13.38,0,0,0,1.54-1.85c.38-.5.76-1,1.17-1.48s.81-.86,1.23-1.28a10.12,10.12,0,0,0,1.6-1.83,9.2,9.2,0,0,0,.91-2.71l.27-1.13a14.44,14.44,0,0,1,.57-1.59,4.81,4.81,0,0,0,.54-2.18,9.86,9.86,0,0,0-1.56-3.67,4.5,4.5,0,0,0-1.42-.92,11,11,0,0,1-2.08-1.28,12.29,12.29,0,0,1-1.33-1.36,7.21,7.21,0,0,0-1.73-1.6A29.15,29.15,0,0,0,400,239a4,4,0,0,0-1.41-.2l-1.77.05a7.3,7.3,0,0,1-.94-.05c-.51-.07-1-.16-1.47-.25a10,10,0,0,0-1.81-.24,10.46,10.46,0,0,0-4.12,1.49,14.65,14.65,0,0,0-3.26,2.35,23.5,23.5,0,0,0-2.61,3.3,6.24,6.24,0,0,0-.54,2,10,10,0,0,1-.54,2.22,35.85,35.85,0,0,0-1.44,4,4.72,4.72,0,0,0-.16,1.8,3.26,3.26,0,0,1-1.8,3.51,1.53,1.53,0,0,1-1.91-.31l-.59-.68a11,11,0,0,0-2.61-2.5,15.59,15.59,0,0,0-2.84-1.15l-1.3-.46c-.56-.2-1.11-.44-1.67-.69a17.6,17.6,0,0,0-2.57-1,14.1,14.1,0,0,0-2.37-.34c-.74-.07-1.47-.14-2.18-.27a15.28,15.28,0,0,0-2.34-.19,20.55,20.55,0,0,1-2.24-.15,16,16,0,0,1-2.48-.6,9.89,9.89,0,0,0-2-.5c-1.33-.12-2.61-.18-3.82-.24l-.79,0c-.8-.05-1.57-.12-2.29-.19a7.48,7.48,0,0,0-3.86.24,11.26,11.26,0,0,1-2.94.66c-1.05,0-1.63-.05-2.24-.1s-1.12-.1-1.7-.1l-.65,0c-.79.07-1.6.22-2.42.37s-1.4.27-2.11.36l-1.83.2c-.9.09-1.82.19-2.72.35-.7.13-1.41.21-2.12.28a16.18,16.18,0,0,0-2.43.37,6.49,6.49,0,0,0-1.83,1,10.29,10.29,0,0,1-2.18,1.24,11.25,11.25,0,0,1-2.55.5,5.13,5.13,0,0,0-1.87.39,11.59,11.59,0,0,0-2.7,2.55l-.47.54a1.53,1.53,0,0,1-1.93.31,2.84,2.84,0,0,1-1.26-3.8,2.64,2.64,0,0,0,.15-1.74,39.38,39.38,0,0,0-1.51-4,11,11,0,0,0-1.23-2c-.37-.52-.74-1-1.06-1.59s-.51-.93-.76-1.41a10.07,10.07,0,0,0-1.35-2.22,4.79,4.79,0,0,0-1.77-.94,11.53,11.53,0,0,1-1.88-.87,13.67,13.67,0,0,1-1.33-1,4.73,4.73,0,0,0-1.9-1.14,12,12,0,0,0-4,0,16.34,16.34,0,0,0-4,.82,5.7,5.7,0,0,0-1.53,1.08,12.15,12.15,0,0,1-1.94,1.43c-.51.3-1,.56-1.51.81a11.63,11.63,0,0,0-2.12,1.25,14,14,0,0,1-1.81,1.22,5.87,5.87,0,0,0-1.59,1.2,7.38,7.38,0,0,0-.89,3.1l-.11.74a9.13,9.13,0,0,0,.13,3.85l.19.75a12.06,12.06,0,0,0,1.12,3.18,5.11,5.11,0,0,0,1.44,1.24,10,10,0,0,1,1.89,1.56,19.91,19.91,0,0,1,1.26,1.75,9.56,9.56,0,0,0,1.32,1.72,29,29,0,0,0,2.53,2l.87.66a3.57,3.57,0,0,0,1.67.69,3,3,0,0,1,2.83,2.77,2.84,2.84,0,0,1-2.18,3.48,3.51,3.51,0,0,0-1.73,1.12c-.45.57-.92,1.23-1.42,1.94l-1.31,1.82a9.65,9.65,0,0,0-.93,1.71,16.16,16.16,0,0,1-1.31,2.36,9.71,9.71,0,0,1-1.84,1.84,7.74,7.74,0,0,0-1.49,1.48,6.62,6.62,0,0,0-.68,1.78,10.08,10.08,0,0,1-1,2.61l-1,1.53c-.51.78-1,1.56-1.5,2.38s-.77,1.49-1.14,2.26-.59,1.25-.91,1.86a11.92,11.92,0,0,1-1.49,2.09,8.79,8.79,0,0,0-1.22,1.71c-.3.63-.63,1.24-1,1.86a20.06,20.06,0,0,0-1.14,2.27,24.47,24.47,0,0,0-.86,2.63q-.25.9-.54,1.77a24.85,24.85,0,0,0-.68,2.77c-.12.57-.24,1.14-.37,1.7l-.32,1.25a26.55,26.55,0,0,0-.72,3.19,31.87,31.87,0,0,0-.21,4.23,7.86,7.86,0,0,0,.48,2.54,12.66,12.66,0,0,1,.53,2l.17,1.16a13.77,13.77,0,0,0,.65,3l.44,1.21a11.76,11.76,0,0,0,1.21,2.76,6.57,6.57,0,0,0,1.83,1.55c.45.31.91.63,1.35,1s.82.74,1.23,1.15a7.53,7.53,0,0,0,1.92,1.56,22.7,22.7,0,0,0,3.29,1.22l2.19.75a22,22,0,0,0,2.74.86,5.17,5.17,0,0,0,1.17.1l1.7,0a8.22,8.22,0,0,1,3.94.85,8.08,8.08,0,0,0,2,.62l1.6.19c.93.11,1.9.23,2.88.31.79.06,1.59.07,2.4.08s1.4,0,2.11.05c1.13,0,1.64,0,2.18,0s1.22-.06,1.83-.06h.68a11.67,11.67,0,0,0,1.83-.21,16.41,16.41,0,0,1,2.43-.25Z"/><path class="cls-2" d="M341.33,304.21c1.48,0,3,0,4.48.11s2.95.36,4.43.53,3,.23,4.44.45,2.77,1.37,4.22,1.64,3.15-.47,4.59-.16,2.8,1.28,4.23,1.61,3.06.08,4.48.41,2.78,1.29,4.19,1.62,3,.52,4.36.82c1.54.33,3,.84,4.34,1.08,1.57.26,3.09-.2,4.42-.12,1.7.11,3.21.83,4.43.54a5.14,5.14,0,0,0,3.66-2.65,10,10,0,0,0,.35-4.77,20.49,20.49,0,0,0-1.41-4.49c-.51-1.35-1.66-2.48-2.5-3.93-.74-1.28-.57-3.27-1.58-4.57s-2.71-1.71-3.85-2.88-1.67-2.72-2.93-3.75-2.71-1.52-4.06-2.43-2.68-1.47-4.09-2.24-2.41-2.11-3.88-2.75-2.83-1.31-4.35-1.84-3.08-.55-4.63-1-3-.8-4.57-1.12-3.13-.06-4.72-.28-3-1.21-4.58-1.34-3.15.82-4.76.77-3.1-.53-4.71-.51-3.14.24-4.66.29-3.13.2-4.65.33-3.13.24-4.63.45-3.13.35-4.62.66-3.11.52-4.57.92-3,1-4.4,1.52-2.82,1.37-4.2,2-3.09.85-4.41,1.58-2.76,1.57-4,2.42-2.76,1.63-3.91,2.6-2,2.5-3,3.58a36.76,36.76,0,0,0-2.83,3.66c-1,1.32-2.33,2.29-3.05,3.58a25.66,25.66,0,0,0-1.45,4.43c-.57,1.61-1.6,3-1.74,4.37-.17,1.81.9,3.2,1.41,4.38.61,1.41,1.53,1.82,3.37,2.18a14.94,14.94,0,0,0,4.59.69c1.43-.1,3.13.39,4.82.1,1.47-.25,2.9-1.33,4.53-1.68s3.14-.22,4.74-.59,2.89-1.41,4.47-1.78,3.23.06,4.79-.29,3-.88,4.6-1.21,3-1.07,4.6-1.34,3.23,0,4.79-.24,3.19,0,4.75-.14S339.78,304.21,341.33,304.21Z"/><path class="cls-2" d="M393.31,314.34a10.23,10.23,0,0,1-2.14-.31,10.59,10.59,0,0,0-1.76-.3,9.33,9.33,0,0,0-1.5.08,11.66,11.66,0,0,1-3.07,0,25.36,25.36,0,0,1-2.51-.61c-.61-.17-1.25-.35-1.9-.48s-1.19-.23-1.81-.34c-.85-.14-1.71-.29-2.58-.49a12.07,12.07,0,0,1-2.34-.89,9.92,9.92,0,0,0-1.86-.73,9.13,9.13,0,0,0-1.89-.16,13.65,13.65,0,0,1-2.57-.25A11.33,11.33,0,0,1,365,309a9.16,9.16,0,0,0-1.85-.71,7.16,7.16,0,0,0-1.78.09,8.42,8.42,0,0,1-2.78.08,9.69,9.69,0,0,1-2.46-.95,6.5,6.5,0,0,0-1.72-.69c-.84-.13-1.7-.2-2.56-.27l-3.47-.38c-.9-.13-1.81-.25-2.7-.31-2-.13-3.71-.56-6.28.41a9.94,9.94,0,0,1-2.68.7c-.48,0-1,.05-1.45.05h-1.46a13.08,13.08,0,0,0-1.76.1,14.85,14.85,0,0,1-2.32.1,13.64,13.64,0,0,0-2.4.12,15.5,15.5,0,0,0-2.18.64,18.47,18.47,0,0,1-2.38.7c-.8.17-1.58.39-2.36.62s-1.47.41-2.21.58a9.34,9.34,0,0,1-2.05.19l-1.4,0a6.21,6.21,0,0,0-1.33.12,10.13,10.13,0,0,0-2,.79,11.62,11.62,0,0,1-2.51,1,18.2,18.2,0,0,1-2.74.36,14.68,14.68,0,0,0-2,.24,9.28,9.28,0,0,0-2,.75,11,11,0,0,1-2.62.94,12.94,12.94,0,0,1-3.29,0,12.75,12.75,0,0,0-1.35-.09l-1,0a13.06,13.06,0,0,1-3.39-.52l-.94-.22c-1.81-.36-3.52-.86-4.48-3.08a8.09,8.09,0,0,0-.39-.78,7.63,7.63,0,0,1-1.13-4.34,9.3,9.3,0,0,1,1.08-3.1,16.33,16.33,0,0,0,.74-1.64c.15-.45.27-.92.4-1.41a12.7,12.7,0,0,1,1.16-3.26,10.93,10.93,0,0,1,1.9-2.35,15.08,15.08,0,0,0,1.25-1.39l.75-1a24.13,24.13,0,0,1,2.2-2.78,12.15,12.15,0,0,0,1.08-1.34,13.89,13.89,0,0,1,2.07-2.36,21.37,21.37,0,0,1,2.59-1.76c.48-.3,1-.6,1.45-.93,1.29-.87,2.68-1.69,4.13-2.49a13.92,13.92,0,0,1,2.7-1,15.16,15.16,0,0,0,1.83-.62c.51-.23,1-.49,1.52-.75a22.72,22.72,0,0,1,2.78-1.28l1.27-.46c1.05-.39,2.12-.79,3.25-1.09s2.08-.48,3.16-.67l1.51-.28c1-.21,2.12-.35,3.22-.49l1.49-.19c1.29-.18,2.61-.29,4-.4l1.71-.14c1.23-.11,2.47-.21,3.76-.25.61,0,1.22-.08,1.84-.13a24.5,24.5,0,0,1,5.7.12,14,14,0,0,0,1.91.23h0a7.35,7.35,0,0,0,1.9-.35,9.85,9.85,0,0,1,2.53-.43,10.36,10.36,0,0,1,3.31.81,8,8,0,0,0,1.76.55c1.62.23,3.27,0,4.81.3s3.17.74,4.67,1.15c.64.17,1.29.27,1.95.38a16.65,16.65,0,0,1,2.79.62c1.25.45,2.45,1,3.61,1.51l.85.38a10.41,10.41,0,0,1,2.54,1.73,9.66,9.66,0,0,0,1.45,1.07l1.36.72a26.18,26.18,0,0,1,2.85,1.6,18.06,18.06,0,0,0,1.65.95,14.32,14.32,0,0,1,2.53,1.57,10.31,10.31,0,0,1,2,2.46,9.38,9.38,0,0,0,1,1.4,7.49,7.49,0,0,0,1.57,1.1,8.43,8.43,0,0,1,2.4,1.91,7.5,7.5,0,0,1,1.24,3.2,6.3,6.3,0,0,0,.45,1.55,16.26,16.26,0,0,0,1,1.49A11.3,11.3,0,0,1,398,300.3l.34.89a16.43,16.43,0,0,1,1.16,4,11.08,11.08,0,0,1-.47,5.54,6.55,6.55,0,0,1-4.71,3.54c-.11,0-.86.11-1,.11Zm-4.14-3.68a14.68,14.68,0,0,1,2.66.38,8.16,8.16,0,0,0,1.48.24v1.53l.28-1.56a3.63,3.63,0,0,0,2.6-1.77,8.57,8.57,0,0,0,.23-4,14.08,14.08,0,0,0-1-3.21l-.35-.92a8.61,8.61,0,0,0-1.19-1.92,18.84,18.84,0,0,1-1.19-1.77,7.73,7.73,0,0,1-.81-2.46,5.18,5.18,0,0,0-.66-1.95,5.89,5.89,0,0,0-1.56-1.15,11,11,0,0,1-2.17-1.59,11.73,11.73,0,0,1-1.41-1.87,7.6,7.6,0,0,0-1.4-1.77,12.27,12.27,0,0,0-2-1.23,21.59,21.59,0,0,1-1.92-1.1,23.28,23.28,0,0,0-2.55-1.43l-1.43-.75a12.71,12.71,0,0,1-2-1.42,8,8,0,0,0-1.81-1.27l-.86-.39c-1.08-.49-2.21-1-3.38-1.41a12.4,12.4,0,0,0-2.26-.49,21.51,21.51,0,0,1-2.26-.45c-1.44-.39-2.93-.79-4.47-1.1s-3.06,0-4.64-.26a11.17,11.17,0,0,1-2.44-.74,8.2,8.2,0,0,0-2.05-.6,4.9,4.9,0,0,0-1.88.33,10.17,10.17,0,0,1-2.63.45,16.51,16.51,0,0,1-2.48-.27,12.41,12.41,0,0,1-2.25-.24,24,24,0,0,0-2.68.15c-.69.06-1.36.12-2,.14-1.23,0-2.41.14-3.58.24l-1.74.14c-1.3.11-2.56.21-3.8.38l-1.54.2c-1,.13-2,.25-3,.45l-1.56.29c-1,.18-2,.35-2.9.61s-2,.65-3,1l-1.3.47a18.77,18.77,0,0,0-2.4,1.11c-.57.3-1.12.58-1.69.83a16.42,16.42,0,0,1-2.2.77,10.38,10.38,0,0,0-2.09.76c-1.36.75-2.68,1.52-3.89,2.34-.51.36-1,.68-1.58,1a19.46,19.46,0,0,0-2.21,1.5,10.35,10.35,0,0,0-1.58,1.84,16.8,16.8,0,0,1-1.33,1.63,21.38,21.38,0,0,0-1.92,2.44l-.79,1.08a18.82,18.82,0,0,1-1.5,1.69,8.81,8.81,0,0,0-1.43,1.71,10.4,10.4,0,0,0-.87,2.52,16.47,16.47,0,0,1-.48,1.68,19.55,19.55,0,0,1-.87,2,7.25,7.25,0,0,0-.79,2,4.88,4.88,0,0,0,.81,2.63c.18.34.35.67.48,1,.3.68.56.95,2.27,1.29l1.08.26a10.8,10.8,0,0,0,2.65.42l1,0c.52,0,1.07.05,1.64.1a9.34,9.34,0,0,0,2.48,0,8,8,0,0,0,1.86-.7,12.31,12.31,0,0,1,2.61-1,17.35,17.35,0,0,1,2.43-.3,16.3,16.3,0,0,0,2.29-.29,9.74,9.74,0,0,0,1.86-.76,12.81,12.81,0,0,1,2.6-1,9.13,9.13,0,0,1,2-.2l1.4,0a6.59,6.59,0,0,0,1.37-.11c.69-.16,1.37-.35,2.05-.55.86-.24,1.71-.48,2.59-.66a18.13,18.13,0,0,0,2-.6,18,18,0,0,1,2.64-.76,16.81,16.81,0,0,1,2.74-.17,15.86,15.86,0,0,0,2.11-.08,17.65,17.65,0,0,1,2.17-.12h1.46c.4,0,.81,0,1.21,0a7.56,7.56,0,0,0,1.85-.52c2.1-.78,4.92-.76,7.54-.59,1,.06,2,.19,2.92.32l3.32.37c.93.08,1.85.16,2.77.3a8.75,8.75,0,0,1,2.63,1,7.43,7.43,0,0,0,1.65.67,9.08,9.08,0,0,0,1.77-.1,8.87,8.87,0,0,1,2.85-.06,11.79,11.79,0,0,1,2.51.94,9.7,9.7,0,0,0,1.74.68,9.85,9.85,0,0,0,2,.17,12.3,12.3,0,0,1,2.53.24,12.91,12.91,0,0,1,2.44.93,9,9,0,0,0,1.74.68c.81.19,1.62.33,2.4.46s1.31.23,1.94.36,1.41.35,2.08.53a21.8,21.8,0,0,0,2.19.54,9,9,0,0,0,2.26,0,14.48,14.48,0,0,1,1.57-.11Z"/><path class="cls-1" d="M299,345.08c-2.07.67-.3,1.41-1.35,3.84-.5,1.16-1.88,2.1-2.7,3.52a34.4,34.4,0,0,1-2.15,3.77,28.84,28.84,0,0,1-5.87,6.42c-1.14.84-2.7,1-4,1.75a26.33,26.33,0,0,1-3.77,2.13,32.3,32.3,0,0,1-4.31.71c-1.38.28-2.68,1.48-4.21,1.59s-3.29-.84-4.82-.89a41.26,41.26,0,0,1-4.77-.13,37.82,37.82,0,0,1-4.73-.71,38.23,38.23,0,0,1-4.61-1.35,40,40,0,0,1-4.45-1.91,41.14,41.14,0,0,1-3.87-2.91c-1.31-1-2.59-2-3.74-3s-2.1-2.5-3.18-3.62-1.85-2.7-2.86-3.82-2.92-1.78-3.93-2.85a8.56,8.56,0,0,0-3.3-2.45c-1.76-.61-2.3.19-2.86,1.63-.72,1.85,1.06,3.34-.76,4.54-2.13,1.38-2.1-1.93-4.78-2.79-1.51-.48-3.39.16-5.12.09s-3.41-.46-4.87.39c-1.31.76-1.86,2.22-2.62,4.07a13.39,13.39,0,0,0-1.61,4.73,12.74,12.74,0,0,0,.61,4.37,14,14,0,0,0,1.69,4.09c.81,1.2,2.25,1.85,3.36,2.87s1.75,2.5,3,3.32a39.26,39.26,0,0,0,3.82,2.32c1.35.69,2.8,1.18,4.15,1.72s3,.83,4.28,1.27c1.56.51,3.16.37,4.4.7,2.58.68,1.84,1.64,4,2.18s1.87-.44,4.57.32c1.24.35,2.51,1.5,4.16,1.91,1.34.34,2.93.22,4.49.56,1.41.3,2.93.4,4.47.68s2.81,1.26,4.33,1.49,3,.51,4.51.66,3.07-.17,4.58-.09,3,.15,4.54.14,3-.6,4.5-.74,3.16.48,4.62.2,2.72-1.67,4.11-2.15a24.43,24.43,0,0,0,4.26-1.39,18.19,18.19,0,0,0,3.47-2.89c.2.1,0,2-1.09,4.58-.5,1.19-1.13,2.56-1.71,4.18-.47,1.31-1.06,2.69-1.51,4.25-.39,1.37-.91,2.8-1.22,4.35s-.42,2.93-.62,4.48,0,3-.11,4.53-.63,3-.56,4.52.13,3,.32,4.54.16,3,.49,4.56,1.23,2.79,1.7,4.27,1.16,2.74,1.75,4.17.65,3,1.35,4.37,1.86,2.38,2.69,3.7,1,2.92,2,4.18,2.53,1.82,3.53,3,2,2.18,3.07,3.31,1.7,2.52,2.84,3.6,1.77,2.59,3,3.6a12.45,12.45,0,0,1,2.3,4c.54,1.32.77,3,1.52,4.65.66,1.43,2,2.6,2.79,4.1s.89,3.29,1.75,4.67a39.34,39.34,0,0,0,3,3.95,18.36,18.36,0,0,0,3.8,3.12c1.5,1.07,2.9,2.11,4.43,2a4.12,4.12,0,0,0,3.94-3.23,13.4,13.4,0,0,0-.86-5.13,38,38,0,0,0-1.83-4.73c-.76-1.58-2.09-2.87-2.85-4.18-1.43-2.48-4.41-2.43-2.93-4.43s2.13,1.13,5,2.07c1.41.46,3.19.5,5,.93,1.57.39,3.09,1.61,4.8,1.85a36.71,36.71,0,0,0,5.12.35c1.76,0,3.2-1.22,4.57-1.48,1.83-.35,3.48-.18,4.67-.74,2.64-1.24,2.68-4.86,3.55-2.68s-.14,2-.72,4.69c-.34,1.48-1.09,3.05-1,4.74a9.56,9.56,0,0,0,1.41,4.61,8.64,8.64,0,0,0,3.51,3.42c1.34.64,3.32.17,5-1.12,1.18-.91,1.8-2.79,3-4.19s2.11-2.59,3.07-4,2.08-2.89,2.89-4.18c1.55-2.5,2.36-4.15,2.36-4.08a13.47,13.47,0,0,0,4.8-1.8,33.66,33.66,0,0,0,4.13-2.35c1.16-.87,2.16-2.2,3.4-3.37,1.08-1,1.88-2.42,3-3.69s2.43-2,3.37-3.38,1.67-2.63,2.47-4.07,1.66-2.66,2.32-4.16.32-3.19.85-4.73,1.41-2.78,1.81-4.36.5-3.06.78-4.66.67-3,.85-4.65.64-3.08.73-4.7-.86-3.12-.86-4.75,1-3.14.88-4.77-.86-3.08-1-4.7.41-3.31.23-4.85-.45-3.24-.66-4.78-.9-3.17-1.14-4.7-.1-3.31-.37-4.82-1.58-3-1.89-4.52c-.35-1.65.06-3.38-.3-4.85-.4-1.65-1-3.16-1.37-4.61-.48-1.66-.76-3.27-1.25-4.67-.57-1.66-1.87-2.85-2.44-4.18-.71-1.66-1.08-3.2-1.75-4.42-.94-1.7-1.14-3.5-1.93-4.49-2.06-2.6-1.61-2.61-4-2.81a38,38,0,0,0-4.65-.11c-2.33,0-2.33-.38-4.66-.38s-2.35,1-4.68,1-2.35-.56-4.7-.56-2.34.13-4.67.13-2.34.32-4.67.32-2.34-.74-4.68-.74-2.35.13-4.7.13-2.35.6-4.69.6-2.34-.86-4.69-.86-2.35.94-4.7.94-2.35-.11-4.7-.11-2.34.19-4.69.19-2.35-.73-4.69-.73-2.35-.26-4.71-.26-2.36.22-4.72.22-2.36.37-4.73.24S301.27,344.35,299,345.08Z"/><path class="cls-1" d="M324.77,481.5c-1.89,0-3.45-1.13-5-2.22l-.82-.57a15.35,15.35,0,0,1-3.34-2.86l-.57-.7a33.25,33.25,0,0,1-2.55-3.41,10.85,10.85,0,0,1-1.13-2.87,10.25,10.25,0,0,0-.67-1.9,11.33,11.33,0,0,0-1.23-1.76,12.54,12.54,0,0,1-1.6-2.4,17.79,17.79,0,0,1-1-3,16.1,16.1,0,0,0-.54-1.73,13.62,13.62,0,0,0-1.9-3.4,10.92,10.92,0,0,1-1.85-2.2,9.94,9.94,0,0,0-1.15-1.43,14,14,0,0,1-1.79-2.21,12.34,12.34,0,0,0-1.11-1.45l-.81-.84c-.81-.85-1.6-1.67-2.33-2.54a7.31,7.31,0,0,0-1.43-1.18,8.5,8.5,0,0,1-2.17-1.93,11,11,0,0,1-1.3-2.65,8.72,8.72,0,0,0-.71-1.61,15,15,0,0,0-1.12-1.5,14,14,0,0,1-1.63-2.31,12.37,12.37,0,0,1-.92-2.8,11.37,11.37,0,0,0-.48-1.69l-.63-1.42a24,24,0,0,1-1.17-2.87,12.15,12.15,0,0,0-.72-1.71,13.49,13.49,0,0,1-1-2.69,21.27,21.27,0,0,1-.36-3.06c0-.56-.08-1.1-.15-1.63-.2-1.59-.28-3.16-.33-4.69a12.38,12.38,0,0,1,.32-2.94,15,15,0,0,0,.25-1.71c0-.58,0-1.16,0-1.73A18.71,18.71,0,0,1,282,401l.15-1.29c.13-1.14.26-2.25.49-3.32a32.42,32.42,0,0,1,.88-3.2l.37-1.25c.33-1.14.72-2.18,1.1-3.18l.44-1.17c.47-1.32,1-2.48,1.42-3.52l.26-.59-.15.09a12,12,0,0,1-3,1.09c-.49.12-1,.24-1.48.41a7.23,7.23,0,0,0-1.43.82,7.78,7.78,0,0,1-2.89,1.39,8.94,8.94,0,0,1-3,0,10.44,10.44,0,0,0-1.47-.14,12.08,12.08,0,0,0-2.1.34,13.69,13.69,0,0,1-2.87.42c-1.58-.11-3.23-.07-4.63-.14a16.21,16.21,0,0,0-1.92.06,15.56,15.56,0,0,1-2.73,0c-1-.1-2-.26-3-.43l-1.54-.24a11,11,0,0,1-2.7-.88,7.82,7.82,0,0,0-1.7-.61c-.65-.12-1.31-.21-2-.29-.87-.12-1.73-.23-2.55-.4a13.84,13.84,0,0,0-2.09-.25,14.36,14.36,0,0,1-2.45-.32,11,11,0,0,1-2.82-1.25,7.21,7.21,0,0,0-1.38-.68,5.46,5.46,0,0,0-1.37-.24,5.8,5.8,0,0,1-3.16-.07,4.7,4.7,0,0,1-2.45-1.38,2.75,2.75,0,0,0-1.53-.8,9.61,9.61,0,0,0-1.52-.21,13.27,13.27,0,0,1-3-.52c-.5-.16-1-.3-1.56-.44a20.22,20.22,0,0,1-2.82-.86l-1.15-.45a31.25,31.25,0,0,1-3.11-1.33,39.86,39.86,0,0,1-4-2.4,8.89,8.89,0,0,1-2.18-2.25,8.68,8.68,0,0,0-1-1.22,13.41,13.41,0,0,0-1.21-.93,9,9,0,0,1-2.39-2.22,15.37,15.37,0,0,1-1.89-4.52,14.21,14.21,0,0,1-.66-4.88,11.31,11.31,0,0,1,1.3-4.34l.41-.88c.85-2.07,1.57-3.82,3.27-4.81a6.78,6.78,0,0,1,4.68-.66l1,.06a10.14,10.14,0,0,0,1.82-.12,9.26,9.26,0,0,1,3.71.1,6.34,6.34,0,0,1,3.14,2.5,4.34,4.34,0,0,0,.52.62,6.91,6.91,0,0,0-.12-1,5.1,5.1,0,0,1,.1-3c.43-1.11,1.66-3.61,4.79-2.51a9.83,9.83,0,0,1,3.91,2.84,7.46,7.46,0,0,0,1.47,1,9.64,9.64,0,0,1,2.48,1.85,16.32,16.32,0,0,1,1.42,1.91,13.25,13.25,0,0,0,1.42,1.88c.48.5.94,1.06,1.39,1.63a15.45,15.45,0,0,0,1.71,1.92c1.12,1,2.35,2,3.63,2.93.44.33.88.69,1.31,1.05A18.89,18.89,0,0,0,248,362.5a18,18,0,0,0,2.75,1.21l1.52.61a19.91,19.91,0,0,0,3.07.93l1.35.36a19.82,19.82,0,0,0,2.94.47l1.61.2a13.06,13.06,0,0,0,2,.11h2.61a10.09,10.09,0,0,1,2.49.5,7.88,7.88,0,0,0,2,.4,5,5,0,0,0,2-.69,9,9,0,0,1,2.21-.88c.64-.12,1.28-.19,1.91-.26a10.46,10.46,0,0,0,2.19-.39,10.22,10.22,0,0,0,2.11-1.16c.49-.31,1-.62,1.45-.88a13.26,13.26,0,0,1,2-.82,6.93,6.93,0,0,0,1.83-.81,21.59,21.59,0,0,0,2.47-2.28l.56-.56a17.83,17.83,0,0,0,1.8-2.26l.74-1a13.19,13.19,0,0,0,1.31-2.24c.24-.47.48-.94.74-1.38a12.06,12.06,0,0,1,1.6-2.05,6.14,6.14,0,0,0,1-1.29,2.7,2.7,0,0,0,.2-1.59c-.14-1.16,0-2.44,2.08-3.11a8.23,8.23,0,0,1,4.1-.53l1.9.09a10.3,10.3,0,0,0,1.41-.1c1.16-.15,3.49-.16,4.62-.27a33.77,33.77,0,0,1,5,0,17.47,17.47,0,0,0,2.19.12,8.15,8.15,0,0,1,2.8.44,13.09,13.09,0,0,0,4.11.2c1.23-.1,3.67-.1,4.89-.05a10.82,10.82,0,0,0,4.06-.31,7.14,7.14,0,0,1,2.92-.57,7.5,7.5,0,0,1,2.88.52,7.25,7.25,0,0,0,3.78.09,9.67,9.67,0,0,1,2.72-.34c1.13,0,1.7,0,2.26-.07s1.23-.06,2.44-.06a8.39,8.39,0,0,1,2.79.43,11.15,11.15,0,0,0,4,.15,15.91,15.91,0,0,1,2.55-.17c1.12,0,1.68,0,2.24-.07s1.22-.06,2.43-.06a10.14,10.14,0,0,1,2.7.32,6.39,6.39,0,0,0,3.71-.14,6.48,6.48,0,0,1,3-.65,13.4,13.4,0,0,1,2.58.21,11.51,11.51,0,0,0,2.08.17l2.14,0c.69,0,1.29,0,2.64.14,2.37.2,2.8.43,4.2,2.29l.84,1.09a8.07,8.07,0,0,1,1.21,2.58,12.33,12.33,0,0,0,.87,2.12,19.7,19.7,0,0,1,1.11,2.67c.21.6.43,1.23.71,1.89a9.22,9.22,0,0,0,.9,1.46,11.53,11.53,0,0,1,1.58,2.81c.29.86.52,1.78.75,2.75.16.65.32,1.32.52,2l.5,1.65c.31,1,.63,2,.89,3a10.88,10.88,0,0,1,.2,2.77,9.67,9.67,0,0,0,.1,2.12,7.27,7.27,0,0,0,.75,1.69,9.44,9.44,0,0,1,1.15,2.88,18.53,18.53,0,0,1,.22,2.63,20.9,20.9,0,0,0,.16,2.22,16.4,16.4,0,0,0,.5,2,19.45,19.45,0,0,1,.65,2.76l.24,1.71c.15,1,.3,2,.42,3.09a11.48,11.48,0,0,1-.11,2.76,10.44,10.44,0,0,0-.12,2.12,11.59,11.59,0,0,0,.46,2,11.68,11.68,0,0,1,.57,2.75,9.21,9.21,0,0,1-.51,3.06,7.23,7.23,0,0,0-.37,1.79,7.39,7.39,0,0,0,.38,1.92,8.75,8.75,0,0,1,.47,2.91,20.89,20.89,0,0,1-.42,3c-.12.61-.25,1.22-.31,1.83-.12,1.11-.34,2.19-.56,3.25l-.3,1.5c-.1.59-.19,1.17-.27,1.75a26.42,26.42,0,0,1-.54,3,15.53,15.53,0,0,1-1.12,2.84,13,13,0,0,0-.72,1.64,8.29,8.29,0,0,0-.31,1.92,8.8,8.8,0,0,1-.59,2.94,27.14,27.14,0,0,1-1.64,3l-.75,1.27c-.82,1.48-1.66,2.91-2.54,4.19a13.12,13.12,0,0,1-2.2,2.3,13.27,13.27,0,0,0-1.27,1.2c-.41.49-.78,1-1.14,1.49a17.86,17.86,0,0,1-1.93,2.32c-.47.44-.91.91-1.33,1.37a17.9,17.9,0,0,1-2.19,2.11,20.28,20.28,0,0,1-3.12,1.84c-.42.21-.82.41-1.18.61a17.35,17.35,0,0,1-4.59,1.87c-.5.91-1.15,2.07-2,3.49-.62,1-1.38,2.08-2.18,3.2l-.74,1.06c-1,1.41-2.06,2.78-3.15,4.08a11.7,11.7,0,0,0-1.16,1.74,8.75,8.75,0,0,1-2.08,2.67c-2.15,1.65-4.75,2.16-6.59,1.29a10.15,10.15,0,0,1-4.14-4,11.12,11.12,0,0,1-1.65-5.33,10.6,10.6,0,0,1,.66-3.9c.13-.44.26-.86.36-1.28a7.51,7.51,0,0,1,.21-.82,5,5,0,0,1-.9.53,8.67,8.67,0,0,1-3.11.63,17.53,17.53,0,0,0-1.92.23,6.56,6.56,0,0,0-1.36.53c-2.13,1-5.7,1.07-8.84.62a10.86,10.86,0,0,1-3.16-1.14,9.68,9.68,0,0,0-1.78-.74c-.77-.19-1.53-.29-2.26-.4a17.18,17.18,0,0,1-2.84-.57l-.45-.17c.07.1.13.21.2.32a14.68,14.68,0,0,0,1.07,1.52,16.22,16.22,0,0,1,1.83,2.75,39.77,39.77,0,0,1,1.91,4.94,13.8,13.8,0,0,1,.92,5.79c-.34,2.44-2.47,4.27-5.31,4.55l-.45,0Zm-18.34-29.08c1.13.9,2.16,3.08,2.76,4.51a19.1,19.1,0,0,1,.66,2.09,16.73,16.73,0,0,0,.83,2.51,10,10,0,0,0,1.22,1.79,15,15,0,0,1,1.54,2.23,12.15,12.15,0,0,1,.9,2.48,8.69,8.69,0,0,0,.79,2.1,29,29,0,0,0,2.31,3.07l.59.72a12.48,12.48,0,0,0,2.7,2.27l.81.57c1.23.89,2.33,1.68,3.23,1.68V480l.15-1.54a2.65,2.65,0,0,0,2.58-1.91,11.91,11.91,0,0,0-.81-4.46,36.92,36.92,0,0,0-1.75-4.53,13.9,13.9,0,0,0-1.49-2.22,18.69,18.69,0,0,1-1.31-1.86,5.22,5.22,0,0,0-1.68-1.6,3.54,3.54,0,0,1-1.82-2.25,2.89,2.89,0,0,1,.67-2.25c1.44-2,3.41-1.11,4.63.07a5.42,5.42,0,0,0,2.07,1.45,13.71,13.71,0,0,0,2.31.45c.83.12,1.69.25,2.55.46a11.88,11.88,0,0,1,2.41,1,8,8,0,0,0,2.25.86c2.31.33,4.61.79,7.12-.37a9.15,9.15,0,0,1,2.07-.76,21.26,21.26,0,0,1,2.24-.27,6.74,6.74,0,0,0,2.06-.34,4.37,4.37,0,0,0,1.73-1.95c.39-.69.89-1.56,2-1.56,1.26,0,1.76,1.24,1.92,1.65a4,4,0,0,1-.05,3.88,7,7,0,0,0-.6,1.7c-.11.49-.26,1-.42,1.5a7.36,7.36,0,0,0,.65,6.7,7.07,7.07,0,0,0,2.88,2.86c.75.34,2.22-.05,3.41-1a6.49,6.49,0,0,0,1.3-1.8,16.06,16.06,0,0,1,1.46-2.16c1-1.22,2-2.52,3-3.86l.76-1.07c.76-1.07,1.48-2.09,2.08-3.05,1-1.67,1.75-3,2.08-3.58a2.56,2.56,0,0,1,1.65-1.21,14.88,14.88,0,0,0,4-1.59c.4-.24.85-.47,1.32-.7a17.63,17.63,0,0,0,2.65-1.55,15.45,15.45,0,0,0,1.8-1.75c.47-.51.95-1,1.47-1.51a14.22,14.22,0,0,0,1.56-1.91c.4-.56.82-1.12,1.29-1.66a15.11,15.11,0,0,1,1.57-1.52,10.28,10.28,0,0,0,1.7-1.74c.84-1.21,1.62-2.55,2.4-3.94l.79-1.35a26.55,26.55,0,0,0,1.47-2.68,6.84,6.84,0,0,0,.34-1.95,10.66,10.66,0,0,1,.45-2.67,18.69,18.69,0,0,1,.86-2,12.26,12.26,0,0,0,.92-2.27,23.22,23.22,0,0,0,.47-2.69c.09-.61.18-1.23.29-1.86l.31-1.58c.2-1,.4-1.95.52-3,.07-.69.21-1.38.34-2.08a19,19,0,0,0,.38-2.53,6.57,6.57,0,0,0-.37-1.92,10,10,0,0,1-.49-2.74,9.43,9.43,0,0,1,.49-2.65,6.68,6.68,0,0,0,.39-2.05,9.86,9.86,0,0,0-.45-2.06,14.2,14.2,0,0,1-.56-2.57,12.74,12.74,0,0,1,.12-2.8,9.08,9.08,0,0,0,.11-2c-.11-1-.26-2-.4-3l-.25-1.74a15.89,15.89,0,0,0-.56-2.31,19,19,0,0,1-.58-2.37,22.75,22.75,0,0,1-.2-2.59,14.41,14.41,0,0,0-.17-2.2,7.4,7.4,0,0,0-.83-2,8.77,8.77,0,0,1-1.05-2.51,12.45,12.45,0,0,1-.18-2.8,8.3,8.3,0,0,0-.1-2c-.25-1-.54-1.93-.83-2.83l-.53-1.73c-.21-.72-.38-1.44-.55-2.14-.21-.86-.4-1.69-.67-2.45a8.6,8.6,0,0,0-1.2-2.07,11.91,11.91,0,0,1-1.21-2c-.31-.72-.55-1.41-.78-2.08a15.49,15.49,0,0,0-.9-2.2,14.84,14.84,0,0,1-1.08-2.62,6.92,6.92,0,0,0-.71-1.66l-.88-1.14c-.74-1-.74-1-2-1.09s-1.76-.13-2.38-.13l-2.14,0a14.18,14.18,0,0,1-2.58-.21,7.5,7.5,0,0,0-3.81.21,6.42,6.42,0,0,1-2.95.65,9.73,9.73,0,0,1-2.71-.33,18.46,18.46,0,0,0-4.24-.17c-.61,0-1.21.07-2.42.07a13.94,13.94,0,0,0-2.13.14,16,16,0,0,1-2.54.17,8.46,8.46,0,0,1-2.8-.43,14,14,0,0,0-4.14-.23,27.14,27.14,0,0,0-4.41.31,9.22,9.22,0,0,1-2.72.35,7.48,7.48,0,0,1-2.87-.52,5.55,5.55,0,0,0-3.6,0,7,7,0,0,1-2.92.58c-1.21,0-1.82,0-2.42-.05-1.12-.05-3.37-.05-4.5,0-.62.05-1.23.1-2.47.1a8.41,8.41,0,0,1-2.8-.43,5.19,5.19,0,0,0-1.89-.3,19.45,19.45,0,0,1-2.52-.14,28.25,28.25,0,0,0-4.41,0,23,23,0,0,1-2.5.11,14,14,0,0,0-2,.14,12.29,12.29,0,0,1-1.81.13l-2.13-.1a5.06,5.06,0,0,0-2.93.39,5,5,0,0,1-.42,3,7.8,7.8,0,0,1-1.56,2.15,9.24,9.24,0,0,0-1.22,1.52c-.23.4-.44.81-.65,1.23a16.79,16.79,0,0,1-1.6,2.7l-.69.95a20.7,20.7,0,0,1-2.13,2.64l-.53.54a26.14,26.14,0,0,1-2.83,2.59,9.11,9.11,0,0,1-2.67,1.25,11.57,11.57,0,0,0-1.56.63c-.41.22-.81.48-1.21.74a12.67,12.67,0,0,1-2.77,1.49,12.45,12.45,0,0,1-2.89.54c-.54.06-1.08.11-1.63.22a7.12,7.12,0,0,0-1.41.6,7.66,7.66,0,0,1-3,1,10,10,0,0,1-3.23-.5,7.79,7.79,0,0,0-1.73-.38h-2.52a17.63,17.63,0,0,1-2.43-.14l-1.51-.19a22,22,0,0,1-3.42-.56l-1.28-.34a25.19,25.19,0,0,1-3.51-1.08l-1.43-.57a22.55,22.55,0,0,1-3.19-1.43,21.12,21.12,0,0,1-2.8-2c-.41-.34-.81-.66-1.21-1-1.35-1-2.67-2-3.86-3.11a18.84,18.84,0,0,1-2-2.27c-.4-.49-.79-1-1.22-1.43a15.87,15.87,0,0,1-1.75-2.3,14.29,14.29,0,0,0-1.15-1.56,7.25,7.25,0,0,0-1.77-1.27,9,9,0,0,1-2.12-1.54,7.21,7.21,0,0,0-2.7-2.07c-.53-.12-.67.06-.93.74a2.24,2.24,0,0,0,0,1.3,3.41,3.41,0,0,1-1.4,4c-2,1.31-3.63-.13-4.44-1.18a3.51,3.51,0,0,0-1.64-1.44,7.21,7.21,0,0,0-2.41,0,16.68,16.68,0,0,1-2,.16l-1.46-.09a5.63,5.63,0,0,0-2.91.27c-.76.44-1.18,1.41-1.87,3.1l-.57,1.26a8.42,8.42,0,0,0-1,3.21,11.3,11.3,0,0,0,.55,3.84,12.76,12.76,0,0,0,1.48,3.66,6.76,6.76,0,0,0,1.64,1.44,14.22,14.22,0,0,1,1.49,1.17,11.71,11.71,0,0,1,1.41,1.63,6.26,6.26,0,0,0,1.41,1.54,40.46,40.46,0,0,0,3.68,2.23c.91.46,1.88.83,2.82,1.2l1.21.47a18.42,18.42,0,0,0,2.41.73c.61.16,1.2.31,1.77.49a10.25,10.25,0,0,0,2.28.38,13.17,13.17,0,0,1,2,.3,5.73,5.73,0,0,1,2.89,1.58,1.83,1.83,0,0,0,1.06.6,3.93,3.93,0,0,0,.84.13,6.7,6.7,0,0,1,3.77.2,9.44,9.44,0,0,1,2.06,1,8.58,8.58,0,0,0,2.05.94,11.57,11.57,0,0,0,1.93.24,17.12,17.12,0,0,1,2.52.3c.74.16,1.51.26,2.3.36s1.4.19,2.11.32a10.76,10.76,0,0,1,2.38.81,7.44,7.44,0,0,0,1.9.66l1.61.25c.94.16,1.89.31,2.84.41a12.65,12.65,0,0,0,2.22,0c.56,0,1.13-.07,1.69-.07,1.94.08,3.29.15,4.64.15a11.63,11.63,0,0,0,2.62-.35,16.44,16.44,0,0,1,2.15-.38,13.6,13.6,0,0,1,2.49.14,11.87,11.87,0,0,0,1.43.13,4.92,4.92,0,0,0,2.32-1,9.17,9.17,0,0,1,2.14-1.17c.56-.19,1.14-.34,1.71-.49a9.52,9.52,0,0,0,2.28-.78,15,15,0,0,0,2.84-2.34,2.18,2.18,0,0,1,2.09-.58c1.63.84.69,4-.38,6.54l-.33.76c-.43,1-.9,2.09-1.35,3.34l-.46,1.22c-.34.91-.71,1.88-1,2.93l-.4,1.32c-.28.93-.58,1.89-.8,2.92s-.32,2-.44,3l-.16,1.33a17,17,0,0,0-.07,2.48c0,.63,0,1.27,0,1.91a15.52,15.52,0,0,1-.3,2.14,10.29,10.29,0,0,0-.27,2.26c.05,1.45.13,2.92.32,4.41.07.59.12,1.19.16,1.81a16.86,16.86,0,0,0,.31,2.62,9.7,9.7,0,0,0,.79,2,18.22,18.22,0,0,1,.87,2.1,22.6,22.6,0,0,0,1,2.52l.68,1.52a16.37,16.37,0,0,1,.63,2.16,9.78,9.78,0,0,0,.66,2.1,11.24,11.24,0,0,0,1.28,1.78,18.49,18.49,0,0,1,1.35,1.81,12.69,12.69,0,0,1,1,2.15,8.74,8.74,0,0,0,.92,1.94,6.5,6.5,0,0,0,1.44,1.21,10,10,0,0,1,2,1.73c.68.82,1.43,1.59,2.19,2.38l.82.86a15.7,15.7,0,0,1,1.4,1.8,11.88,11.88,0,0,0,1.38,1.74,11,11,0,0,1,1.54,1.9,9.26,9.26,0,0,0,1.36,1.64l0,0Z"/><path class="cls-3" d="M335.86,319.06a21.49,21.49,0,0,1-5-.87l-1.22-.29c-1.8-.41-3.11-.71-3.79-1.84-1.63-2.67.54-4.14,1.71-4.93l.75-.52a1.53,1.53,0,0,1,1.8,2.48l-.84.58a5.31,5.31,0,0,0-1,.76c.3.09,1.27.31,2,.49l1.27.3c2.05.52,3.82,1,5,.71,1-.19,1.19-.6,1.6-1.34A3.62,3.62,0,0,1,342,312.4a4,4,0,0,1,3.36,2.13,1.81,1.81,0,0,0,1.54,1.07,8.51,8.51,0,0,0,4.75-.41,14.71,14.71,0,0,0,2.79-1.13c-.06-.08,0-.33-1.85-1.46a1.53,1.53,0,0,1,1.6-2.61c1.49.91,3.75,2.3,3.07,5.09-.36,1.51-1.91,2.05-4.05,2.8a12.23,12.23,0,0,1-6.88.72,4.74,4.74,0,0,1-3.56-2.44c-.36-.56-.41-.65-1.06-.71-.42,0-.42,0-.79.63a5,5,0,0,1-3.66,2.85,6.85,6.85,0,0,1-1.37.13Z"/><path class="cls-4" d="M336.06,293.7c0,2.49-.54,4.46-1.7,4.46s-2.31-2-2.31-4.46,1.14-4.37,2.31-4.37S336.06,291.21,336.06,293.7Z"/><path class="cls-4" d="M334.36,299.69c-2.15,0-3.84-2.63-3.84-6s1.69-5.89,3.84-5.89c1.21,0,3.23.76,3.23,5.89s-2,6-3.23,6Zm-.33-8.94c.19.23-.45,1.25-.45,2.95a5.08,5.08,0,0,0,.63,2.62,8.34,8.34,0,0,0,.32-2.62,5.62,5.62,0,0,0-.5-2.95Z"/><path class="cls-4" d="M349.49,293.7c0,2.49-1.14,4.09-2.31,4.09s-2.07-1.6-2.07-4.09.91-3.88,2.07-3.88S349.49,291.21,349.49,293.7Z"/><path class="cls-4" d="M347.18,299.32c-1.79,0-3.6-1.74-3.6-5.62s1.94-5.41,3.6-5.41c1.91,0,3.84,1.86,3.84,5.41,0,3.2-1.65,5.62-3.84,5.62Zm0-8a3.73,3.73,0,0,0-.53,2.36,4.06,4.06,0,0,0,.58,2.5,3.48,3.48,0,0,0,.74-2.5c0-1.66-.61-2.32-.79-2.36Z"/><path class="cls-5" d="M310.74,326.9c0,1.39.62,2.9,0,4.09a10.69,10.69,0,0,1-2.64,3.33c-1,.8-2.6,1-3.93,1.44a13.05,13.05,0,0,1-4,.78c-1.41,0-2.63-.82-3.87-1.22a11.64,11.64,0,0,1-3.7-1.5c-1.11-.85-1.48-2.16-2.1-3.33a7.22,7.22,0,0,1-1.15-3.59,7.87,7.87,0,0,1,.64-3.88,9.82,9.82,0,0,1,2.47-3.24,12.09,12.09,0,0,1,3.76-1.57c1.24-.4,2.54-1.16,3.95-1.16s2.64,1,3.88,1.42,2.88.43,3.91,1.23a9.83,9.83,0,0,1,2.26,3.4A7.55,7.55,0,0,1,310.74,326.9Z"/><path class="cls-5" d="M300.12,338.07a8,8,0,0,1-3.27-.87c-.36-.16-.72-.31-1.07-.43l-.78-.23a9.85,9.85,0,0,1-3.39-1.51,7.33,7.33,0,0,1-2.1-3l-.41-.83a8.73,8.73,0,0,1-1.33-4.32,9.2,9.2,0,0,1,.82-4.6,11.19,11.19,0,0,1,2.88-3.73,10.73,10.73,0,0,1,3.64-1.63c.92-.29,1.25-.43,1.59-.56a8.81,8.81,0,0,1,6.64.13,9.38,9.38,0,0,0,1.13.51,10.32,10.32,0,0,0,1.25.29,7.24,7.24,0,0,1,3.13,1.19,8.85,8.85,0,0,1,2.33,3.21l.34.67a7.9,7.9,0,0,1,.74,4.13,8.94,8.94,0,0,0,.13,1.58,5.64,5.64,0,0,1-.33,3.62,12,12,0,0,1-3.05,3.82,9.08,9.08,0,0,1-3.34,1.39l-1.05.3a14.82,14.82,0,0,1-4.5.85Zm0-19.49a6.52,6.52,0,0,0-2.28.64c-.41.16-.81.32-1.2.45l-.63.19a8.73,8.73,0,0,0-2.66,1.13,8.43,8.43,0,0,0-2.06,2.76,6.56,6.56,0,0,0-.46,3.15,5.82,5.82,0,0,0,1,2.87l.49,1a5,5,0,0,0,1.2,1.85,7.35,7.35,0,0,0,2.39,1l.84.26c.45.14.9.34,1.35.53a7.3,7.3,0,0,0,5.62-.08c.39-.13.8-.24,1.21-.35a6.74,6.74,0,0,0,2.25-.85,9,9,0,0,0,2.23-2.85,3.47,3.47,0,0,0,0-1.74,11.22,11.22,0,0,1-.15-1.62,6.29,6.29,0,0,0-.39-3.07l-.37-.74a6.47,6.47,0,0,0-1.48-2.18,5,5,0,0,0-1.85-.6,11.74,11.74,0,0,1-1.58-.38,12,12,0,0,1-1.58-.69,4.63,4.63,0,0,0-1.84-.66Z"/><path class="cls-5" d="M394.11,326.9c0,1.39.43,2.79-.21,4a10.4,10.4,0,0,1-2.54,3.3,12.59,12.59,0,0,1-3.77,1.77c-1.25.4-2.67-.23-4.08-.23s-2.89.79-4.14.39a12.57,12.57,0,0,1-3.82-1.8,10.18,10.18,0,0,1-2.31-3.49,8.47,8.47,0,0,1-1.16-3.92c0-1.4.93-2.51,1.57-3.7a9.14,9.14,0,0,1,2.28-3.23c1-.8,2.43-.87,3.77-1.3a11.93,11.93,0,0,1,3.81-.81,13.08,13.08,0,0,1,4,.26,11.84,11.84,0,0,1,3.73,1.67,9.84,9.84,0,0,1,2.38,3.28A7.65,7.65,0,0,1,394.11,326.9Z"/><path class="cls-5" d="M380.16,337.75a4.31,4.31,0,0,1-1.26-.18,14.4,14.4,0,0,1-4.29-2.05,9,9,0,0,1-2.37-3.3l-.35-.68a9.78,9.78,0,0,1-1.34-4.64,7,7,0,0,1,1.31-3.67l.44-.76a10.36,10.36,0,0,1,2.7-3.71,7.45,7.45,0,0,1,3.09-1.25c.38-.09.76-.17,1.15-.3a13.39,13.39,0,0,1,4.27-.88l1.66,0a9,9,0,0,1,2.8.36,13.31,13.31,0,0,1,4.2,1.91,10.66,10.66,0,0,1,2.71,3.62,7.67,7.67,0,0,1,.77,4.09,13.94,13.94,0,0,0,.06,1.67,6.24,6.24,0,0,1-.46,3.65,11.79,11.79,0,0,1-3,3.78,13.81,13.81,0,0,1-4.23,2,7,7,0,0,1-3.19,0,6.76,6.76,0,0,0-2.75.05,8.91,8.91,0,0,1-2,.28Zm5-18.38h-1.66a9.72,9.72,0,0,0-3.07.66c-.73.23-1.2.34-1.66.45a5.24,5.24,0,0,0-1.91.69,6.54,6.54,0,0,0-1.64,2.31l-.75,1.32a4.54,4.54,0,0,0-.87,2.09,6.89,6.89,0,0,0,1,3.19l.39.76a6.76,6.76,0,0,0,1.51,2.25,11.06,11.06,0,0,0,3.36,1.55l.32,0a6.46,6.46,0,0,0,1.29-.21,11,11,0,0,1,3.94-.08,8,8,0,0,0,1.26.15,10.81,10.81,0,0,0,3.77-1.58,9,9,0,0,0,2.13-2.81,3.78,3.78,0,0,0,.11-1.93c0-.44-.08-.89-.08-1.33v-.66a4.93,4.93,0,0,0-.33-2.44,8.35,8.35,0,0,0-2-2.81,10.79,10.79,0,0,0-3.24-1.4,6,6,0,0,0-1.88-.22Z"/><path class="cls-6" d="M341.25,445.93c1.34,0,2.82.1,4.42,0,1.41-.1,3,.64,4.55.45s2.84-1,4.34-1.33,2.8-1,4.27-1.4,2.9-.61,4.32-1.11,3.16-.26,4.51-.89,2.32-2.08,3.58-2.88a29.9,29.9,0,0,0,3.45-2.82,25,25,0,0,0,3.22-3c.93-1.13,2.5-1.91,3.24-3.25s.37-3.06.86-4.53a26.63,26.63,0,0,0,.87-4.32c.22-1.41.89-2.81.92-4.38a41.6,41.6,0,0,0-.32-4.45c-.14-1.43.27-3,0-4.56s-1-2.82-1.39-4.34-.23-3.09-.65-4.49-1.11-2.85-1.57-4.23-1.33-2.76-1.84-4.11-1.34-2.74-1.9-4.07-.91-2.92-1.54-4.22-1.84-2.46-2.53-3.71-.82-3.07-1.61-4.28-2.3-2.12-3.16-3.26-1.5-2.72-2.46-3.78-2.69-1.57-3.75-2.51a39.55,39.55,0,0,0-3.29-2.95,31.27,31.27,0,0,0-3.75-2.36c-1.4-.7-2.49-2-3.83-2.47a27.51,27.51,0,0,0-4.47-.76,27.12,27.12,0,0,0-4.46-.12,29.31,29.31,0,0,0-4.44.52c-1.39.22-3-.1-4.54.39a33.35,33.35,0,0,0-4,2.13,31.6,31.6,0,0,0-4.12,1.92c-1.17.81-1.72,2.53-2.88,3.57s-2.81,1.3-3.87,2.45-1.71,2.41-2.65,3.65-1.49,2.52-2.33,3.82-1.33,2.59-2.08,3.95-1.11,2.69-1.79,4.08-1.51,2.51-2.11,3.94-1.07,2.72-1.61,4.17-1.36,2.63-1.85,4.09-1.39,2.67-1.83,4.15.12,3.11-.28,4.61-.7,2.95-1,4.37-.62,3-.75,4.41a34.94,34.94,0,0,0,0,4.45c0,1.57-.73,3.14-.51,4.55s1.63,2.73,2.09,4.09.47,3.05,1.17,4.33,2.07,2.18,3,3.32,1.53,2.61,2.66,3.59a30.46,30.46,0,0,0,3.69,2.53,38.36,38.36,0,0,0,3.82,2.35c1.35.63,3,.59,4.37,1.09s2.61,1.69,4,2.06,2.93.81,4.38,1.08,3,.37,4.47.55,3.08.06,4.49.17C338.4,446.24,339.89,445.9,341.25,445.93Z"/><path class="cls-6" d="M349.68,447.92a11.34,11.34,0,0,1-2.23-.28,8,8,0,0,0-1.49-.21c-.73.05-1.26.06-1.79.06l-2.44,0h-.68c-.49,0-1,.05-1.51.09s-1.33.13-2,.13l-.82,0c-1.46-.1-3,0-4.57-.17l-1.46-.16c-1-.1-2.07-.21-3.11-.41s-2.35-.53-3.52-.85l-1-.25a9.38,9.38,0,0,1-2.6-1.26,9,9,0,0,0-1.57-.84,10.61,10.61,0,0,0-1.69-.38,10.83,10.83,0,0,1-2.82-.77,24.11,24.11,0,0,1-2.93-1.75l-1.63-1a27.17,27.17,0,0,1-3.3-2.32,10,10,0,0,1-1.95-2.47,14.33,14.33,0,0,0-.9-1.3,11,11,0,0,0-1.07-1.09,10.27,10.27,0,0,1-2.09-2.46,9.38,9.38,0,0,1-.91-3,12.92,12.92,0,0,0-.37-1.61,6.9,6.9,0,0,0-.77-1.34,7.38,7.38,0,0,1-1.38-3,8.11,8.11,0,0,1,.24-3,8.64,8.64,0,0,0,.25-1.77l0-.85a30.2,30.2,0,0,1,.05-3.79,32.77,32.77,0,0,1,.55-3.37l.23-1.17c.27-1.46.57-2.93,1-4.49a6.53,6.53,0,0,0,.08-1.86,8.68,8.68,0,0,1,.21-2.79,15.85,15.85,0,0,1,1.08-2.5,13.5,13.5,0,0,0,.77-1.7,18.74,18.74,0,0,1,1.09-2.46,16.8,16.8,0,0,0,.77-1.68l.36-1c.42-1.12.83-2.21,1.28-3.26a22.48,22.48,0,0,1,1.28-2.44c.31-.52.61-1,.86-1.57s.52-1.17.75-1.75a20.26,20.26,0,0,1,1.08-2.41c.3-.53.56-1.06.82-1.59a23.31,23.31,0,0,1,1.31-2.43c.33-.51.62-1,.91-1.54a20.85,20.85,0,0,1,1.49-2.38c.35-.46.67-.93,1-1.4a19.62,19.62,0,0,1,1.77-2.36,8.11,8.11,0,0,1,2.6-1.75,6.51,6.51,0,0,0,1.37-.81,7,7,0,0,0,1.09-1.42,7.66,7.66,0,0,1,1.94-2.27,14.6,14.6,0,0,1,2.92-1.44c.48-.19.95-.37,1.38-.58s1-.54,1.44-.82a13.7,13.7,0,0,1,2.78-1.41c1.74-.56,3.4-.22,4.78-.45a30.88,30.88,0,0,1,4.68-.53l2.22,0a15,15,0,0,1,2.48.17l1.23.16a17.79,17.79,0,0,1,3.47.65,8.57,8.57,0,0,1,2.58,1.55,9.13,9.13,0,0,0,1.47,1,31.47,31.47,0,0,1,3.67,2.29,19.07,19.07,0,0,1,2.57,2.18c.36.36.73.72,1.12,1.07a7.84,7.84,0,0,0,1.36.84,9.36,9.36,0,0,1,2.51,1.78,13.07,13.07,0,0,1,1.55,2.3,15.51,15.51,0,0,0,1,1.58,8,8,0,0,0,1.2,1.19,10.44,10.44,0,0,1,2,2.18,8.9,8.9,0,0,1,1,2.59,9,9,0,0,0,.63,1.76,11.54,11.54,0,0,0,1,1.45,13,13,0,0,1,1.56,2.34,18.6,18.6,0,0,1,.91,2.44,19.52,19.52,0,0,0,.66,1.85c.23.55.5,1.09.78,1.63.4.8.81,1.62,1.15,2.5a15,15,0,0,0,.77,1.69,20.41,20.41,0,0,1,1.08,2.48c.19.56.42,1.13.65,1.71.33.84.67,1.69.93,2.57a11.83,11.83,0,0,1,.41,2.58,10.75,10.75,0,0,0,.26,1.95c.17.61.39,1.22.61,1.8a17.24,17.24,0,0,1,.8,2.64,11.93,11.93,0,0,1,.08,3,10.56,10.56,0,0,0,0,1.68l.1,1.08a27.42,27.42,0,0,1,.22,3.56,11.89,11.89,0,0,1-.56,3.08,14.08,14.08,0,0,0-.37,1.49l-.12.83a23.28,23.28,0,0,1-.81,3.75,7.94,7.94,0,0,0-.25,1.69,7.45,7.45,0,0,1-.72,3.09,8.58,8.58,0,0,1-2.22,2.4,8.81,8.81,0,0,0-1.18,1.08,22.8,22.8,0,0,1-2.87,2.78l-1.37,1.19a21.5,21.5,0,0,1-2.8,2.22,8.33,8.33,0,0,0-1.3,1.11,9.28,9.28,0,0,1-2.44,1.85,8.89,8.89,0,0,1-2.93.66,7.41,7.41,0,0,0-1.72.29,26.61,26.61,0,0,1-3,.81l-1.44.34a17,17,0,0,0-1.74.6,16.12,16.12,0,0,1-2.64.83,10.19,10.19,0,0,0-1.8.58,11.61,11.61,0,0,1-2.63.76l-.73,0Zm-4-3.54a11,11,0,0,1,2.32.26,9.11,9.11,0,0,0,1.64.22v1.53l.34-1.55a9,9,0,0,0,1.93-.58,13.09,13.09,0,0,1,2.33-.73,12.94,12.94,0,0,0,2.11-.68c.67-.25,1.35-.51,2.05-.7l1.54-.37a24.79,24.79,0,0,0,2.66-.7,10.19,10.19,0,0,1,2.43-.46,6.12,6.12,0,0,0,1.94-.38,6.67,6.67,0,0,0,1.62-1.29,11.79,11.79,0,0,1,1.79-1.49,19.15,19.15,0,0,0,2.4-1.91l1.41-1.24a18.74,18.74,0,0,0,2.49-2.39,12.76,12.76,0,0,1,1.6-1.5,6.21,6.21,0,0,0,1.49-1.51,5.36,5.36,0,0,0,.35-1.87,10.27,10.27,0,0,1,.4-2.41,19.79,19.79,0,0,0,.68-3.24l.13-.85a15,15,0,0,1,.45-1.85,9.35,9.35,0,0,0,.45-2.3,27.1,27.1,0,0,0-.21-3.19l-.11-1.1a14.36,14.36,0,0,1,0-2.17,8.86,8.86,0,0,0,0-2.25,15.58,15.58,0,0,0-.67-2.15c-.25-.67-.5-1.36-.7-2.08a13.85,13.85,0,0,1-.35-2.48,9.79,9.79,0,0,0-.29-2,24.32,24.32,0,0,0-.84-2.31c-.25-.63-.5-1.25-.72-1.88a16.33,16.33,0,0,0-.92-2.09c-.32-.66-.64-1.32-.89-2a23,23,0,0,0-1-2.19c-.31-.61-.62-1.21-.87-1.82a20.38,20.38,0,0,1-.75-2.11,15.76,15.76,0,0,0-.76-2A10.28,10.28,0,0,0,372,380.8a14.31,14.31,0,0,1-1.27-1.83,10.85,10.85,0,0,1-.91-2.43,6.43,6.43,0,0,0-.64-1.75,7.88,7.88,0,0,0-1.48-1.54,12.52,12.52,0,0,1-1.62-1.64,17.51,17.51,0,0,1-1.21-1.91,10.34,10.34,0,0,0-1.17-1.76,6.15,6.15,0,0,0-1.7-1.14,10.4,10.4,0,0,1-1.93-1.25c-.43-.39-.83-.78-1.23-1.16a14.28,14.28,0,0,0-1.91-1.68,30.34,30.34,0,0,0-3.56-2.25,13.18,13.18,0,0,1-2-1.33,6.41,6.41,0,0,0-1.64-1.06,15.4,15.4,0,0,0-2.89-.52l-1.35-.18a13.61,13.61,0,0,0-2-.13l-2.22,0a24,24,0,0,0-3.71.42c-2.46.39-3.57,0-4.79.41a11.2,11.2,0,0,0-2.16,1.12c-.54.32-1.08.64-1.65.93a17.16,17.16,0,0,1-1.62.7A11.5,11.5,0,0,0,325,362a5.24,5.24,0,0,0-1.11,1.41,10.28,10.28,0,0,1-1.62,2,8.63,8.63,0,0,1-2.06,1.27,5.78,5.78,0,0,0-1.69,1.07,17.16,17.16,0,0,0-1.49,2c-.35.51-.7,1-1.08,1.54a17.16,17.16,0,0,0-1.27,2c-.32.56-.64,1.13-1,1.68a22.49,22.49,0,0,0-1.14,2.13c-.27.57-.56,1.15-.88,1.73a18.2,18.2,0,0,0-.92,2.05c-.25.65-.52,1.31-.83,2s-.63,1.18-1,1.77a18.14,18.14,0,0,0-1.1,2.1c-.43,1-.83,2.05-1.23,3.13l-.36,1c-.25.67-.58,1.32-.91,2a14.55,14.55,0,0,0-.92,2,17,17,0,0,1-.94,2.11,12.73,12.73,0,0,0-.87,2,5.84,5.84,0,0,0-.09,1.78,9.21,9.21,0,0,1-.18,2.78c-.4,1.48-.68,2.88-.94,4.26l-.24,1.21a28.23,28.23,0,0,0-.5,3.06,26.12,26.12,0,0,0-.05,3.41l0,.87a10.48,10.48,0,0,1-.32,2.47,6.06,6.06,0,0,0-.21,1.87,5.28,5.28,0,0,0,.91,1.78,8.67,8.67,0,0,1,1.12,2.06,16.43,16.43,0,0,1,.48,2,7,7,0,0,0,.58,2.06,7.86,7.86,0,0,0,1.51,1.71,15.68,15.68,0,0,1,1.33,1.38,16,16,0,0,1,1.12,1.61,8.1,8.1,0,0,0,1.37,1.78,22.88,22.88,0,0,0,2.93,2l1.7,1.1a19.72,19.72,0,0,0,2.53,1.52,8.1,8.1,0,0,0,2,.52,14.53,14.53,0,0,1,2.19.51,11.69,11.69,0,0,1,2.17,1.13,6.68,6.68,0,0,0,1.76.9l1,.26c1.1.29,2.21.59,3.3.8s1.91.27,2.85.37l1.54.16c1.5.2,3,.06,4.4.16a19.38,19.38,0,0,0,2.35-.08c.62-.06,1.22-.11,1.79-.11h.68l2.44,0c.45,0,.91,0,1.39,0Z"/><path class="cls-1" d="M384.14,344.26a11.33,11.33,0,0,1,3.88,3.16c.94,1,1.3,2.84,2.36,4.38.84,1.22,2.42,2.2,3.23,3.79a45.41,45.41,0,0,1,1.83,4.62c.55,1.45.18,3.26.63,4.94.39,1.51,1.37,3,1.66,4.66a31.75,31.75,0,0,1,.84,4.73c0,1.5-.22,3.12-.34,4.77s-1.17,3-1.41,4.64.28,3.25-.05,4.84"/><path class="cls-1" d="M396.77,390.33a1.87,1.87,0,0,1-.32,0,1.53,1.53,0,0,1-1.18-1.81,8.79,8.79,0,0,0,0-2.19,11.53,11.53,0,0,1,0-2.56,12.4,12.4,0,0,1,.8-2.6,7,7,0,0,0,.6-1.94l.15-1.62a24,24,0,0,0,.19-3,13.74,13.74,0,0,0-.48-2.89c-.13-.55-.26-1.09-.34-1.61a10.37,10.37,0,0,0-.82-2.36,14.7,14.7,0,0,1-.81-2.17,12.27,12.27,0,0,1-.32-2.73,7.18,7.18,0,0,0-.26-2.06l-.48-1.31a26.16,26.16,0,0,0-1.28-3.15,8,8,0,0,0-1.61-1.94,11.63,11.63,0,0,1-1.51-1.68,14.27,14.27,0,0,1-1.31-2.5,6.25,6.25,0,0,0-.92-1.7c-1.63-1.75-1.63-1.75-2.72-2.4l-.84-.51a1.53,1.53,0,0,1,1.6-2.61l.82.5a11.44,11.44,0,0,1,3.37,2.92,8.52,8.52,0,0,1,1.49,2.58,12.93,12.93,0,0,0,1,2,9.14,9.14,0,0,0,1.13,1.23,10.35,10.35,0,0,1,2.2,2.72,29.61,29.61,0,0,1,1.44,3.52l.46,1.26a9.38,9.38,0,0,1,.46,3,10.11,10.11,0,0,0,.21,2.06,12.93,12.93,0,0,0,.66,1.72,13,13,0,0,1,1,3.08c.07.45.18.93.3,1.42a16.1,16.1,0,0,1,.56,3.53,28.22,28.22,0,0,1-.21,3.37l-.13,1.55a9.72,9.72,0,0,1-.81,2.84,8.62,8.62,0,0,0-.62,1.91,9.26,9.26,0,0,0,0,1.89,10.83,10.83,0,0,1-.09,3,1.53,1.53,0,0,1-1.49,1.22Z"/><path class="cls-6" d="M300.42,260.3c-1.16,2-1.94,1.06-4,2.55a16.12,16.12,0,0,0-3.59,3c-2.13.27-2.07-1-3.85-2.41a11.81,11.81,0,0,1-3-3.23c-.67-1.25-.09-2.75.54-4.21.44-1,.71-2.63,2.16-3.72a8.52,8.52,0,0,1,4.14-1.63c1.58-.17,2.45,1.17,3.46,2.18a10.82,10.82,0,0,1,2.71,3.15C299.81,258.15,301.49,258.44,300.42,260.3Z"/><path class="cls-6" d="M292.26,267.46a3.88,3.88,0,0,1-3.18-1.69,9.25,9.25,0,0,0-1.09-1.1,12.83,12.83,0,0,1-3.42-3.7c-1-2-.13-4.1.48-5.52l.24-.64a7.14,7.14,0,0,1,2.41-3.71,10,10,0,0,1,4.9-1.93h.06a5.26,5.26,0,0,1,4.14,2.11l1.13,1.11a9.17,9.17,0,0,1,2.41,3.05,5.73,5.73,0,0,0,.88,1.38,3.3,3.3,0,0,1,.52,4.24,4.25,4.25,0,0,1-2.85,2.27,5,5,0,0,0-1.6.76,15.7,15.7,0,0,0-3.27,2.73,1.47,1.47,0,0,1-1,.59l-.74,0Zm.77-15.25a7,7,0,0,0-3.5,1.35,4.31,4.31,0,0,0-1.35,2.26l-.31.83c-.5,1.17-.93,2.27-.6,2.89a10.44,10.44,0,0,0,2.66,2.76,11.72,11.72,0,0,1,1.46,1.47c.41.47.52.59.69.62a19.72,19.72,0,0,1,3.1-2.56,8.79,8.79,0,0,1,2.81-1.42,1.38,1.38,0,0,0,1.1-.88.83.83,0,0,0-.26-.8,8.8,8.8,0,0,1-1.32-2.11,6.51,6.51,0,0,0-1.67-2l-1.28-1.28c-.66-.7-1.08-1.14-1.53-1.14Z"/><path class="cls-6" d="M384.18,259.94c1.16,2,1.74.83,3.82,2.31a15,15,0,0,1,3.23,3.14c2.13.27,1.57-1,3.35-2.44a10,10,0,0,0,2.55-3.18,3.82,3.82,0,0,0,.39-3.72,7.45,7.45,0,0,0-2.66-3.05,6.92,6.92,0,0,0-3.74-1.5c-1.57-.17-3.05-.33-4.05.67s-1,2.76-1.58,4.05C384.62,258.34,383.11,258.08,384.18,259.94Z"/><path class="cls-6" d="M391.75,267h0l-.71,0a1.53,1.53,0,0,1-1-.59,14.11,14.11,0,0,0-2.9-2.83,3.54,3.54,0,0,0-1.49-.65,3.81,3.81,0,0,1-2.77-2.13,2.83,2.83,0,0,1,.4-3.88,3.77,3.77,0,0,0,.82-1.2,8,8,0,0,0,.37-1.26,6.61,6.61,0,0,1,1.54-3.28c1.18-1.17,3.05-1.36,5.3-1.11a8.44,8.44,0,0,1,4.49,1.79,9,9,0,0,1,3.15,3.68,5.34,5.34,0,0,1-.45,5,11.49,11.49,0,0,1-2.93,3.65,4.1,4.1,0,0,0-1,1.14,3.1,3.1,0,0,1-2.83,1.69Zm-2.33-14.06c-.81,0-1.1.18-1.28.36a4.6,4.6,0,0,0-.72,1.85,11.67,11.67,0,0,1-.52,1.7,6.64,6.64,0,0,1-1.39,2.09c.32.84.34.85.82,1a6.62,6.62,0,0,1,2.56,1.14,17.11,17.11,0,0,1,3,2.81,6.8,6.8,0,0,1,1.69-2.05,8.67,8.67,0,0,0,2.16-2.7c.57-1.09.69-1.57.33-2.41a5.76,5.76,0,0,0-2.16-2.42,5.43,5.43,0,0,0-3-1.21,14.4,14.4,0,0,0-1.55-.12Z"/><path class="cls-1" d="M393.65,394.15c-.31,1.46-1,2.84-1.38,4.31s-.64,2.94-1.1,4.39-.65,3-1.19,4.38-1.37,2.72-2,4.09-.6,3.12-1.31,4.43-1.65,2.62-2.46,3.85a41.09,41.09,0,0,1-2.75,3.66,29.33,29.33,0,0,1-3,3.43,19.5,19.5,0,0,1-3.73,2.76,13.24,13.24,0,0,1-4.5,1.19,11.67,11.67,0,0,1-4.61-.51,30.45,30.45,0,0,1-4.63-1.7c-1.54-.79-2.43-2.44-3.6-3.39-1.36-1.09-3.07-1.7-4-2.91a16.67,16.67,0,0,1-2.2-4.41c-.61-1.69,0-3.38.09-4.81.09-1.91.09-3.51,1.14-4.39a4.3,4.3,0,0,1,4.76-.55c2.6,1.31,3.31.76,4-.56.93-1.75,1.12-3.65,2.76-3.21s3.18-.18,4.55-.16a13.16,13.16,0,0,0,4.25-.83,13.34,13.34,0,0,0,3.93-1.76c1.21-.86,2.89-1.31,3.82-2.45s.9-3,1.57-4.28a22,22,0,0,0,1.46-4.08c.49-1.57,1.28-2.89,1.38-4.15"/><path class="cls-1" d="M369.17,432.22a13.54,13.54,0,0,1-4.05-.63,31.79,31.79,0,0,1-4.86-1.8,9.5,9.5,0,0,1-2.76-2.41,8.11,8.11,0,0,0-1.11-1.15,12.41,12.41,0,0,0-1.51-1,9,9,0,0,1-2.72-2.17,17.82,17.82,0,0,1-2.42-4.81,8.16,8.16,0,0,1-.14-4.22c.06-.41.12-.8.14-1.18.1-2.26.18-4.23,1.7-5.49a5.79,5.79,0,0,1,6.42-.75c1.27.64,1.65.59,1.68.58a13.5,13.5,0,0,0,.8-1.64c.51-1.22,1.48-3.49,4-2.82a6.1,6.1,0,0,0,2.36-.05,6,6,0,0,1,1.82-.16,13.21,13.21,0,0,0,3.64-.72,12.1,12.1,0,0,0,3.63-1.58,13,13,0,0,1,1.71-1,5.74,5.74,0,0,0,1.81-1.19,5,5,0,0,0,.68-1.85,9.62,9.62,0,0,1,.72-2.16,17.41,17.41,0,0,0,1.16-3.17l.2-.66c.2-.64.44-1.25.67-1.82a7.49,7.49,0,0,0,.64-2,1.53,1.53,0,0,1,3.05.22,9.82,9.82,0,0,1-.85,2.92c-.2.5-.41,1-.59,1.57l-.18.63a21.26,21.26,0,0,1-1.38,3.71,6.8,6.8,0,0,0-.47,1.48,7.3,7.3,0,0,1-1.28,3.06,8.22,8.22,0,0,1-2.8,2,10.52,10.52,0,0,0-1.32.75,14.63,14.63,0,0,1-4.36,2,13.89,13.89,0,0,1-4.72.89c-.54.08-.88.06-1.35.13a8.94,8.94,0,0,1-3.57,0,5.55,5.55,0,0,1-.37,1c-.19.46-.4.94-.65,1.42-1.55,2.95-3.92,2.27-6,1.2a2.81,2.81,0,0,0-3.1.37c-.47.39-.52,1.56-.57,2.91a13.61,13.61,0,0,1-.21,1.88,5.63,5.63,0,0,0,0,2.71,15.8,15.8,0,0,0,2,4,7.06,7.06,0,0,0,1.85,1.39,14.4,14.4,0,0,1,1.86,1.25,12,12,0,0,1,1.5,1.52,6.68,6.68,0,0,0,1.86,1.7,26.15,26.15,0,0,0,3.91,1.46,11.12,11.12,0,0,0,4.47.59,11.28,11.28,0,0,0,4-1,18.14,18.14,0,0,0,3.41-2.55,18.89,18.89,0,0,0,2.25-2.5l.62-.75a39.26,39.26,0,0,0,2.65-3.51l.69-1a31,31,0,0,0,1.71-2.71,7.59,7.59,0,0,0,.55-1.89,11.61,11.61,0,0,1,.7-2.44c.27-.6.58-1.18.89-1.76a19.41,19.41,0,0,0,1.08-2.25,18.5,18.5,0,0,0,.62-2.24c.15-.69.32-1.38.53-2.06.27-.84.46-1.68.66-2.53.13-.59.27-1.19.42-1.78a21.77,21.77,0,0,1,.68-2.07,16.39,16.39,0,0,0,.68-2.16,1.51,1.51,0,0,1,1.81-1.18,1.53,1.53,0,0,1,1.19,1.81,20.2,20.2,0,0,1-.8,2.58c-.22.59-.44,1.19-.6,1.8l-.4,1.68c-.22.93-.43,1.87-.72,2.78-.2.6-.33,1.21-.47,1.82a20.47,20.47,0,0,1-.75,2.65,23.48,23.48,0,0,1-1.23,2.58c-.28.53-.55,1.05-.8,1.59a9,9,0,0,0-.49,1.8,9.75,9.75,0,0,1-.86,2.72c-.56,1-1.22,2-1.86,3l-.67,1a40.79,40.79,0,0,1-2.86,3.79l-.59.72a21.65,21.65,0,0,1-2.62,2.89,20.28,20.28,0,0,1-4,3,14.15,14.15,0,0,1-5,1.35,11.37,11.37,0,0,1-1.18.06Z"/><path class="cls-7" d="M343.9,426.19a1.52,1.52,0,0,1-1.09-.44,16.12,16.12,0,0,1-1.73-2,12.78,12.78,0,0,0-1.45-1.67,11,11,0,0,1-1.74-2.19,7.77,7.77,0,0,0-1.3-1.64c-.89-.9-1.31-1.38-1.72-1.87s-.75-.88-1.56-1.69a1.53,1.53,0,0,1,2.17-2.17c.9.9,1.31,1.39,1.73,1.88a22.82,22.82,0,0,0,1.55,1.69,10.74,10.74,0,0,1,1.73,2.18,8,8,0,0,0,1.31,1.65,15.5,15.5,0,0,1,1.73,2,13.39,13.39,0,0,0,1.45,1.68,1.54,1.54,0,0,1,0,2.16,1.51,1.51,0,0,1-1.08.44Z"/><path class="cls-7" d="M335,426.56A1.54,1.54,0,0,1,333.8,424a5.84,5.84,0,0,0,1.06-1.71,8.91,8.91,0,0,1,1.52-2.44,13.23,13.23,0,0,0,1.29-1.79,13.71,13.71,0,0,1,1.55-2.17,24.12,24.12,0,0,1,1.73-1.88c.4-.41.81-.82,1.55-1.71a1.53,1.53,0,1,1,2.34,2,22.91,22.91,0,0,1-1.73,1.89c-.4.41-.81.82-1.54,1.7a12.07,12.07,0,0,0-1.29,1.79,15.21,15.21,0,0,1-1.56,2.17,5.93,5.93,0,0,0-1.06,1.71,9.07,9.07,0,0,1-1.51,2.44,1.53,1.53,0,0,1-1.17.55Z"/><path class="cls-8" d="M378.28,400.86a1.53,1.53,0,0,1-.95-2.74,8.54,8.54,0,0,1,1.7-1c.49-.23.69-.33,1.32-1.32a17.7,17.7,0,0,0,1.75-3.62,6.42,6.42,0,0,0,.1-2,19.49,19.49,0,0,1,0-2,10.46,10.46,0,0,0-.2-2.45l-.2-1.46a1.52,1.52,0,0,1,1.35-1.69,1.56,1.56,0,0,1,1.69,1.36l.18,1.32a12.18,12.18,0,0,1,.22,3.2,15,15,0,0,0,0,1.64,8.43,8.43,0,0,1-.27,3.07,20.38,20.38,0,0,1-2.06,4.28,5.46,5.46,0,0,1-2.57,2.44,5.22,5.22,0,0,0-1.14.7,1.57,1.57,0,0,1-.94.32Z"/><path class="cls-9" d="M341.63,313.25c-1.15,0-2.91-1.29-4.39-2.57a9.6,9.6,0,0,1-3-3.95c-.45-1.53.43-2.5,2.58-3.33a13.28,13.28,0,0,1,4.69-.68c2.22,0,3.9-.51,5.09-.13,2.39.76,3.37,2.41,2.94,4-.39,1.4-1.85,3-3.24,4.16S342.8,313.23,341.63,313.25Z"/><path class="cls-9" d="M341.61,314.78c-1.36,0-3-.91-5.37-2.94a11,11,0,0,1-3.49-4.68c-.67-2.28.5-4,3.5-5.18a14.16,14.16,0,0,1,5.22-.78c.8,0,1.54-.09,2.19-.16a9.2,9.2,0,0,1,3.39.09c3.52,1.12,4.51,3.81,3.94,5.83s-2.3,3.7-3.71,4.91c-.78.67-3.5,2.88-5.62,2.91h-.05Zm3.85-10.8a14.34,14.34,0,0,0-1.49.11c-.74.07-1.56.15-2.46.16a12.28,12.28,0,0,0-4.15.57c-1.89.74-1.76,1.16-1.68,1.48a8.25,8.25,0,0,0,2.56,3.23c2.47,2.13,3.28,2.19,3.37,2.19v0a12.17,12.17,0,0,0,6.44-5.58c.23-.82-.53-1.64-1.93-2.09a2.28,2.28,0,0,0-.66-.07Z"/><path class="cls-10" d="M343.8,308.57c-.95,0-3.16-1.74-3.53-3-.3-1,.71-2.53,3.46-2.56s3.65,1.35,3.37,2.36C346.73,306.64,344.77,308.56,343.8,308.57Z"/><path class="cls-10" d="M343.79,309.23c-1.32,0-3.73-2-4.15-3.48a2.18,2.18,0,0,1,.39-1.91,4.36,4.36,0,0,1,3.69-1.51h0c2.22,0,3.2.71,3.65,1.31a2.19,2.19,0,0,1,.37,1.91c-.42,1.47-2.56,3.67-3.93,3.68Zm0-5.57c-1.85,0-2.52.69-2.73,1a.87.87,0,0,0-.19.74,5.21,5.21,0,0,0,2.88,2.53,5.25,5.25,0,0,0,2.67-2.72.86.86,0,0,0-.15-.74c-.22-.29-.84-.78-2.48-.78Z"/><path class="cls-8" d="M348.11,352a10.88,10.88,0,0,1-2.67-.44,8.42,8.42,0,0,0-2.13-.35l-1.71,0c-.85,0-1.68.06-2.53,0a20.19,20.19,0,0,1-2.58-.31,14.72,14.72,0,0,0-1.94-.25l-1.92-.07c-.89,0-1.75,0-2.6-.1s-1.87-.14-2.75-.22l-1.77-.15a8.82,8.82,0,0,0-2.15.25,9.93,9.93,0,0,1-2.43.25,23.59,23.59,0,0,1-2.78-.36c-.4-.07-.81-.15-1.73-.26a1.52,1.52,0,1,1,.34-3c1,.11,1.5.2,1.95.28a19.92,19.92,0,0,0,2.49.32,6.16,6.16,0,0,0,1.56-.21,11.29,11.29,0,0,1,3-.29l1.82.15c.86.08,1.74.16,2.67.21s1.65.08,2.51.1l2,.07A18.69,18.69,0,0,1,337,348a15.6,15.6,0,0,0,2.15.27c.79,0,1.58,0,2.37,0s1.36-.05,2.11,0a9.81,9.81,0,0,1,2.58.44,8.43,8.43,0,0,0,1.88.34h0c1.51,0,3,0,4.5-.1a9,9,0,0,0,2-.44,11.77,11.77,0,0,1,2.43-.52,15.81,15.81,0,0,0,2.3-.42c.7-.16,1.38-.31,2.06-.4l1.77-.19a22.84,22.84,0,0,0,2.57-.32,1.51,1.51,0,0,1,1.81,1.18,1.53,1.53,0,0,1-1.19,1.81,24.05,24.05,0,0,1-2.91.38l-1.66.18c-.58.07-1.17.21-1.77.34a18.67,18.67,0,0,1-2.74.49,9.24,9.24,0,0,0-1.81.41,11.37,11.37,0,0,1-2.74.55c-1.51.07-3,.09-4.56.11Z"/><path class="cls-11" d="M333.67,317.8c-1.63,1.23-1.28,1.69-1.2,3.81a6.64,6.64,0,0,0,1.69,3.77,6.52,6.52,0,0,0,3.49,2.07,14.47,14.47,0,0,0,4.09.38,14.29,14.29,0,0,0,5.3-1c2-1,2.25-2.9,2.52-4.39.44-2.55,1.66-3.26-.58-4.69-1.72-1.1-1.87.59-3.89.35a5,5,0,0,1-3.49-2.25,8,8,0,0,1-3.79,1.78A8.7,8.7,0,0,1,333.67,317.8Z"/><path class="cls-12" d="M341.05,329.38a15.93,15.93,0,0,1-3.76-.44,8.33,8.33,0,0,1-6.35-7.27l0-.84a4,4,0,0,1,1.85-4.25,1.55,1.55,0,0,1,1.31-.26,7.28,7.28,0,0,0,3.4-.13,9.42,9.42,0,0,0,2.92-1.22,1.54,1.54,0,0,1,2.53.12,3.38,3.38,0,0,0,2.36,1.53,2.13,2.13,0,0,0,1-.25,3.46,3.46,0,0,1,3.52.13c2.43,1.55,2.19,3.06,1.66,4.73a10.53,10.53,0,0,0-.39,1.51c-.32,1.84-.74,4.25-3.37,5.51a15.47,15.47,0,0,1-5.89,1.11l-.76,0Zm-7-9.94c-.2.24-.18.48-.14,1.19l.05.92a5.06,5.06,0,0,0,1.33,2.83A4.91,4.91,0,0,0,338,326a12.53,12.53,0,0,0,3,.36l.62,0a13.13,13.13,0,0,0,4.71-.8c1.12-.55,1.37-1.51,1.62-3a15.8,15.8,0,0,1,.54-2.16,5.57,5.57,0,0,0,.22-.79h0s-.17-.16-.61-.44a9.22,9.22,0,0,1-2.68.62,7.17,7.17,0,0,1-4.12-1.75,15.87,15.87,0,0,1-3.19,1.22,10.57,10.57,0,0,1-4.07.27Z"/><path class="cls-3" d="M324.13,315.85a1.53,1.53,0,0,1-.73-2.88,13.49,13.49,0,0,0,2.54-1.73,16,16,0,0,1,3.05-2.08,1.53,1.53,0,0,1,1.45,2.69,13.49,13.49,0,0,0-2.54,1.73,15.09,15.09,0,0,1-3,2.08,1.44,1.44,0,0,1-.72.19Z"/><path class="cls-3" d="M359.4,315.55a1.47,1.47,0,0,1-.73-.19c-1.45-.78-2.18-1.14-2.93-1.49s-1.56-.74-3.07-1.56a1.53,1.53,0,1,1,1.45-2.69c1.45.78,2.19,1.14,2.94,1.49s1.56.74,3.07,1.56a1.52,1.52,0,0,1,.61,2.07,1.54,1.54,0,0,1-1.34.81Z"/><path class="cls-13" d="M406.34,2.5H10.5a8,8,0,0,0-8,8V218.81a8,8,0,0,0,8,8H191.86V355.29a5,5,0,0,0,5,5H220a5,5,0,0,0,5-5V226.81H406.34a8,8,0,0,0,8-8V10.5A8,8,0,0,0,406.34,2.5Z"/><path class="cls-14" d="M78.6,151.22a30.83,30.83,0,0,1-9.71-2.59,28.64,28.64,0,0,1-8.39-5.94,35.13,35.13,0,0,1-5.45-15.64q-.79-8.26-1.23-15h-.35c-1.35.23-2.69.5-4,.79s-2.8.65-4.44,1.06l-2.73-1.5a5,5,0,0,1-.83-1.8,10.37,10.37,0,0,1-.13-1.8,4.45,4.45,0,0,1,1.09-1.8,3.79,3.79,0,0,1,1.63-1,39.27,39.27,0,0,1,5.27-1.24c1.82-.29,3.23-.46,4.22-.52q0-4.31.27-9.93a43.36,43.36,0,0,1,2-11.17,6.12,6.12,0,0,1,2-.92,10.22,10.22,0,0,1,1.8-.13,4.49,4.49,0,0,1,1.8,1.1,4.61,4.61,0,0,1,1.1,1.8v2.81a68.81,68.81,0,0,0-.88,8.35q-.18,4.14-.18,7.12h-.35a109.83,109.83,0,0,1,12.53-1.76l11.38-1q0-3.26.17-7.87a24.23,24.23,0,0,1,2.2-9.1,5.77,5.77,0,0,1,1.89-.83,10.37,10.37,0,0,1,1.8-.13,4.44,4.44,0,0,1,2.9,2.9v2.19a39.89,39.89,0,0,0-.88,6.55c-.11,2.26-.17,4.09-.17,5.49h-.18c2.35-.46,4.72-.82,7.12-1a52.73,52.73,0,0,0,7.56-1.32,8.33,8.33,0,0,1,1.93,1.32,7.63,7.63,0,0,1,1.23,1.76v2.11a7.63,7.63,0,0,1-1.23,1.76,6.23,6.23,0,0,1-1.67,1.14c-2.75.53-5.49,1-8.21,1.32l-6.9.87v4.49l.17.17v14.94a4.44,4.44,0,0,1-2.9,2.9H87.92a4.52,4.52,0,0,1-1.8-1.09,3.75,3.75,0,0,1-1-1.72l-.27-.88V112.9l-.17-4.57h1q-6.33.53-12.7,1.14t-11.29,1.41v1.4q.53,7.22,1.27,14.29A22.93,22.93,0,0,0,68.06,139a21,21,0,0,0,7.51,3.65,27.6,27.6,0,0,0,9,.75c3-.12,6-.3,8.92-.53a50.73,50.73,0,0,0,8.74-1.49,5.19,5.19,0,0,1,2,1.18,4.49,4.49,0,0,1,1.1,1.8v2.2a4.49,4.49,0,0,1-1.1,1.8,3.77,3.77,0,0,1-1.71,1A68.26,68.26,0,0,1,90.64,151Q84.67,151.21,78.6,151.22Z"/><path class="cls-14" d="M139.21,148.49l-3.08-1.58a200,200,0,0,1-3.34-21.22q-1-10.43-1.76-20.79V86.79l1.41-2.54a5,5,0,0,1,1.8-.84,10.37,10.37,0,0,1,1.8-.13,4.36,4.36,0,0,1,1.8,1.1,4.49,4.49,0,0,1,1.1,1.8v18.54q.7,9.15,1.5,18.07t2,16.74h-1.23a17.2,17.2,0,0,0,4.26-4,9.35,9.35,0,0,1,6.11-3.43,4.43,4.43,0,0,1,2,1.1,4.73,4.73,0,0,1,1.1,1.8v2.46a79.89,79.89,0,0,1-5.81,6.06,25.39,25.39,0,0,1-6.5,4.49Zm54.49-16.61a4.43,4.43,0,0,1-1.8-1.1,3.76,3.76,0,0,1-1-1.62q-2.82-9.59-4.84-19.07t-4.57-19.6l1.5-2.73a4.81,4.81,0,0,1,1.8-.83,10.2,10.2,0,0,1,1.8-.14,4.73,4.73,0,0,1,1.8,1.1,3.79,3.79,0,0,1,1,1.63Q192,99.36,194.14,109t4.48,19.78a5.09,5.09,0,0,1-1.19,2,4.36,4.36,0,0,1-1.8,1.1Z"/><path class="cls-14" d="M250.43,149.81a4.49,4.49,0,0,1-1.8-1.1,4.65,4.65,0,0,1-1.1-1.71l-.17-1.85q1.84-5.44,3.21-11.07T252.81,123v-8.53c-.41-1.76-.9-3.46-1.45-5.1a9.07,9.07,0,0,0-2.86-4.13,12.36,12.36,0,0,0-4.74-1.4c-1.76-.18-3.29-.27-4.58-.27q-3.85,9.15-8.34,19.29t-9.76,20.26a5.11,5.11,0,0,1-1.8.84,10.37,10.37,0,0,1-1.8.13,4.46,4.46,0,0,1-1.81-1.1,4.59,4.59,0,0,1-1.09-1.8v-2q4.47-9.68,8.7-19t7.12-16.92h-2.82a23.17,23.17,0,0,0-3.51.26c-1.12.18-2.43.41-4,.71l-2.63-1.5a5,5,0,0,1-.84-1.8,10.37,10.37,0,0,1-.13-1.8,4.49,4.49,0,0,1,1.1-1.8,3.71,3.71,0,0,1,1.71-1,36.42,36.42,0,0,1,7.16-.88c2.44-.06,4.91-.09,7.43-.09h.18a70.39,70.39,0,0,0,4-8.79q1.94-5,4.39-10.37a15.93,15.93,0,0,1,2-1,3,3,0,0,1,2.11,0,3.77,3.77,0,0,1,1.71,1,4.47,4.47,0,0,1,1.1,1.8V80q-2,4.48-3.69,8.92a67.69,67.69,0,0,1-2.9,6.81,38.46,38.46,0,0,1,6.19,1,12.41,12.41,0,0,1,7.17,5,19.51,19.51,0,0,1,3,5.85,44.41,44.41,0,0,1,1.5,6.55v9q-.89,6.51-2.42,13a80.92,80.92,0,0,1-4.17,12.7,6.19,6.19,0,0,1-1.89.83A10.42,10.42,0,0,1,250.43,149.81ZM287,125.2a5,5,0,0,1-2-.74c-.44-.33-.92-.72-1.45-1.19q-4.31-7.9-9.27-15.34t-9.63-15.42a6,6,0,0,1,1.19-2.24,4.1,4.1,0,0,1,1.8-1.19h2.64a91.71,91.71,0,0,1,9.93,13.45q4,6.77,8.7,13.36a20.08,20.08,0,0,0,1.32,2.68,7,7,0,0,1,.79,3.56,4.49,4.49,0,0,1-1.1,1.8,3.86,3.86,0,0,1-1.71,1Z"/><path class="cls-14" d="M317.59,148.49l-3.08-1.58a200,200,0,0,1-3.34-21.22q-1.05-10.43-1.76-20.79V86.79l1.41-2.54a5,5,0,0,1,1.8-.84,10.37,10.37,0,0,1,1.8-.13,4.36,4.36,0,0,1,1.8,1.1,4.49,4.49,0,0,1,1.1,1.8v18.54q.71,9.15,1.5,18.07t2,16.74h-1.23a17.2,17.2,0,0,0,4.26-4,9.35,9.35,0,0,1,6.11-3.43,4.43,4.43,0,0,1,2,1.1,4.73,4.73,0,0,1,1.1,1.8v2.46a79.89,79.89,0,0,1-5.81,6.06,25.39,25.39,0,0,1-6.5,4.49Zm54.49-16.61a4.43,4.43,0,0,1-1.8-1.1,3.76,3.76,0,0,1-1-1.62q-2.82-9.59-4.84-19.07t-4.57-19.6l1.5-2.73a4.81,4.81,0,0,1,1.8-.83,10.2,10.2,0,0,1,1.8-.14,4.73,4.73,0,0,1,1.8,1.1,3.79,3.79,0,0,1,1,1.63q2.64,9.84,4.75,19.51T377,128.81a5.09,5.09,0,0,1-1.19,2,4.43,4.43,0,0,1-1.8,1.1Z"/></g></g></svg>