<svg xmlns="http://www.w3.org/2000/svg" xmlns:xlink="http://www.w3.org/1999/xlink" viewBox="0 0 847.48 652.87"><defs><style>.cls-1,.cls-3{fill:none;}.cls-2{isolation:isolate;}.cls-3{stroke:#a28232;stroke-linecap:round;stroke-linejoin:round;stroke-width:17px;}.cls-4{fill:#a28232;}.cls-5{clip-path:url(#clip-path);}.cls-6{fill:#d6bf85;}.cls-7{fill:#d2b47f;}.cls-8{opacity:0.7;mix-blend-mode:multiply;}.cls-9{fill:#7c432a;}.cls-10{fill:#f0e7d6;}</style><clipPath id="clip-path" transform="translate(103.72)"><path class="cls-1" d="M26.61,357.4c25.8-3,103-13.46,123.34-14s60-2.81,71.47-9.48S293,319.83,306.29,317.5s160.32-42.1,185.18-44.93S595.1,257.45,595.1,257.45s50-4.15,56.61-5.31S666.64,265,669,278.46l5.27,30-9.35,7.83,9.41,9.17s6.38,25.15,9.28,41.65,2.85,27.33-14.59,33.48l13.77.68s9.21,24.65,13.47,37.82,1,27.65-8.8,38.65-32,18-62.06,18.64-146.88,24.27-146.88,24.27L416.78,530s-41.73,1.15-52.55,6.15-47.46,13-58.39,11.81-119.71,18-119.71,18S130.47,571,105.2,577s-59.91,19.8-64,2l-.58-20,9.87-4.83-12.93-7s-5.16-23.84-7.27-35.83,8.07-26.15,8.07-26.15L26.1,476.51S23.73,463,19.61,445.19s-6.12-51.48-2.86-55.14L5.49,370.39S1.33,363.38,26.61,357.4Z"/></clipPath></defs><g class="cls-2"><g id="レイヤー_2" data-name="レイヤー 2"><g id="レイヤー_1-2" data-name="レイヤー 1"><polyline class="cls-3" points="248.98 370.02 404.42 8.5 636.23 322.1"/><path class="cls-4" d="M21.15,370.72c25.8-3,103-13.46,123.34-14s60-2.82,71.47-9.48,71.63-14.14,84.87-16.47S461.16,288.72,486,285.9s103.63-15.12,103.63-15.12,50-4.16,56.61-5.32,14.93,12.84,17.3,26.33a58.48,58.48,0,0,1-1.8,25.83l-2.27,12,9.41,9.16s-4.9,24.82-2,41.32,3,28.08-3.32,33.82l13.77.67s9.21,24.66,13.48,37.83,1,27.65-8.81,38.64-32,18-62.06,18.64S473.07,534,473.07,534l-61.75,9.31s-41.73,1.15-52.55,6.15-47.46,13-58.39,11.81-119.71,18-119.71,18S125,584.34,99.74,590.33s-59.91,19.81-64,2l-.59-20,5.09-7.08-8.15-4.75s-5.16-23.83-7.27-35.83,3.3-28.4,3.3-28.4l-7.47-6.42s-2.38-13.49-6.48-31.32S8,407,11.29,403.37L0,383.71s-.72-13.34,5.75-17.24C8.92,364.57,12.88,372.68,21.15,370.72Z" transform="translate(103.72)"/><g class="cls-5"><rect class="cls-6" x="-29.67" y="258.73" width="750.39" height="331.69" transform="translate(35.42 66.24) rotate(-9.97)"/><path class="cls-7" d="M-103.72,434.62l25.54,16.56s51.29-19.55,93.68-27.52,70.61-13.46,108.39-22.74S196.26,385,238.32,387.64,333,391,385.14,371.83s116.49-38.9,166.67-48.25,124.38-31.34,145.09-38.14,41.52-33.61,13.49-22.89c-31.61,12.08-58.09,30.73-141.28,43.25s-98.4,13.1-140.34,23.63-61.08,1.26-110.35,15.71S256.91,361,207.56,370.43s-70.63,5-110.7,22.08S22,419.35-24.6,423.86-103.72,434.62-103.72,434.62Zm373.24-64.57c12.66-2.75,48-13.18,74.68-18.54s31.27-6.31,50.79-6.67c16.73-.31-6.79,11.19-19.7,16.62s-20.07,10.36-47,15.09-58.23,9.19-77.36,4.13S256.87,372.81,269.52,370.05Z" transform="translate(103.72)"/><path class="cls-7" d="M358.44,357.37c-13.05-.08-18.38.91-32.63,4.89s-19.89,4.75-34.68,7-26.72,9.08-9.64,6.61,31.58-7.14,41.85-6.84,14.78-3.12,23.89-5.25S358.44,357.37,358.44,357.37Z" transform="translate(103.72)"/><path class="cls-7" d="M391.3,319.7c28.5-3.95,57.71-3.84,101-15.12S594.57,288.7,633,283s42.65-10.66,58.74-18.74l-3.41-19.41-30,6.9s-62.37,7.25-92.8,12.6-68.39,17.81-100.6,21.37-83.38,7.29-121,21.79S362.8,323.66,391.3,319.7Zm66.34-21.14c19.3-2.33,57-16.32,87.34-21.1s45.3-4.85,89.72-13.71,46.36-10.26,46.36-10.26l-1.74,10.84a353.71,353.71,0,0,1-36.81,6.47c-22.83,3-66.9,9.65-95.68,16.06s-62.54,13.86-91.65,18.45-50.72,2.08-61.12-2.58S438.35,300.9,457.64,298.56Z" transform="translate(103.72)"/><path class="cls-7" d="M118.52,453.43c20.8-2.08,36.71-11.19,27.76-16.46s31.74-14.52-4.64-13.92-66.38,4.3-98.85,10.55C18,438.35-21.4,446.3-38.76,449.81l-2.34-3.57c25.47-8.69,48.2-16.37,107.75-26.32s99-13.72,127-16.53,25.68,4.95,8.81,21.07S182,444.9,151.19,456.63,97,467.74,43.25,477.71s-66.37,12.72-66.37,12.72l-5.7-15.83s27.61-4.85,64-9.67S97.72,455.51,118.52,453.43Z" transform="translate(103.72)"/><path class="cls-7" d="M37.59,445.56c25.58-4,67.51-14.5,78.85-12.28s7.56,7-10.37,8.11-20.78-2.64-44.93,5.29S-1.41,464.52-1.41,464.52l-25.75,2.94-5.79-8.8C-13.49,454.8,20.09,448.28,37.59,445.56Z" transform="translate(103.72)"/><path class="cls-7" d="M620.67,358.3c-40.09,4.42-73.53,13.46-61.4,11.85s51.6-1.18,79-2.85,48.6-1.7,48.6-1.7l8.87,9-19,3.87s-53.38,3.6-85,2.31-57.07,11.61-96.28,16.93-37.61,6.08-49.3,1.83,8.56-9.41,26.25-16.72,34.31-16.56,69.39-22.57,85.28-10.94,118.63-16.28a179.4,179.4,0,0,0,26.4-6.13l-1.07,9S660.76,353.89,620.67,358.3Z" transform="translate(103.72)"/><path class="cls-7" d="M362.59,417.89c8.83-7.87,33.41-21.66,48.26-32.69s21.2-16.36,52.43-25.53,54.66-17,90.15-22.7,118.91-29.32,137.67-34.72l-2,16.82c-9.14,2.09-20.5,4.5-33.27,6.75-32.57,5.72-74.42,12.55-108.4,18.52S473,361.11,453.22,373s-23.51,15.71-41.72,28.38-15.45,15.87,2.18,20.67,41.79,5.28,78.61,3a717,717,0,0,0,121-17.58c42.73-10.15,84-16.34,84-16.34l11,17S678,414.53,660.74,416s-125.49,16.81-177.61,27.54-48.16.05-65.86-1-22.51-7.63-45.53-9.89S353.75,425.75,362.59,417.89Z" transform="translate(103.72)"/><path class="cls-7" d="M206.66,477.4c20.63,1.11,56.21.11,88.5-11.35s56.63-10,80.43-15.72-5-11.75-14.82-13.71-19.32-10.28-13.86-20.72,30.3-26.9,43.47-35c0,0-15.82,5.42-31.13,9.69s-37,5.44-62.57,9.42-53,5.63-70.68,21.37-8.64,13.09-34.27,29.18S186,476.29,206.66,477.4ZM217,445.05c11.3-10.41,41.66-16.26,69.08-22.14s44.25-16.38,44.25-16.38c14.93-5.64-1.31,15.67-4.75,21s4.94,7.93,16,16.14-5.38,6.73-32.72,13.12-53.1,9.33-79,11.27-24.61,1.16-35.41-2.2S205.72,455.47,217,445.05Z" transform="translate(103.72)"/><path class="cls-7" d="M316.82,419.08c-19.52,5.41-10.85,13-40,17.56s-46.63,8.73-59.36,15.18-16.35,10.76-.6,9,35.49-5.71,56.72-9.44,30.35-5.87,34.94-13S327.26,416.2,316.82,419.08Z" transform="translate(103.72)"/><path class="cls-7" d="M137,471.23c9.31-1.63,21-1.06,30.9,5.62s11.82,17.39,33.06,13.65,35.6,3.22.64,12-27.26.72-77.11,12.84S40.64,533.42,15.15,537.9s-36.64,3.29-36.64,3.29l-.21-13.65s5.76,3.72,38.41-1.49S105,509.48,117.14,507.87s36.61-4.84,37.18-13.36,10.11-16.53-8.37-9.6-34.59,10.82-52.11,14.95S12.71,515.71,0,518s-19.38,1.82-19.38,1.82l-1-9.81s11.29,3.05,35.68-.49S82,494.58,82,494.58s34.65-8.1,38.38-8.8,7.88-6.17-9.11-3.18S65,493.37,41.79,498.5a262.51,262.51,0,0,1-44.25,5.67l-3.91-5.63s46.63-8.73,76.37-14S115,475.09,137,471.23Z" transform="translate(103.72)"/><path class="cls-7" d="M45.15,571.57c25-3.33,38-4.05,82.3-9.21s50.19-5.15,74.35-8.86S304,537.11,267,546.77s-41.85,6.83-68.67,12.07-41.93,10.53-70.06,16.53S64.49,590.27,61,590.89s-44,6.3-44,6.3L3.6,596.76-.79,579C13,576.55,31.37,573.4,45.15,571.57Z" transform="translate(103.72)"/><path class="cls-7" d="M668.2,481.9c-30.85,4.49-32.18,1-65.46,6.89s-76.09,15.49-107.6,18.92-71,11.43-50.18,5.14,34.07-9.67,55.47-12.39,51.51-10.1,77.61-15.21,85-14.93,85-14.93l42.47-7.47,4.86,10.76C699,476.33,683.79,479.61,668.2,481.9Z" transform="translate(103.72)"/><path class="cls-7" d="M61,534.87c30.3-4,85.77-8,119-16s83.69-28.4,103.77-34.55,33-20,89-25.13,82,1.38,108.78-3.86S567.75,439.17,594,435.07s88.14-13.39,88.14-13.39l17.08-2.48,5.44,18.52s-37.63,1.87-89,10.39S506.11,466.32,484.42,467.5s-37.7,1.37-66.29.61-74.8,2.1-94.36,7.11-46.7,16.64-66.42,24.84-54.22,19.53-78.91,24.39-88.31,12.37-109,15c-13.3,1.66-51.14,8.94-76.56,14L-9,545.84S30.66,538.91,61,534.87Z" transform="translate(103.72)"/><path class="cls-7" d="M39,553.18c23.72-2.06,62.48-5.73,95.13-10.94s71.33-13.59,106.81-19.31,85.95-5.11,126.29-12.2,57.5-21.69,96.43-28.53S557,469.47,557,469.47s53.18-8.82,83.62-14.18S702,442.94,702,442.94l.62,15.44s-13.42-1.09-47,6.93-81.85,16-116,20.91-64.41,11.33-85.2,17.62-87.95,20.63-68,23,34.09-.16,79.3-8.63,60.09-11.09,99.38-15.89S669.14,488.7,669.14,488.7l44.46-7.82,2.63,5.85s-30.86,4.91-74.58,14.7-87,12.66-122.74,21.05-45,13.7-93.71,19.1S376.7,543.8,328,553.41s-84.51,13.27-129.82,21.24-77.33,16.75-119.7,28.94-61.66,14.53-61.66,14.53l2.91-9.42s19.9-2,56.35-10.47,62-20.91,104.48-28.37,63.8-10.69,107.6-18.92,80.88-13.17,60.33-18-47.27.95-86.83,4.23-48,5.27-81.69,8.56-35.31,6.74-62,8.28-35.06,2.45-60.9,6.5c-16.11,2.52-42.46,6.82-60,9.71L-5.57,559.7C9,557.13,26.88,554.24,39,553.18Z" transform="translate(103.72)"/><path class="cls-7" d="M262,505.56c5.76,3.72,10.4,5.48,38.77.55s48.33-3.24,75-9.5,55-19.14,8.19-19.85A256.9,256.9,0,0,0,310.34,486C283.18,493.41,256.2,501.84,262,505.56Zm32.67-7.28c1.44-2.31,13.42-4.51,32.35-8.89s29-2.1,48.86-4.38c25.75-2.95-9.72,7-24.68,9.08s-21.5,2.19-40.71,5.05S293.2,500.6,294.64,498.28Z" transform="translate(103.72)"/><path class="cls-7" d="M-4.2,627.08l.73,12.5s8.76-4.18,31.32-8.66,71.07-6.71,124.79-12.47,50.17-9.36,77.87-13.69,55.84-10.35,89.55-17.85,49.08-19.68,88.2-21.31a586.72,586.72,0,0,0,111.16-15.32c35.74-8.39,111.66-20.69,149.9-23.21s39.65-8.23,60.34-13.75l-4.82-14.94s-76.55,8.72-121.93,20.38S531.69,537.07,490.19,546s-76.77,8.26-106,11.27c-28.67,2.94-80.45,7.3-125.3,17.82S178.51,591.27,155,594.35,77.46,610.09,54.64,617.26-4.2,627.08-4.2,627.08Z" transform="translate(103.72)"/><path class="cls-7" d="M-52.75,350.94l.74,12.5s8.75-4.17,31.31-8.67,71.07-6.7,124.79-12.47S154.27,333,182,328.61s55.84-10.34,89.55-17.84,49.08-19.69,88.21-21.3a585.91,585.91,0,0,0,111.15-15.33c35.74-8.39,111.66-20.68,149.9-23.2s39.65-8.24,60.34-13.76l-4.82-14.94S599.74,231,554.36,242.62s-71.22,18.31-112.72,27.18-76.77,8.28-106,11.28c-28.68,2.94-80.46,7.31-125.31,17.82S130,315.13,106.43,318.22,28.91,334,6.09,341.12-52.75,350.94-52.75,350.94Z" transform="translate(103.72)"/><path class="cls-7" d="M-23.77,366.36c26.37-3.58,56-5.11,90.8-10.7s105-13.18,105-13.18,32.66-5.23,58.58-11.36,70.69-17.17,71.59-7.85-14.29,18.3-53.14,25.65-37.05,9.93-82.67,17.82S115,370.91,86.92,381.63s-27.93,15.43-68.55,21c-18,2.46-35.23,5.53-48.92,8.16l-1.51-8.58c2.54-.66,5.26-1.38,8.37-2.18,32.12-8.28,78.22-15.86,102.28-24.3s62.1-16.18,91.13-21.28,49.38-7.21,48.49-10.63-20.36.42-42.93,4.91-41.06,7.22-71.77,11-53.36,7.8-79.19,14.45C5.65,379-21.12,385-34.57,387.91l-3.4-19.3C-35.46,368.08-31.13,367.36-23.77,366.36Z" transform="translate(103.72)"/></g><g class="cls-8"><path class="cls-9" d="M127.86,437.9c0,27.37-9.5,50.81-16.63,62.35-5,8-12.17,14-17.53,11.45-6.72-3.28-7.81-9.46-3.84-14.85,8.85-11.94,13-19.7,11.7-20.48,0,0-10.67-.36-12.77-6.58-1.39-4.11.76-9.63,5.67-10.94a26.71,26.71,0,0,1,11.56.32s3.36-6.29,2.68-17.79C98.44,442.74,86.82,445.23,86,445a65,65,0,0,0-4.39,12.5c-1.59,8.1-3.24,8.27-6.12,13.47-1.62,2.86-7.44,6-11.56,3.49-5-3.14-5.25-6.34-3-13.21,2.57-8.27,3.72-7.47,5.73-18.88,1.38-8.06,5-13.5,13.23-15s25-4.62,33.4-5.09S127.85,424.5,127.86,437.9Z" transform="translate(103.72)"/><path class="cls-9" d="M211.17,425.16a126.84,126.84,0,0,1-10.77,15c2.41,15.65,5.89,38.61,6.3,42.22.74,5.46-1.52,11.66-7.3,12.46s-10.48-3.08-11.9-10.53c-.77-4.34-2.69-15.28-4.33-25.27a92.26,92.26,0,0,1-19.82,15c-5.7,3.13-11.48,2-15-3.05-3-4.27-2-8.35,1.54-11.55s13.4-10.17,23.71-20.14c10-9.69,18-22.6,21.7-27.15s8.84-5.58,13.81-2.1S214.77,418.94,211.17,425.16Z" transform="translate(103.72)"/><path class="cls-9" d="M297.88,471.78c-.82-.86-1.66-1.82-2.52-2.9-5,1.65-16.07,5.17-33.43,10.57-23.63,7.28-28.25-1.18-29.39-7.68-1.58-9,3.13-15.85,6.11-28.77,3.19-13.63,6.45-27.5,7.43-31.46,1.78-7,6.43-11.08,12.14-9.73,7.7,1.88,7.94,8.32,6.6,14.69-.83,4.17-9,45.15-10.89,44.81,0,0,19-5,30.72-8.87l-.44-.59c-4.65-6.78-3.4-11.13,0-15.08s9.18-3.07,13.75,2.61c5.27,6.44,12.77,18.64,15,24.28C315.93,471.52,304.2,478.49,297.88,471.78Z" transform="translate(103.72)"/><path class="cls-9" d="M383.31,420.69c-4.53,5.38-6.54,5.39-10.56,4.76s-6-5.64-4-11.36c1-3.08,3.21-12.18,1.78-12.71,0,0-6.37,1.23-14.48,2.77,1.81,10.29,3.51,28.2,1.29,43.56-1.44,10.86-5.81,17.77-12,19S335,464,334.92,458s4.82-12.57,5-19.75a113.39,113.39,0,0,0-3-30.52c-6,1.17-11.12,2.18-13.61,2.61-9.1,1.61-14.72,2-17.37-4.76s.35-12,13.46-14.32c15.38-2.7,45.95-8.63,53.79-9.12s13.35,4.8,14.95,11.33S387.84,415.32,383.31,420.69Z" transform="translate(103.72)"/><path class="cls-9" d="M424.43,422.29a5.3,5.3,0,0,1-2.2.83,8.61,8.61,0,0,1-7.83-2.65,78.89,78.89,0,0,1-6.27-10.84,7.23,7.23,0,0,1-.44-5.73,6.41,6.41,0,0,1,3.81-3.69,16.32,16.32,0,0,1,1.92-.56c3.79-.67,6,2,7.67,4.24,2.25,3.29,5,7.49,6.06,11C428.18,418.16,427.35,420.43,424.43,422.29Zm.38-18.17a7.25,7.25,0,0,1-.45-5.72,6.77,6.77,0,0,1,3.82-3.69,12.2,12.2,0,0,1,1.92-.56c3.79-.67,6,2,7.67,4.23,2.39,3.49,4.89,7.52,6.06,11,1,3.28.19,5.55-2.72,7.4a5.48,5.48,0,0,1-2.2.84c-2.92.51-6.24-.58-7.83-2.65A76.14,76.14,0,0,1,424.81,404.12Zm40.68,2.68c-.76,6.5-4.59,28.51-22.12,41.86a11.79,11.79,0,0,1-5.05,2.45,7.38,7.38,0,0,1-6.74-2.16,6.28,6.28,0,0,1-2.05-4.67c0-2.56,1.44-5.16,4.23-7.67l.56-.65c5.78-5.26,13.45-12.42,16.53-30.49.88-5.18,2.26-10,7.14-10.86.43-.08.88-.05,1.42-.14a5.64,5.64,0,0,1,4.34,1.8C465.54,398.19,466.06,401.79,465.49,406.8Z" transform="translate(103.72)"/><path class="cls-9" d="M562.57,354.89c.25,4-4.64,11.09-12.67,11.16-.91-.07-1.7-.15-2.61-.21a27.76,27.76,0,0,1,1.86,8.05c.84,10.46,1.06,25.05-4.46,39.42-4.77,12.24-13.45,18.12-20.55,21.6s-11.85,5-17.71,2.78-6.87-11.75-.09-15.73,15.19-6.36,20.78-16.5c6-10.65,4.52-28.27,3.47-28.53,0,0-35.89,6.75-41.38,7.27-7.58.77-11.73-1.29-12.59-7.39-.94-6.65,4-10.42,12-11.61,7.62-1.12,40.26-7.3,46.81-7.56a17.54,17.54,0,0,1,2.26.16,17.06,17.06,0,0,1-1.15-4.6c-.84-7.33,8.23-16.08,16.52-12.17S562.32,350.91,562.57,354.89Zm-10.06-2.59c-1-2.51-3.15-2.68-5-1.24s-1.46,5.06,1.34,5.12S553.4,354.82,552.51,352.3Z" transform="translate(103.72)"/><path class="cls-9" d="M599.25,408.16a13.72,13.72,0,0,1,.88,8.83c-1,5.32-5,9.07-9.58,9.07-6.37,0-10.44-5.94-10.44-11.38,0-5,3-12,9.36-12a15.09,15.09,0,0,1,2.31.24A11.12,11.12,0,0,1,599.25,408.16Zm1.9-61.23c-.55,6.66-3.32,42.35-4,46.22-.66,4.11-3.08,6.41-6.6,6.65h-.33c-3.19,0-5.61-2.54-6.49-6.78-.77-3.39-3.39-41.26-3.6-46.82-.22-4.12.66-7.63,2.75-10.17a10.56,10.56,0,0,1,8.47-4,8.74,8.74,0,0,1,6.93,3.39C600.39,338.1,601.38,342.34,601.15,346.93Z" transform="translate(103.72)"/><path class="cls-9" d="M639.75,401a13.72,13.72,0,0,1,.88,8.83c-1,5.32-5,9.07-9.58,9.07-6.38,0-10.44-5.94-10.44-11.38,0-5,3-12,9.35-12a15.09,15.09,0,0,1,2.31.24A11.15,11.15,0,0,1,639.75,401Zm1.9-61.23c-.55,6.66-3.32,42.35-4,46.22-.66,4.11-3.08,6.41-6.6,6.65h-.33c-3.19,0-5.61-2.54-6.49-6.78-.77-3.39-3.39-41.26-3.61-46.82-.21-4.12.67-7.63,2.76-10.17a10.59,10.59,0,0,1,8.47-4,8.78,8.78,0,0,1,6.93,3.4C640.89,331,641.87,335.22,641.65,339.81Z" transform="translate(103.72)"/></g><path class="cls-10" d="M123.86,433.9c0,27.37-9.5,50.81-16.63,62.35-5,8-12.17,14-17.53,11.45-6.72-3.28-7.81-9.46-3.84-14.85,8.85-11.94,13-19.7,11.7-20.48,0,0-10.67-.36-12.77-6.58-1.39-4.11.76-9.63,5.67-10.94a26.71,26.71,0,0,1,11.56.32s3.36-6.29,2.68-17.79C94.44,438.74,82.82,441.23,82,441a65,65,0,0,0-4.39,12.5c-1.59,8.1-3.24,8.27-6.12,13.47-1.62,2.86-7.44,6-11.56,3.49-5-3.14-5.25-6.34-3-13.21,2.57-8.27,3.72-7.47,5.73-18.88,1.38-8.06,5-13.5,13.23-15s25-4.62,33.4-5.09S123.85,420.5,123.86,433.9Z" transform="translate(103.72)"/><path class="cls-10" d="M207.17,421.16a126.84,126.84,0,0,1-10.77,15c2.41,15.65,5.89,38.61,6.3,42.22.74,5.46-1.52,11.66-7.3,12.46s-10.48-3.08-11.9-10.53c-.77-4.34-2.69-15.28-4.33-25.27a92.26,92.26,0,0,1-19.82,15c-5.7,3.13-11.48,2-15-3.05-3-4.27-2-8.35,1.54-11.55s13.4-10.17,23.71-20.14c10-9.69,18-22.6,21.7-27.15s8.84-5.58,13.81-2.1S210.77,414.94,207.17,421.16Z" transform="translate(103.72)"/><path class="cls-10" d="M293.88,467.78c-.82-.86-1.66-1.82-2.52-2.9-5,1.65-16.07,5.17-33.43,10.57-23.63,7.28-28.25-1.18-29.39-7.68-1.58-9,3.13-15.85,6.11-28.77,3.19-13.63,6.45-27.5,7.43-31.46,1.78-7,6.43-11.08,12.14-9.73,7.7,1.88,7.94,8.32,6.6,14.69-.83,4.17-9,45.15-10.89,44.81,0,0,19-5,30.72-8.87l-.44-.59c-4.65-6.78-3.4-11.13,0-15.08s9.18-3.07,13.75,2.61c5.27,6.44,12.77,18.64,15,24.28C311.93,467.52,300.2,474.49,293.88,467.78Z" transform="translate(103.72)"/><path class="cls-10" d="M379.31,416.69c-4.53,5.38-6.54,5.39-10.56,4.76s-6-5.64-4-11.36c1-3.08,3.21-12.18,1.78-12.71,0,0-6.37,1.23-14.48,2.77,1.81,10.29,3.51,28.2,1.29,43.56-1.44,10.86-5.81,17.77-12,19S331,460,330.92,454s4.82-12.57,5-19.75a113.39,113.39,0,0,0-3-30.52c-6,1.17-11.12,2.18-13.61,2.61-9.1,1.61-14.72,2-17.37-4.76s.35-12,13.46-14.32c15.38-2.7,45.95-8.63,53.79-9.12s13.35,4.8,14.95,11.33S383.84,411.32,379.31,416.69Z" transform="translate(103.72)"/><path class="cls-10" d="M420.43,418.29a5.3,5.3,0,0,1-2.2.83,8.61,8.61,0,0,1-7.83-2.65,78.89,78.89,0,0,1-6.27-10.84,7.23,7.23,0,0,1-.44-5.73,6.41,6.41,0,0,1,3.81-3.69,16.32,16.32,0,0,1,1.92-.56c3.79-.67,6,2,7.67,4.24,2.25,3.29,5,7.49,6.06,11C424.18,414.16,423.35,416.43,420.43,418.29Zm.38-18.17a7.25,7.25,0,0,1-.45-5.72,6.77,6.77,0,0,1,3.82-3.69,12.2,12.2,0,0,1,1.92-.56c3.79-.67,6,2,7.67,4.23,2.39,3.49,4.89,7.52,6.06,11,1,3.28.19,5.55-2.72,7.4a5.48,5.48,0,0,1-2.2.84c-2.92.51-6.24-.58-7.83-2.65A76.14,76.14,0,0,1,420.81,400.12Zm40.68,2.68c-.76,6.5-4.59,28.51-22.12,41.86a11.79,11.79,0,0,1-5.05,2.45,7.38,7.38,0,0,1-6.74-2.16,6.28,6.28,0,0,1-2.05-4.67c0-2.56,1.44-5.16,4.23-7.67l.56-.65c5.78-5.26,13.45-12.42,16.53-30.49.88-5.18,2.26-10,7.14-10.86.43-.08.88-.05,1.42-.14a5.64,5.64,0,0,1,4.34,1.8C461.54,394.19,462.06,397.79,461.49,402.8Z" transform="translate(103.72)"/><path class="cls-10" d="M558.57,350.89c.25,4-4.64,11.09-12.67,11.16-.91-.07-1.7-.15-2.61-.21a27.76,27.76,0,0,1,1.86,8.05c.84,10.46,1.06,25.05-4.46,39.42-4.77,12.24-13.45,18.12-20.55,21.6s-11.85,5-17.71,2.78-6.87-11.75-.09-15.73,15.19-6.36,20.78-16.5c6-10.65,4.52-28.27,3.47-28.53,0,0-35.89,6.75-41.38,7.27-7.58.77-11.73-1.29-12.59-7.39-.94-6.65,4-10.42,12-11.61,7.62-1.12,40.26-7.3,46.81-7.56a17.54,17.54,0,0,1,2.26.16,17.06,17.06,0,0,1-1.15-4.6c-.84-7.33,8.23-16.08,16.52-12.17S558.32,346.91,558.57,350.89Zm-10.06-2.59c-1-2.51-3.15-2.68-5-1.24s-1.46,5.06,1.34,5.12S549.4,350.82,548.51,348.3Z" transform="translate(103.72)"/><path class="cls-10" d="M595.25,404.16a13.72,13.72,0,0,1,.88,8.83c-1,5.32-5,9.07-9.58,9.07-6.37,0-10.44-5.94-10.44-11.38,0-5,3-12,9.36-12a15.09,15.09,0,0,1,2.31.24A11.12,11.12,0,0,1,595.25,404.16Zm1.9-61.23c-.55,6.66-3.32,42.35-4,46.22-.66,4.11-3.08,6.41-6.6,6.65h-.33c-3.19,0-5.61-2.54-6.49-6.78-.77-3.39-3.39-41.26-3.6-46.82-.22-4.12.66-7.63,2.75-10.17a10.56,10.56,0,0,1,8.47-4,8.74,8.74,0,0,1,6.93,3.39C596.39,334.1,597.38,338.34,597.15,342.93Z" transform="translate(103.72)"/><path class="cls-10" d="M635.75,397a13.72,13.72,0,0,1,.88,8.83c-1,5.32-5,9.07-9.58,9.07-6.38,0-10.44-5.94-10.44-11.38,0-5,3-12,9.35-12a15.09,15.09,0,0,1,2.31.24A11.15,11.15,0,0,1,635.75,397Zm1.9-61.23c-.55,6.66-3.32,42.35-4,46.22-.66,4.11-3.08,6.41-6.6,6.65h-.33c-3.19,0-5.61-2.54-6.49-6.78-.77-3.39-3.39-41.26-3.61-46.82-.21-4.12.67-7.63,2.76-10.17a10.59,10.59,0,0,1,8.47-4,8.78,8.78,0,0,1,6.93,3.4C636.89,327,637.87,331.22,637.65,335.81Z" transform="translate(103.72)"/></g></g></g></svg>