<svg xmlns="http://www.w3.org/2000/svg" viewBox="0 0 236 236"><defs><style>.cls-1{fill:#fff;}.cls-2{fill:#ffe9f0;}.cls-3{fill:#ffa1be;}.cls-4{fill:none;stroke:#fff;stroke-width:7px;}.cls-5{fill:#9a643e;}</style></defs><g id="レイヤー_2" data-name="レイヤー 2"><g id="レイヤー_1-2" data-name="レイヤー 1"><circle class="cls-1" cx="118" cy="118" r="118"/><path class="cls-2" d="M46.3,118a43.4,43.4,0,0,1,.2-4.72H27.74c-.11,1.55-.14,3.13-.14,4.72s0,3.17.14,4.72H46.5A43.4,43.4,0,0,1,46.3,118Z"/><path class="cls-2" d="M79.47,57.52c1.78-1.12,3.59-2.18,5.43-3.12l.71-.34L76.26,37.82a72.63,72.63,0,0,0-6.83,3.93L78.79,58Z"/><path class="cls-2" d="M37.83,76.26l16.24,9.35L58,78.79,41.75,69.43A74.8,74.8,0,0,0,37.83,76.26Z"/><path class="cls-2" d="M181.6,151.1c-1,1.85-2,3.65-3.15,5.4l-.47.68,16.24,9.35c1.44-2.21,2.75-4.45,4-6.78L182,150.36Z"/><path class="cls-2" d="M54.41,151.07l-.38-.71-16.2,9.35a68.37,68.37,0,0,0,3.92,6.83L58,157.18l-.48-.68A59.15,59.15,0,0,1,54.41,151.07Z"/><path class="cls-2" d="M79.47,178.44l-.68-.46-9.36,16.24a72.92,72.92,0,0,0,6.83,4l9.35-16.24-.71-.35A57.39,57.39,0,0,1,79.47,178.44Z"/><path class="cls-2" d="M150.36,54l6.83,4,9.35-16.24a72,72,0,0,0-6.79-3.93Z"/><path class="cls-2" d="M113.28,189.5v18.74c1.56.14,3.14.17,4.72.17s3.17,0,4.72-.17V189.31h-9.44v.19Z"/><path class="cls-2" d="M122.72,46.5V27.77c-1.55-.14-3.13-.17-4.72-.17s-3.16,0-4.72.17V46.69h9.44Z"/><path class="cls-2" d="M150.36,182l9.39,16.21c2.33-1.22,4.58-2.52,6.79-4L157.19,178Z"/><path class="cls-2" d="M198.18,76.26a72.92,72.92,0,0,0-4-6.83L178,78.79l4,6.82Z"/><path class="cls-2" d="M208.27,113.28h-19v9.44h19c.11-1.55.14-3.13.14-4.72S208.38,114.83,208.27,113.28Z"/><path class="cls-3" d="M118,0A118,118,0,1,0,236,118,118,118,0,0,0,118,0Zm0,220.78a102.77,102.77,0,1,1,72.67-30.1A102.42,102.42,0,0,1,118,220.78Z"/><path class="cls-4" d="M114.78,47.38c-1.5,3.11-3.8,4.61-6,3.67s-1.69-3.15-.66-5c2.82-5-.14-7.61-.38-8.36,0,0-5.21,8.13-5.45,8.41.52,2.16.33,4.13-1.13,5s-3.8,0-4.7-1.32a12.11,12.11,0,0,1-8.88.52c-3.85-1.32-6.2-6.91-5.21-11.94.75-3.76,4.46-8.41,9.21-10.1,0-.61-.1-2.21,0-3.39-1.36,0-1.83,0-2.4,0-2.58,0-4.13-.71-4.46-3.11s2.07-4.32,4.79-4.13c.75,0,1.55.05,2.92.09a13.86,13.86,0,0,1,.32-2c.48-2.58,2.26-3.81,4.38-3.15s2.16,1.93,2.16,3.43c0,.33,0,1-.1,1.84h3.34a3.36,3.36,0,0,1,3.38,3.43,3.51,3.51,0,0,1-3.33,3.57c-.76,0-2.21.09-3.9.09a17.28,17.28,0,0,0-.24,2.4c5.45-.05,9.59.61,13.54,4.75C116.57,36.9,116.29,44.24,114.78,47.38ZM94.06,44.19c-.71-2.54-1.27-5.36-1.74-8.09-2.4,1.32-3.29,3.15-2.77,5.69C90,44.05,92,44.66,94.06,44.19Zm4.46-9.73c.24,2,.52,4.09.85,5.92a21.15,21.15,0,0,0,2.87-5.31C102.47,34.51,100.73,34.27,98.52,34.46Z"/><path class="cls-4" d="M128.8,29.62c.65.14-4.66-7.75-4.75-10a4,4,0,0,1,4.13-4.28c1.84.1,3.9,2,4.85,4.47a58.11,58.11,0,0,0,2.58,5.5c0,.84,5-4.14,10.48-4.84a4.38,4.38,0,0,1,4.79,3.76c.05,1.59-1.17,3.33-5,4.74s-12.6,6.68-13.16,9.78c-.94,5.68,11.37,3.43,13.67,3.71s4.75,1.5,3.95,4.46c-.85,3.11-3.43,3.62-8.51,3.76-5.31.1-10.62,0-14.61-4.08-3.1-3.15-4-6.58-1.79-12.22A28.66,28.66,0,0,1,128.8,29.62Z"/><path class="cls-5" d="M114.78,47.38c-1.5,3.11-3.8,4.61-6,3.67s-1.69-3.15-.66-5c2.82-5-.14-7.61-.38-8.36,0,0-5.21,8.13-5.45,8.41.52,2.16.33,4.13-1.13,5s-3.8,0-4.7-1.32a12.11,12.11,0,0,1-8.88.52c-3.85-1.32-6.2-6.91-5.21-11.94.75-3.76,4.46-8.41,9.21-10.1,0-.61-.1-2.21,0-3.39-1.36,0-1.83,0-2.4,0-2.58,0-4.13-.71-4.46-3.11s2.07-4.32,4.79-4.13c.75,0,1.55.05,2.92.09a13.86,13.86,0,0,1,.32-2c.48-2.58,2.26-3.81,4.38-3.15s2.16,1.93,2.16,3.43c0,.33,0,1-.1,1.84h3.34a3.36,3.36,0,0,1,3.38,3.43,3.51,3.51,0,0,1-3.33,3.57c-.76,0-2.21.09-3.9.09a17.28,17.28,0,0,0-.24,2.4c5.45-.05,9.59.61,13.54,4.75C116.57,36.9,116.29,44.24,114.78,47.38ZM94.06,44.19c-.71-2.54-1.27-5.36-1.74-8.09-2.4,1.32-3.29,3.15-2.77,5.69C90,44.05,92,44.66,94.06,44.19Zm4.46-9.73c.24,2,.52,4.09.85,5.92a21.15,21.15,0,0,0,2.87-5.31C102.47,34.51,100.73,34.27,98.52,34.46Z"/><path class="cls-5" d="M128.8,29.62c.65.14-4.66-7.75-4.75-10a4,4,0,0,1,4.13-4.28c1.84.1,3.9,2,4.85,4.47a58.11,58.11,0,0,0,2.58,5.5c0,.84,5-4.14,10.48-4.84a4.38,4.38,0,0,1,4.79,3.76c.05,1.59-1.17,3.33-5,4.74s-12.6,6.68-13.16,9.78c-.94,5.68,11.37,3.43,13.67,3.71s4.75,1.5,3.95,4.46c-.85,3.11-3.43,3.62-8.51,3.76-5.31.1-10.62,0-14.61-4.08-3.1-3.15-4-6.58-1.79-12.22A28.66,28.66,0,0,1,128.8,29.62Z"/><path class="cls-4" d="M104.05,186.19a5,5,0,0,1,.61,4.37,2.49,2.49,0,0,1-1.5,1.74,6.68,6.68,0,0,1-1.74.19,11.83,11.83,0,0,1-3.76-.66c-.19,1.93-1.37,11.66-6.11,16.64-3,3.1-6.16,4.65-9.73,4.65A15.38,15.38,0,0,1,76.23,212c-5-1.93-8-6.54-8-12.36a18.27,18.27,0,0,1,3.1-10.25,14.29,14.29,0,0,1-2.54-.24,3.65,3.65,0,0,1-3-4.08c.24-2.35,2.26-3.81,5.22-3.81a75.32,75.32,0,0,1,7.75.23c1.79.19,2.77,1.6,2.68,3.72-.09,1.17-1,2.63-1.93,4.18a23.89,23.89,0,0,0-1.36,2.35c-2,3.76-3.1,8.74-.33,11.51a5.11,5.11,0,0,0,3.48,1.09,6.07,6.07,0,0,0,4.51-1.88c2.3-2.5,3.85-7.05,4.7-14,.42-3.15,2.07-3.95,3.15-4.47l.19-.05a4.45,4.45,0,0,1,2-.37h.33c-.19-.33-.38-.66-.57-1-.7-1.32-.89-3.15.47-3.81S98.46,179,100,181c1.32,1.74,1.83,3,1.69,3.86A8.71,8.71,0,0,1,104.05,186.19Zm1.13-2.58c-1.84.89-3.15-.94-4.47-3.29-.75-1.32-.89-3.15.47-3.85s2.73.37,4,2.53C106.63,181.35,106.77,182.81,105.18,183.61Z"/><path class="cls-4" d="M124.75,200.39c-.47,0-1,0-1.41,0,0,1.55,0,2.82,0,3.25.7.28,3.81,1.5,4.79,2.91a2.94,2.94,0,0,1,.29,3.53l-.05.09a2.31,2.31,0,0,1-2.21,1,5.29,5.29,0,0,1-1.46-.23,14.09,14.09,0,0,0-2.58-.66,6.68,6.68,0,0,1-5.31,4.51,11.14,11.14,0,0,1-1.79.14c-3.48,0-5.83-1.78-6.53-4.93-.85-3.9,2.54-6,3.57-6.53,1.5-.8,4.28-.71,5.12-.66,0-1.41-.33-8-.28-9.73.09-2.16,1.36-3.71,3-3.62a3.48,3.48,0,0,1,3.29,3.53c0,.33,0,.94,0,1.64,1.74,0,3.81.05,4.65.14a2.92,2.92,0,0,1,2.59,3.06,3.14,3.14,0,0,1-3.29,2.44C126.54,200.34,125.65,200.39,124.75,200.39Zm-8,8c-.09-.28-.56-.57-.89-.71a1.21,1.21,0,0,0-.42,0c-.57,0-1.32.24-1.51.71a.73.73,0,0,0,0,.75c.09.28.47.47,1,.61.19,0,.33.05.47.05a1.55,1.55,0,0,0,1.37-.94A.45.45,0,0,0,116.76,208.38Z"/><path class="cls-4" d="M164.12,209.13a17.49,17.49,0,0,1-9.4,6.2,3.67,3.67,0,0,1-4.42-4.79c1.08-2.77,5.5-3.81,8.22-7.1,2.45-3,.66-8.41-4.93-7.52-2.4.43-6.77,2.78-8.74,2.45-2.64-.43-4.09-2.21-3.2-4.7,1-2.73,5.69-5.08,11-5.36s11.79.75,14,6.53C168.44,199.35,167.73,204.48,164.12,209.13Zm-17-29c.52-1.92,2.73-2.91,5.12-2.44a38.77,38.77,0,0,1,8.27,2.87c1.51,1,2.26,2.35,2,3.52-.47,1.79-2.16,3-4.51,2.49s-5.41-1.17-7.29-1.78C147.29,183.56,146.68,182,147.15,180.08Z"/><path class="cls-5" d="M104.05,186.19a5,5,0,0,1,.61,4.37,2.49,2.49,0,0,1-1.5,1.74,6.68,6.68,0,0,1-1.74.19,11.83,11.83,0,0,1-3.76-.66c-.19,1.93-1.37,11.66-6.11,16.64-3,3.1-6.16,4.65-9.73,4.65A15.38,15.38,0,0,1,76.23,212c-5-1.93-8-6.54-8-12.36a18.27,18.27,0,0,1,3.1-10.25,14.29,14.29,0,0,1-2.54-.24,3.65,3.65,0,0,1-3-4.08c.24-2.35,2.26-3.81,5.22-3.81a75.32,75.32,0,0,1,7.75.23c1.79.19,2.77,1.6,2.68,3.72-.09,1.17-1,2.63-1.93,4.18a23.89,23.89,0,0,0-1.36,2.35c-2,3.76-3.1,8.74-.33,11.51a5.11,5.11,0,0,0,3.48,1.09,6.07,6.07,0,0,0,4.51-1.88c2.3-2.5,3.85-7.05,4.7-14,.42-3.15,2.07-3.95,3.15-4.47l.19-.05a4.45,4.45,0,0,1,2-.37h.33c-.19-.33-.38-.66-.57-1-.7-1.32-.89-3.15.47-3.81S98.46,179,100,181c1.32,1.74,1.83,3,1.69,3.86A8.71,8.71,0,0,1,104.05,186.19Zm1.13-2.58c-1.84.89-3.15-.94-4.47-3.29-.75-1.32-.89-3.15.47-3.85s2.73.37,4,2.53C106.63,181.35,106.77,182.81,105.18,183.61Z"/><path class="cls-5" d="M124.75,200.39c-.47,0-1,0-1.41,0,0,1.55,0,2.82,0,3.25.7.28,3.81,1.5,4.79,2.91a2.94,2.94,0,0,1,.29,3.53l-.05.09a2.31,2.31,0,0,1-2.21,1,5.29,5.29,0,0,1-1.46-.23,14.09,14.09,0,0,0-2.58-.66,6.68,6.68,0,0,1-5.31,4.51,11.14,11.14,0,0,1-1.79.14c-3.48,0-5.83-1.78-6.53-4.93-.85-3.9,2.54-6,3.57-6.53,1.5-.8,4.28-.71,5.12-.66,0-1.41-.33-8-.28-9.73.09-2.16,1.36-3.71,3-3.62a3.48,3.48,0,0,1,3.29,3.53c0,.33,0,.94,0,1.64,1.74,0,3.81.05,4.65.14a2.92,2.92,0,0,1,2.59,3.06,3.14,3.14,0,0,1-3.29,2.44C126.54,200.34,125.65,200.39,124.75,200.39Zm-8,8c-.09-.28-.56-.57-.89-.71a1.21,1.21,0,0,0-.42,0c-.57,0-1.32.24-1.51.71a.73.73,0,0,0,0,.75c.09.28.47.47,1,.61.19,0,.33.05.47.05a1.55,1.55,0,0,0,1.37-.94A.45.45,0,0,0,116.76,208.38Z"/><path class="cls-5" d="M164.12,209.13a17.49,17.49,0,0,1-9.4,6.2,3.67,3.67,0,0,1-4.42-4.79c1.08-2.77,5.5-3.81,8.22-7.1,2.45-3,.66-8.41-4.93-7.52-2.4.43-6.77,2.78-8.74,2.45-2.64-.43-4.09-2.21-3.2-4.7,1-2.73,5.69-5.08,11-5.36s11.79.75,14,6.53C168.44,199.35,167.73,204.48,164.12,209.13Zm-17-29c.52-1.92,2.73-2.91,5.12-2.44a38.77,38.77,0,0,1,8.27,2.87c1.51,1,2.26,2.35,2,3.52-.47,1.79-2.16,3-4.51,2.49s-5.41-1.17-7.29-1.78C147.29,183.56,146.68,182,147.15,180.08Z"/></g></g></svg>