<svg xmlns="http://www.w3.org/2000/svg" xmlns:xlink="http://www.w3.org/1999/xlink" viewBox="0 0 445.96 226.94"><defs><style>.cls-1,.cls-2{fill:none;stroke-linecap:round;stroke-linejoin:round;}.cls-1{stroke:#ff76a5;stroke-width:12px;}.cls-2{stroke:#fff;stroke-width:8px;}.cls-3{fill:url(#名称未設定グラデーション_41);}.cls-4{fill:url(#名称未設定グラデーション_41-2);}.cls-5{fill:url(#名称未設定グラデーション_41-3);}.cls-6{fill:url(#名称未設定グラデーション_41-4);}.cls-7{fill:url(#名称未設定グラデーション_41-5);}.cls-8{fill:url(#名称未設定グラデーション_41-6);}.cls-9{fill:url(#名称未設定グラデーション_41-7);}.cls-10{fill:url(#名称未設定グラデーション_41-8);}.cls-11{fill:url(#名称未設定グラデーション_41-9);}.cls-12{fill:#ff1d00;}.cls-13{fill:#e21d00;}.cls-14{fill:#d61d00;}.cls-15{fill:#ff7462;}.cls-16{fill:#972f00;}.cls-17{fill:#05971a;}.cls-18{fill:#30a942;}.cls-19{fill:#008115;}</style><linearGradient id="名称未設定グラデーション_41" x1="35.68" y1="105.95" x2="35.68" y2="20.14" gradientUnits="userSpaceOnUse"><stop offset="0" stop-color="#ff4338"/><stop offset="0.26" stop-color="#ff545c"/><stop offset="0.58" stop-color="#ff6684"/><stop offset="0.84" stop-color="#ff729c"/><stop offset="1" stop-color="#ff76a5"/></linearGradient><linearGradient id="名称未設定グラデーション_41-2" x1="113.65" y1="114.67" x2="113.65" y2="35.79" xlink:href="#名称未設定グラデーション_41"/><linearGradient id="名称未設定グラデーション_41-3" x1="195.65" y1="89.6" x2="195.65" y2="6" xlink:href="#名称未設定グラデーション_41"/><linearGradient id="名称未設定グラデーション_41-4" x1="282.69" y1="104.97" x2="282.69" y2="24.14" xlink:href="#名称未設定グラデーション_41"/><linearGradient id="名称未設定グラデーション_41-5" x1="77.65" y1="220.69" x2="77.65" y2="141.91" xlink:href="#名称未設定グラデーション_41"/><linearGradient id="名称未設定グラデーション_41-6" x1="175.35" y1="216.37" x2="175.35" y2="162.19" xlink:href="#名称未設定グラデーション_41"/><linearGradient id="名称未設定グラデーション_41-7" x1="268.18" y1="217.64" x2="268.18" y2="131.83" xlink:href="#名称未設定グラデーション_41"/><linearGradient id="名称未設定グラデーション_41-8" x1="352.97" y1="220.94" x2="352.97" y2="140.11" xlink:href="#名称未設定グラデーション_41"/><linearGradient id="名称未設定グラデーション_41-9" x1="377.05" y1="115.8" x2="377.05" y2="39.65" xlink:href="#名称未設定グラデーション_41"/></defs><g id="レイヤー_2" data-name="レイヤー 2"><g id="レイヤー_1-2" data-name="レイヤー 1"><path class="cls-1" d="M48.8,100.44c-2.78,5.55-6.89,6.07-14.09,5.14C24.22,104.14,13.94,96.23,8.39,85,4.07,76.59,5.71,67.74,12.5,66.61c7.81-1.23,9.77,8.13,15.11,13.68,4.84,4.93,10.39,7.2,15.74,9.46C47.67,91.6,50.85,96.43,48.8,100.44Zm7-45.34c6.79,8.74,9.87,12.75,6,17.17s-10.07,3.6-16-3a81.67,81.67,0,0,1-10-13.17c-5.45,1-10.59,1.75-14.4,2.06-6.58.51-11.93-.31-13.06-6.38s3.09-10.89,10-12c2-.3,5.65-.92,9.77-1.74-.42-1.55-.83-3.09-1.24-4.84-1.54-6.89.82-11.1,5.66-12.54s8.22,0,10.69,6.37c.72,1.85,1.65,4.42,2.78,7.3,4.11-.82,7.4-1.54,8.94-1.85,4.84-1,9,1.44,10.08,6C66.38,44.5,64,47.69,58.67,50a51.71,51.71,0,0,1-5,1.85A30.5,30.5,0,0,0,55.79,55.1Z"/><path class="cls-1" d="M92.26,66.83c6.47-6.89,24.26-23.86,28.27-27.46S132,34,135.75,38.45c3.19,3.7,4.83,8.12-.1,13.06-3.7,3.7-26.12,23-26.12,23,.93.72,22.73,19.74,26,23.45s3.9,9.87.82,13.06c-4,4-7.82,5-14,1.33s-23.65-21.59-28.58-26C88.66,81.74,85.78,73.72,92.26,66.83Z"/><path class="cls-1" d="M223.48,64.61c-.62,8.74-8,19.85-19.44,23.14a33.71,33.71,0,0,1-10.38,1.85A24.81,24.81,0,0,1,187.9,89a9.3,9.3,0,0,1-7.3-8.43,7.52,7.52,0,0,1,2-6,9.28,9.28,0,0,1,6.58-3.29h2.27c4-.11,7.81-.11,12-3.3a8.52,8.52,0,0,0,3.29-6.37,9.6,9.6,0,0,0-3.29-7.51A12.36,12.36,0,0,0,194.89,51a16,16,0,0,0-6.07,1.13l-.92.21c-3.29,1.54-6.68,3.08-11.52,2.36-5.24-.92-7.61-3.7-8.33-9.46a149.43,149.43,0,0,1-.2-15.63V24a8.51,8.51,0,0,1,8.53-8.84h.41c4.43.21,7.61,3.91,7.82,9,.1,2.36.2,6.48.2,12.65A32.27,32.27,0,0,1,195.1,35.1a31.51,31.51,0,0,1,11,2.06C218.44,41.78,224.2,54.53,223.48,64.61Zm-8.23-37.84a7.62,7.62,0,0,1-4.52,2h-.83a10.84,10.84,0,0,1-6.17-2.06l-1.64-1c-2.57-1.75-7.51-4-9.46-5.86-4.63-4.22-3.39-8.23-1.54-10.9A7.28,7.28,0,0,1,197.26,6a12.42,12.42,0,0,1,7.09,2.37c3,2,10.59,6.58,12.44,10.07A6.5,6.5,0,0,1,215.25,26.77Z"/><path class="cls-1" d="M279.3,25c7.82,2.77,6.69,9.46,4.73,15.94s-7.71,27.45-7.71,27.45c0,.51,6.79-1.75,16.25,2.37,7.91,3.49,8.12,10.17,12.95,13.67,7.41,5.55,5.56,3.09,8.23,5.76,6.89,6.48,1.64,14.81-5.86,14.81-14.5-.11-14.81-9.36-19.44-14.4-5-5.55-15.52-3.8-19.33,4-3.08,6.38-8.12,10.9-13.57,9.77-8.23-1.75-8.12-8.64-5.66-19C254,68.67,259.35,51,264.08,34.74,266.76,25.48,272,22.5,279.3,25Z"/><path class="cls-1" d="M60.08,194.87c1,5.45-.72,11.31-6.58,12.23s-8.85-2.77-11-9.36-5.87-29.61-2.57-42.87c2-8.23,7.6-10.19,11.41-9.16s7.09,6.07,6.58,12.65S59,189.41,60.08,194.87Zm56.45-26c-.51,3.8-6.37,7.61-11.21,7.61h-3.39c-.51,8.94-2,18.92-5.14,27.25-3.7,10-10.18,19.33-16.66,16.45-6.17-2.78-6.58-7.3-4.42-12.75s7.61-11.31,9.36-30.95H76.53c-6.07,0-12-3.19-12-8.74s3-9.46,11.31-10.7c1.65-.2,4.83-.41,8.64-.51-.1-.92-.31-1.85-.52-3-1-6.48,3.3-11.62,8.75-11.62s8.43,5.55,9.15,11.52c.1.82.2,2,.31,3.59,4.11.42,7.91,1,9.25,1.86C115.81,161.55,117.15,165,116.53,168.85Z"/><path class="cls-1" d="M143.13,169.08c4.93-1.65,9.66,2.36,10.9,9.56,1,6.48,3.7,15,10.07,18.72,4.22,2.46,8.23,1.13,10.39,4.32s2.26,9.15-1.85,12.44-8.23,2.57-14.71.72c-7-2.16-19.94-11.62-21.38-30.85C135.93,176,136.75,171.14,143.13,169.08Zm47.71-5.55c5.55-3.91,12.75,1.44,17.07,7.09,5.76,7.51,10.59,19.64.82,22.73-8.53,2.67-9.56-6.79-17.27-16.66C188.78,173.19,185.49,167.33,190.84,163.53Z"/><path class="cls-1" d="M281.29,212.13c-2.77,5.55-6.89,6.07-14.08,5.14-10.49-1.44-20.77-9.35-26.33-20.56-4.32-8.44-2.67-17.28,4.12-18.41,7.81-1.23,9.76,8.12,15.11,13.68,4.84,4.93,10.39,7.19,15.73,9.46C280.16,203.29,283.35,208.12,281.29,212.13Zm7-45.35c6.78,8.74,9.87,12.75,6,17.18s-10.08,3.6-16-3a81.58,81.58,0,0,1-10-13.16c-5.46,1-10.6,1.75-14.4,2.06-6.58.51-11.93-.31-13.06-6.38s3.09-10.9,10-12c2.06-.31,5.66-.92,9.77-1.75-.41-1.54-.82-3.08-1.23-4.83-1.54-6.89.82-11.1,5.66-12.54s8.22,0,10.69,6.37c.72,1.85,1.64,4.42,2.78,7.3,4.11-.82,7.4-1.54,8.94-1.85,4.84-1,9.05,1.44,10.08,6,1.44,6.06-.93,9.25-6.27,11.51a51.71,51.71,0,0,1-5,1.85A29.36,29.36,0,0,0,288.29,166.78Z"/><path class="cls-1" d="M349.58,140.94c7.81,2.78,6.68,9.46,4.73,15.94s-7.72,27.45-7.72,27.45c0,.52,6.79-1.75,16.25,2.37,7.92,3.49,8.12,10.18,13,13.67,7.4,5.56,5.55,3.09,8.22,5.76,6.89,6.48,1.65,14.81-5.86,14.81-14.5-.1-14.8-9.36-19.43-14.4-5-5.55-15.53-3.8-19.33,4-3.09,6.38-8.13,10.9-13.58,9.77-8.22-1.75-8.12-8.64-5.65-19,4.11-16.66,9.46-34.35,14.19-50.59C337,141.45,342.28,138.47,349.58,140.94Z"/><path class="cls-1" d="M357.55,60.27c-3.08,17.48-2.16,27.87-.31,38.87,1.85,10.8.62,13.06-4.32,14.91s-11.41-2.78-14.08-14.5-1.24-35.27,1-43.8S345.11,40,352.31,41.87,359.2,51.33,357.55,60.27Zm47.1-5.14c.31,2.06.51,4.11.72,6.07,1.33.31,2.57.51,3.39.72,4.52,1.44,5.45,6.37,4.94,8.63s-4,4.94-7.61,4.94h-.52v.62c0,6.68-.1,14.29-.92,13.47,0,0,8.63,2.77,11.31,7.3s-2.26,11.21-11.72,8.53c0,0-4,10.39-15.84,10.39s-18.51-2.26-20.77-12.65,8.12-21.18,22.62-18.1c0,0,0-3.7-.21-9.25-4.31.1-8.12.2-9.76.2-5.45,0-10.8-2.26-10.8-6.78s2.67-8.64,11.11-9a75,75,0,0,1,8.53-.1c-.21-1.86-.31-3.29-.51-4.63-3.71.1-6.89.1-8.33.1-5.45,0-10.8-2.16-10.8-6.68s2.67-8.64,11.11-9a144.68,144.68,0,0,1,22.41.72c.31-.72,4.76.68,8.05,5.11,4.73,6.37-1.14,8-1.36,8.67a8.88,8.88,0,0,1-3.6.82ZM383.57,96.36c-4.53,1.55-3.4,6.48-.41,7.51,3.6,1.13,6.78-.82,7.19-3.19C390.87,97.91,388.09,94.72,383.57,96.36Z"/><path class="cls-1" d="M422.17,50.27c-2.23,5.58-8,7-13.57,4.77s-8.79-7.2-6.57-12.79,7.82-6.54,13.38-4.33S424.39,44.68,422.17,50.27Z"/><path class="cls-1" d="M420.32,50.69C418.63,55,414.22,56,410,54.33s-6.7-5.49-5-9.75,6-5,10.2-3.3S422,46.43,420.32,50.69Z"/><path class="cls-1" d="M418.37,43.43c-.3.76-2.5.59-4.91-.37s-4.12-2.34-3.82-3.1,2.5-.59,4.91.36S418.67,42.67,418.37,43.43Z"/><path class="cls-1" d="M410.37,53.09a.65.65,0,0,1-.36-.84.64.64,0,0,1,.84-.36,5.66,5.66,0,0,0,4.67.14,5.91,5.91,0,0,0,2.72-3.39.65.65,0,0,1,.8-.44.64.64,0,0,1,.45.8,7.21,7.21,0,0,1-3.38,4.18A6.85,6.85,0,0,1,410.37,53.09Z"/><path class="cls-1" d="M408.15,43.39a1,1,0,0,0-.29-.08,2.13,2.13,0,0,0,.23-.42,2.21,2.21,0,1,0-2.87,1.23,2.18,2.18,0,0,0,1.33.1,1.19,1.19,0,1,0,1.6-.83Z"/><path class="cls-1" d="M440,49.9c0,6-4.85,9.45-10.83,9.45s-10.84-3.44-10.84-9.45,4.85-9,10.84-9S440,43.89,440,49.9Z"/><path class="cls-1" d="M438.4,51c0,4.58-3.69,7.2-8.26,7.2s-8.26-2.62-8.26-7.2,3.7-6.84,8.26-6.84S438.4,46.39,438.4,51Z"/><path class="cls-1" d="M433.91,45c0,.82-2.11,1.48-4.7,1.48s-4.69-.66-4.69-1.48,2.1-1.47,4.69-1.47S433.91,44.14,433.91,45Z"/><path class="cls-1" d="M430.05,56.88a.65.65,0,1,1,0-1.29,5.65,5.65,0,0,0,4.39-1.6,6,6,0,0,0,1.28-4.15.65.65,0,1,1,1.29-.13,7.25,7.25,0,0,1-1.6,5.14A6.86,6.86,0,0,1,430.05,56.88Z"/><path class="cls-1" d="M424.39,48.69a1.43,1.43,0,0,0-.29,0,1.84,1.84,0,0,0,.06-.47A2.21,2.21,0,1,0,422,50.46a2.16,2.16,0,0,0,1.27-.41,1.19,1.19,0,1,0,1.17-1.36Z"/><path class="cls-1" d="M429.28,35.78A33.29,33.29,0,0,0,426.81,27a22.8,22.8,0,0,0-5.65-7.84l3.65-1.66a.42.42,0,0,0,.21-.55.41.41,0,0,0-.55-.2l-8.15,3.69a.42.42,0,0,0-.2.55.41.41,0,0,0,.38.25.38.38,0,0,0,.17,0l3.55-1.61a28.89,28.89,0,0,1,.15,7.53,26.88,26.88,0,0,1-7,15.55.41.41,0,0,0,.61.56A26.61,26.61,0,0,0,419.27,35a30.13,30.13,0,0,0,1.89-14.71c4.79,4.57,6.61,11,7.29,15.62a40.56,40.56,0,0,1,.26,9.79.43.43,0,0,0,.36.47h.06a.43.43,0,0,0,.41-.37A42.23,42.23,0,0,0,429.28,35.78Z"/><path class="cls-1" d="M413.64,42.38c-2.41-1-4.12-2.59-4.32-4a1.64,1.64,0,0,0-.51.66c-.59,1.49,1.31,3.64,4.23,4.81s5.78.9,6.37-.59a1.68,1.68,0,0,0,.09-.84C418.41,43.33,416.05,43.34,413.64,42.38Z"/><path class="cls-1" d="M429.13,45.72c-2.6,0-4.79-.88-5.48-2.08a1.55,1.55,0,0,0-.23.81c0,1.6,2.56,2.89,5.71,2.89s5.7-1.29,5.7-2.89a1.55,1.55,0,0,0-.23-.81C433.91,44.84,431.72,45.72,429.13,45.72Z"/><path class="cls-1" d="M420.87,19.49s-.35-4.93,2.71-6.87S431.29,11,431.29,11a23.24,23.24,0,0,1-4.66,7.17A5.45,5.45,0,0,1,420.87,19.49Z"/><path class="cls-1" d="M426,14.06c.73.8.44,2.24-.64,3.22s-2.54,1.14-3.26.35-.44-2.24.64-3.22S425.25,13.27,426,14.06Z"/><path class="cls-1" d="M421,19.21a3.3,3.3,0,0,1,.12-.54c0-.16.12-.36.21-.59s.22-.47.36-.74a9.07,9.07,0,0,1,.52-.82c.2-.27.42-.56.67-.84l.2-.21.19-.21.21-.2.22-.2.45-.39a2.11,2.11,0,0,0,.23-.19l.24-.18c.08,0,.16-.12.25-.17l.24-.17.5-.32c.17-.11.34-.2.51-.29a2,2,0,0,1,.25-.14l.25-.13.25-.12.24-.12.48-.21c.32-.13.62-.25.9-.34l.4-.14.37-.12.32-.09.28-.07.39-.1.14,0s0,0,0,0,0,0,0,0h0l-.13.06-.37.15-.26.1-.31.14-.35.15-.38.17c-.27.12-.55.26-.85.41l-.46.23-.47.26-.24.13-.24.15q-.24.13-.48.3l-.48.31-.23.17-.23.17-.24.17-.22.18c-.16.12-.3.25-.44.37s-.28.25-.42.38l-.2.19-.19.19-.19.2-.17.19q-.18.2-.33.39c-.1.13-.21.25-.3.38l-.26.37-.23.34-.1.17-.09.16c-.11.2-.21.39-.28.54l-.15.36a.93.93,0,0,0-.05.13.05.05,0,0,1-.05,0S421,19.23,421,19.21Z"/><path class="cls-2" d="M48.8,100.44c-2.78,5.55-6.89,6.07-14.09,5.14C24.22,104.14,13.94,96.23,8.39,85,4.07,76.59,5.71,67.74,12.5,66.61c7.81-1.23,9.77,8.13,15.11,13.68,4.84,4.93,10.39,7.2,15.74,9.46C47.67,91.6,50.85,96.43,48.8,100.44Zm7-45.34c6.79,8.74,9.87,12.75,6,17.17s-10.07,3.6-16-3a81.67,81.67,0,0,1-10-13.17c-5.45,1-10.59,1.75-14.4,2.06-6.58.51-11.93-.31-13.06-6.38s3.09-10.89,10-12c2-.3,5.65-.92,9.77-1.74-.42-1.55-.83-3.09-1.24-4.84-1.54-6.89.82-11.1,5.66-12.54s8.22,0,10.69,6.37c.72,1.85,1.65,4.42,2.78,7.3,4.11-.82,7.4-1.54,8.94-1.85,4.84-1,9,1.44,10.08,6C66.38,44.5,64,47.69,58.67,50a51.71,51.71,0,0,1-5,1.85A30.5,30.5,0,0,0,55.79,55.1Z"/><path class="cls-2" d="M92.26,66.83c6.47-6.89,24.26-23.86,28.27-27.46S132,34,135.75,38.45c3.19,3.7,4.83,8.12-.1,13.06-3.7,3.7-26.12,23-26.12,23,.93.72,22.73,19.74,26,23.45s3.9,9.87.82,13.06c-4,4-7.82,5-14,1.33s-23.65-21.59-28.58-26C88.66,81.74,85.78,73.72,92.26,66.83Z"/><path class="cls-2" d="M223.48,64.61c-.62,8.74-8,19.85-19.44,23.14a33.71,33.71,0,0,1-10.38,1.85A24.81,24.81,0,0,1,187.9,89a9.3,9.3,0,0,1-7.3-8.43,7.52,7.52,0,0,1,2-6,9.28,9.28,0,0,1,6.58-3.29h2.27c4-.11,7.81-.11,12-3.3a8.52,8.52,0,0,0,3.29-6.37,9.6,9.6,0,0,0-3.29-7.51A12.36,12.36,0,0,0,194.89,51a16,16,0,0,0-6.07,1.13l-.92.21c-3.29,1.54-6.68,3.08-11.52,2.36-5.24-.92-7.61-3.7-8.33-9.46a149.43,149.43,0,0,1-.2-15.63V24a8.51,8.51,0,0,1,8.53-8.84h.41c4.43.21,7.61,3.91,7.82,9,.1,2.36.2,6.48.2,12.65A32.27,32.27,0,0,1,195.1,35.1a31.51,31.51,0,0,1,11,2.06C218.44,41.78,224.2,54.53,223.48,64.61Zm-8.23-37.84a7.62,7.62,0,0,1-4.52,2h-.83a10.84,10.84,0,0,1-6.17-2.06l-1.64-1c-2.57-1.75-7.51-4-9.46-5.86-4.63-4.22-3.39-8.23-1.54-10.9A7.28,7.28,0,0,1,197.26,6a12.42,12.42,0,0,1,7.09,2.37c3,2,10.59,6.58,12.44,10.07A6.5,6.5,0,0,1,215.25,26.77Z"/><path class="cls-2" d="M279.3,25c7.82,2.77,6.69,9.46,4.73,15.94s-7.71,27.45-7.71,27.45c0,.51,6.79-1.75,16.25,2.37,7.91,3.49,8.12,10.17,12.95,13.67,7.41,5.55,5.56,3.09,8.23,5.76,6.89,6.48,1.64,14.81-5.86,14.81-14.5-.11-14.81-9.36-19.44-14.4-5-5.55-15.52-3.8-19.33,4-3.08,6.38-8.12,10.9-13.57,9.77-8.23-1.75-8.12-8.64-5.66-19C254,68.67,259.35,51,264.08,34.74,266.76,25.48,272,22.5,279.3,25Z"/><path class="cls-2" d="M60.08,194.87c1,5.45-.72,11.31-6.58,12.23s-8.85-2.77-11-9.36-5.87-29.61-2.57-42.87c2-8.23,7.6-10.19,11.41-9.16s7.09,6.07,6.58,12.65S59,189.41,60.08,194.87Zm56.45-26c-.51,3.8-6.37,7.61-11.21,7.61h-3.39c-.51,8.94-2,18.92-5.14,27.25-3.7,10-10.18,19.33-16.66,16.45-6.17-2.78-6.58-7.3-4.42-12.75s7.61-11.31,9.36-30.95H76.53c-6.07,0-12-3.19-12-8.74s3-9.46,11.31-10.7c1.65-.2,4.83-.41,8.64-.51-.1-.92-.31-1.85-.52-3-1-6.48,3.3-11.62,8.75-11.62s8.43,5.55,9.15,11.52c.1.82.2,2,.31,3.59,4.11.42,7.91,1,9.25,1.86C115.81,161.55,117.15,165,116.53,168.85Z"/><path class="cls-2" d="M143.13,169.08c4.93-1.65,9.66,2.36,10.9,9.56,1,6.48,3.7,15,10.07,18.72,4.22,2.46,8.23,1.13,10.39,4.32s2.26,9.15-1.85,12.44-8.23,2.57-14.71.72c-7-2.16-19.94-11.62-21.38-30.85C135.93,176,136.75,171.14,143.13,169.08Zm47.71-5.55c5.55-3.91,12.75,1.44,17.07,7.09,5.76,7.51,10.59,19.64.82,22.73-8.53,2.67-9.56-6.79-17.27-16.66C188.78,173.19,185.49,167.33,190.84,163.53Z"/><path class="cls-2" d="M281.29,212.13c-2.77,5.55-6.89,6.07-14.08,5.14-10.49-1.44-20.77-9.35-26.33-20.56-4.32-8.44-2.67-17.28,4.12-18.41,7.81-1.23,9.76,8.12,15.11,13.68,4.84,4.93,10.39,7.19,15.73,9.46C280.16,203.29,283.35,208.12,281.29,212.13Zm7-45.35c6.78,8.74,9.87,12.75,6,17.18s-10.08,3.6-16-3a81.58,81.58,0,0,1-10-13.16c-5.46,1-10.6,1.75-14.4,2.06-6.58.51-11.93-.31-13.06-6.38s3.09-10.9,10-12c2.06-.31,5.66-.92,9.77-1.75-.41-1.54-.82-3.08-1.23-4.83-1.54-6.89.82-11.1,5.66-12.54s8.22,0,10.69,6.37c.72,1.85,1.64,4.42,2.78,7.3,4.11-.82,7.4-1.54,8.94-1.85,4.84-1,9.05,1.44,10.08,6,1.44,6.06-.93,9.25-6.27,11.51a51.71,51.71,0,0,1-5,1.85A29.36,29.36,0,0,0,288.29,166.78Z"/><path class="cls-2" d="M349.58,140.94c7.81,2.78,6.68,9.46,4.73,15.94s-7.72,27.45-7.72,27.45c0,.52,6.79-1.75,16.25,2.37,7.92,3.49,8.12,10.18,13,13.67,7.4,5.56,5.55,3.09,8.22,5.76,6.89,6.48,1.65,14.81-5.86,14.81-14.5-.1-14.8-9.36-19.43-14.4-5-5.55-15.53-3.8-19.33,4-3.09,6.38-8.13,10.9-13.58,9.77-8.22-1.75-8.12-8.64-5.65-19,4.11-16.66,9.46-34.35,14.19-50.59C337,141.45,342.28,138.47,349.58,140.94Z"/><path class="cls-2" d="M357.55,60.27c-3.08,17.48-2.16,27.87-.31,38.87,1.85,10.8.62,13.06-4.32,14.91s-11.41-2.78-14.08-14.5-1.24-35.27,1-43.8S345.11,40,352.31,41.87,359.2,51.33,357.55,60.27Zm47.1-5.14c.31,2.06.51,4.11.72,6.07,1.33.31,2.57.51,3.39.72,4.52,1.44,5.45,6.37,4.94,8.63s-4,4.94-7.61,4.94h-.52v.62c0,6.68-.1,14.29-.92,13.47,0,0,8.63,2.77,11.31,7.3s-2.26,11.21-11.72,8.53c0,0-4,10.39-15.84,10.39s-18.51-2.26-20.77-12.65,8.12-21.18,22.62-18.1c0,0,0-3.7-.21-9.25-4.31.1-8.12.2-9.76.2-5.45,0-10.8-2.26-10.8-6.78s2.67-8.64,11.11-9a75,75,0,0,1,8.53-.1c-.21-1.86-.31-3.29-.51-4.63-3.71.1-6.89.1-8.33.1-5.45,0-10.8-2.16-10.8-6.68s2.67-8.64,11.11-9a144.68,144.68,0,0,1,22.41.72c.31-.72,4.76.68,8.05,5.11,4.73,6.37-1.14,8-1.36,8.67a8.88,8.88,0,0,1-3.6.82ZM383.57,96.36c-4.53,1.55-3.4,6.48-.41,7.51,3.6,1.13,6.78-.82,7.19-3.19C390.87,97.91,388.09,94.72,383.57,96.36Z"/><path class="cls-2" d="M422.17,50.27c-2.23,5.58-8,7-13.57,4.77s-8.79-7.2-6.57-12.79,7.82-6.54,13.38-4.33S424.39,44.68,422.17,50.27Z"/><path class="cls-2" d="M420.32,50.69C418.63,55,414.22,56,410,54.33s-6.7-5.49-5-9.75,6-5,10.2-3.3S422,46.43,420.32,50.69Z"/><path class="cls-2" d="M418.37,43.43c-.3.76-2.5.59-4.91-.37s-4.12-2.34-3.82-3.1,2.5-.59,4.91.36S418.67,42.67,418.37,43.43Z"/><path class="cls-2" d="M410.37,53.09a.65.65,0,0,1-.36-.84.64.64,0,0,1,.84-.36,5.66,5.66,0,0,0,4.67.14,5.91,5.91,0,0,0,2.72-3.39.65.65,0,0,1,.8-.44.64.64,0,0,1,.45.8,7.21,7.21,0,0,1-3.38,4.18A6.85,6.85,0,0,1,410.37,53.09Z"/><path class="cls-2" d="M408.15,43.39a1,1,0,0,0-.29-.08,2.13,2.13,0,0,0,.23-.42,2.21,2.21,0,1,0-2.87,1.23,2.18,2.18,0,0,0,1.33.1,1.19,1.19,0,1,0,1.6-.83Z"/><path class="cls-2" d="M440,49.9c0,6-4.85,9.45-10.83,9.45s-10.84-3.44-10.84-9.45,4.85-9,10.84-9S440,43.89,440,49.9Z"/><path class="cls-2" d="M438.4,51c0,4.58-3.69,7.2-8.26,7.2s-8.26-2.62-8.26-7.2,3.7-6.84,8.26-6.84S438.4,46.39,438.4,51Z"/><path class="cls-2" d="M433.91,45c0,.82-2.11,1.48-4.7,1.48s-4.69-.66-4.69-1.48,2.1-1.47,4.69-1.47S433.91,44.14,433.91,45Z"/><path class="cls-2" d="M430.05,56.88a.65.65,0,1,1,0-1.29,5.65,5.65,0,0,0,4.39-1.6,6,6,0,0,0,1.28-4.15.65.65,0,1,1,1.29-.13,7.25,7.25,0,0,1-1.6,5.14A6.86,6.86,0,0,1,430.05,56.88Z"/><path class="cls-2" d="M424.39,48.69a1.43,1.43,0,0,0-.29,0,1.84,1.84,0,0,0,.06-.47A2.21,2.21,0,1,0,422,50.46a2.16,2.16,0,0,0,1.27-.41,1.19,1.19,0,1,0,1.17-1.36Z"/><path class="cls-2" d="M429.28,35.78A33.29,33.29,0,0,0,426.81,27a22.8,22.8,0,0,0-5.65-7.84l3.65-1.66a.42.42,0,0,0,.21-.55.41.41,0,0,0-.55-.2l-8.15,3.69a.42.42,0,0,0-.2.55.41.41,0,0,0,.38.25.38.38,0,0,0,.17,0l3.55-1.61a28.89,28.89,0,0,1,.15,7.53,26.88,26.88,0,0,1-7,15.55.41.41,0,0,0,.61.56A26.61,26.61,0,0,0,419.27,35a30.13,30.13,0,0,0,1.89-14.71c4.79,4.57,6.61,11,7.29,15.62a40.56,40.56,0,0,1,.26,9.79.43.43,0,0,0,.36.47h.06a.43.43,0,0,0,.41-.37A42.23,42.23,0,0,0,429.28,35.78Z"/><path class="cls-2" d="M413.64,42.38c-2.41-1-4.12-2.59-4.32-4a1.64,1.64,0,0,0-.51.66c-.59,1.49,1.31,3.64,4.23,4.81s5.78.9,6.37-.59a1.68,1.68,0,0,0,.09-.84C418.41,43.33,416.05,43.34,413.64,42.38Z"/><path class="cls-2" d="M429.13,45.72c-2.6,0-4.79-.88-5.48-2.08a1.55,1.55,0,0,0-.23.81c0,1.6,2.56,2.89,5.71,2.89s5.7-1.29,5.7-2.89a1.55,1.55,0,0,0-.23-.81C433.91,44.84,431.72,45.72,429.13,45.72Z"/><path class="cls-2" d="M420.87,19.49s-.35-4.93,2.71-6.87S431.29,11,431.29,11a23.24,23.24,0,0,1-4.66,7.17A5.45,5.45,0,0,1,420.87,19.49Z"/><path class="cls-2" d="M426,14.06c.73.8.44,2.24-.64,3.22s-2.54,1.14-3.26.35-.44-2.24.64-3.22S425.25,13.27,426,14.06Z"/><path class="cls-2" d="M421,19.21a3.3,3.3,0,0,1,.12-.54c0-.16.12-.36.21-.59s.22-.47.36-.74a9.07,9.07,0,0,1,.52-.82c.2-.27.42-.56.67-.84l.2-.21.19-.21.21-.2.22-.2.45-.39a2.11,2.11,0,0,0,.23-.19l.24-.18c.08,0,.16-.12.25-.17l.24-.17.5-.32c.17-.11.34-.2.51-.29a2,2,0,0,1,.25-.14l.25-.13.25-.12.24-.12.48-.21c.32-.13.62-.25.9-.34l.4-.14.37-.12.32-.09.28-.07.39-.1.14,0s0,0,0,0,0,0,0,0h0l-.13.06-.37.15-.26.1-.31.14-.35.15-.38.17c-.27.12-.55.26-.85.41l-.46.23-.47.26-.24.13-.24.15q-.24.13-.48.3l-.48.31-.23.17-.23.17-.24.17-.22.18c-.16.12-.3.25-.44.37s-.28.25-.42.38l-.2.19-.19.19-.19.2-.17.19q-.18.2-.33.39c-.1.13-.21.25-.3.38l-.26.37-.23.34-.1.17-.09.16c-.11.2-.21.39-.28.54l-.15.36a.93.93,0,0,0-.05.13.05.05,0,0,1-.05,0S421,19.23,421,19.21Z"/><path class="cls-3" d="M48.8,100.44c-2.78,5.55-6.89,6.07-14.09,5.14C24.22,104.14,13.94,96.23,8.39,85,4.07,76.59,5.71,67.74,12.5,66.61c7.81-1.23,9.77,8.13,15.11,13.68,4.84,4.93,10.39,7.2,15.74,9.46C47.67,91.6,50.85,96.43,48.8,100.44Zm7-45.34c6.79,8.74,9.87,12.75,6,17.17s-10.07,3.6-16-3a81.67,81.67,0,0,1-10-13.17c-5.45,1-10.59,1.75-14.4,2.06-6.58.51-11.93-.31-13.06-6.38s3.09-10.89,10-12c2-.3,5.65-.92,9.77-1.74-.42-1.55-.83-3.09-1.24-4.84-1.54-6.89.82-11.1,5.66-12.54s8.22,0,10.69,6.37c.72,1.85,1.65,4.42,2.78,7.3,4.11-.82,7.4-1.54,8.94-1.85,4.84-1,9,1.44,10.08,6C66.38,44.5,64,47.69,58.67,50a51.71,51.71,0,0,1-5,1.85A30.5,30.5,0,0,0,55.79,55.1Z"/><path class="cls-4" d="M92.26,66.83c6.47-6.89,24.26-23.86,28.27-27.46S132,34,135.75,38.45c3.19,3.7,4.83,8.12-.1,13.06-3.7,3.7-26.12,23-26.12,23,.93.72,22.73,19.74,26,23.45s3.9,9.87.82,13.06c-4,4-7.82,5-14,1.33s-23.65-21.59-28.58-26C88.66,81.74,85.78,73.72,92.26,66.83Z"/><path class="cls-5" d="M223.48,64.61c-.62,8.74-8,19.85-19.44,23.14a33.71,33.71,0,0,1-10.38,1.85A24.81,24.81,0,0,1,187.9,89a9.3,9.3,0,0,1-7.3-8.43,7.52,7.52,0,0,1,2-6,9.28,9.28,0,0,1,6.58-3.29h2.27c4-.11,7.81-.11,12-3.3a8.52,8.52,0,0,0,3.29-6.37,9.6,9.6,0,0,0-3.29-7.51A12.36,12.36,0,0,0,194.89,51a16,16,0,0,0-6.07,1.13l-.92.21c-3.29,1.54-6.68,3.08-11.52,2.36-5.24-.92-7.61-3.7-8.33-9.46a149.43,149.43,0,0,1-.2-15.63V24a8.51,8.51,0,0,1,8.53-8.84h.41c4.43.21,7.61,3.91,7.82,9,.1,2.36.2,6.48.2,12.65A32.27,32.27,0,0,1,195.1,35.1a31.51,31.51,0,0,1,11,2.06C218.44,41.78,224.2,54.53,223.48,64.61Zm-8.23-37.84a7.62,7.62,0,0,1-4.52,2h-.83a10.84,10.84,0,0,1-6.17-2.06l-1.64-1c-2.57-1.75-7.51-4-9.46-5.86-4.63-4.22-3.39-8.23-1.54-10.9A7.28,7.28,0,0,1,197.26,6a12.42,12.42,0,0,1,7.09,2.37c3,2,10.59,6.58,12.44,10.07A6.5,6.5,0,0,1,215.25,26.77Z"/><path class="cls-6" d="M279.3,25c7.82,2.77,6.69,9.46,4.73,15.94s-7.71,27.45-7.71,27.45c0,.51,6.79-1.75,16.25,2.37,7.91,3.49,8.12,10.17,12.95,13.67,7.41,5.55,5.56,3.09,8.23,5.76,6.89,6.48,1.64,14.81-5.86,14.81-14.5-.11-14.81-9.36-19.44-14.4-5-5.55-15.52-3.8-19.33,4-3.08,6.38-8.12,10.9-13.57,9.77-8.23-1.75-8.12-8.64-5.66-19C254,68.67,259.35,51,264.08,34.74,266.76,25.48,272,22.5,279.3,25Z"/><path class="cls-7" d="M60.08,194.87c1,5.45-.72,11.31-6.58,12.23s-8.85-2.77-11-9.36-5.87-29.61-2.57-42.87c2-8.23,7.6-10.19,11.41-9.16s7.09,6.07,6.58,12.65S59,189.41,60.08,194.87Zm56.45-26c-.51,3.8-6.37,7.61-11.21,7.61h-3.39c-.51,8.94-2,18.92-5.14,27.25-3.7,10-10.18,19.33-16.66,16.45-6.17-2.78-6.58-7.3-4.42-12.75s7.61-11.31,9.36-30.95H76.53c-6.07,0-12-3.19-12-8.74s3-9.46,11.31-10.7c1.65-.2,4.83-.41,8.64-.51-.1-.92-.31-1.85-.52-3-1-6.48,3.3-11.62,8.75-11.62s8.43,5.55,9.15,11.52c.1.82.2,2,.31,3.59,4.11.42,7.91,1,9.25,1.86C115.81,161.55,117.15,165,116.53,168.85Z"/><path class="cls-8" d="M143.13,169.08c4.93-1.65,9.66,2.36,10.9,9.56,1,6.48,3.7,15,10.07,18.72,4.22,2.46,8.23,1.13,10.39,4.32s2.26,9.15-1.85,12.44-8.23,2.57-14.71.72c-7-2.16-19.94-11.62-21.38-30.85C135.93,176,136.75,171.14,143.13,169.08Zm47.71-5.55c5.55-3.91,12.75,1.44,17.07,7.09,5.76,7.51,10.59,19.64.82,22.73-8.53,2.67-9.56-6.79-17.27-16.66C188.78,173.19,185.49,167.33,190.84,163.53Z"/><path class="cls-9" d="M281.29,212.13c-2.77,5.55-6.89,6.07-14.08,5.14-10.49-1.44-20.77-9.35-26.33-20.56-4.32-8.44-2.67-17.28,4.12-18.41,7.81-1.23,9.76,8.12,15.11,13.68,4.84,4.93,10.39,7.19,15.73,9.46C280.16,203.29,283.35,208.12,281.29,212.13Zm7-45.35c6.78,8.74,9.87,12.75,6,17.18s-10.08,3.6-16-3a81.58,81.58,0,0,1-10-13.16c-5.46,1-10.6,1.75-14.4,2.06-6.58.51-11.93-.31-13.06-6.38s3.09-10.9,10-12c2.06-.31,5.66-.92,9.77-1.75-.41-1.54-.82-3.08-1.23-4.83-1.54-6.89.82-11.1,5.66-12.54s8.22,0,10.69,6.37c.72,1.85,1.64,4.42,2.78,7.3,4.11-.82,7.4-1.54,8.94-1.85,4.84-1,9.05,1.44,10.08,6,1.44,6.06-.93,9.25-6.27,11.51a51.71,51.71,0,0,1-5,1.85A29.36,29.36,0,0,0,288.29,166.78Z"/><path class="cls-10" d="M349.58,140.94c7.81,2.78,6.68,9.46,4.73,15.94s-7.72,27.45-7.72,27.45c0,.52,6.79-1.75,16.25,2.37,7.92,3.49,8.12,10.18,13,13.67,7.4,5.56,5.55,3.09,8.22,5.76,6.89,6.48,1.65,14.81-5.86,14.81-14.5-.1-14.8-9.36-19.43-14.4-5-5.55-15.53-3.8-19.33,4-3.09,6.38-8.13,10.9-13.58,9.77-8.22-1.75-8.12-8.64-5.65-19,4.11-16.66,9.46-34.35,14.19-50.59C337,141.45,342.28,138.47,349.58,140.94Z"/><path class="cls-11" d="M357.55,60.27c-3.08,17.48-2.16,27.87-.31,38.87,1.85,10.8.62,13.06-4.32,14.91s-11.41-2.78-14.08-14.5-1.24-35.27,1-43.8S345.11,40,352.31,41.87,359.2,51.33,357.55,60.27Zm47.1-5.14c.31,2.06.51,4.11.72,6.07,1.33.31,2.57.51,3.39.72,4.52,1.44,5.45,6.37,4.94,8.63s-4,4.94-7.61,4.94h-.52v.62c0,6.68-.1,14.29-.92,13.47,0,0,8.63,2.77,11.31,7.3s-2.26,11.21-11.72,8.53c0,0-4,10.39-15.84,10.39s-18.51-2.26-20.77-12.65,8.12-21.18,22.62-18.1c0,0,0-3.7-.21-9.25-4.31.1-8.12.2-9.76.2-5.45,0-10.8-2.26-10.8-6.78s2.67-8.64,11.11-9a75,75,0,0,1,8.53-.1c-.21-1.86-.31-3.29-.51-4.63-3.71.1-6.89.1-8.33.1-5.45,0-10.8-2.16-10.8-6.68s2.67-8.64,11.11-9a144.68,144.68,0,0,1,22.41.72c.31-.72,4.76.68,8.05,5.11,4.73,6.37-1.14,8-1.36,8.67a8.88,8.88,0,0,1-3.6.82ZM383.57,96.36c-4.53,1.55-3.4,6.48-.41,7.51,3.6,1.13,6.78-.82,7.19-3.19C390.87,97.91,388.09,94.72,383.57,96.36Z"/><path class="cls-12" d="M422.17,50.27c-2.23,5.58-8,7-13.57,4.77s-8.79-7.2-6.57-12.79,7.82-6.54,13.38-4.33S424.39,44.68,422.17,50.27Z"/><path class="cls-13" d="M420.32,50.69C418.63,55,414.22,56,410,54.33s-6.7-5.49-5-9.75,6-5,10.2-3.3S422,46.43,420.32,50.69Z"/><path class="cls-13" d="M418.37,43.43c-.3.76-2.5.59-4.91-.37s-4.12-2.34-3.82-3.1,2.5-.59,4.91.36S418.67,42.67,418.37,43.43Z"/><path class="cls-14" d="M410.37,53.09a.65.65,0,0,1-.36-.84.64.64,0,0,1,.84-.36,5.66,5.66,0,0,0,4.67.14,5.91,5.91,0,0,0,2.72-3.39.65.65,0,0,1,.8-.44.64.64,0,0,1,.45.8,7.21,7.21,0,0,1-3.38,4.18A6.85,6.85,0,0,1,410.37,53.09Z"/><path class="cls-15" d="M408.15,43.39a1,1,0,0,0-.29-.08,2.13,2.13,0,0,0,.23-.42,2.21,2.21,0,1,0-2.87,1.23,2.18,2.18,0,0,0,1.33.1,1.19,1.19,0,1,0,1.6-.83Z"/><path class="cls-12" d="M440,49.9c0,6-4.85,9.45-10.83,9.45s-10.84-3.44-10.84-9.45,4.85-9,10.84-9S440,43.89,440,49.9Z"/><path class="cls-13" d="M438.4,51c0,4.58-3.69,7.2-8.26,7.2s-8.26-2.62-8.26-7.2,3.7-6.84,8.26-6.84S438.4,46.39,438.4,51Z"/><path class="cls-13" d="M433.91,45c0,.82-2.11,1.48-4.7,1.48s-4.69-.66-4.69-1.48,2.1-1.47,4.69-1.47S433.91,44.14,433.91,45Z"/><path class="cls-14" d="M430.05,56.88a.65.65,0,1,1,0-1.29,5.65,5.65,0,0,0,4.39-1.6,6,6,0,0,0,1.28-4.15.65.65,0,1,1,1.29-.13,7.25,7.25,0,0,1-1.6,5.14A6.86,6.86,0,0,1,430.05,56.88Z"/><path class="cls-15" d="M424.39,48.69a1.43,1.43,0,0,0-.29,0,1.84,1.84,0,0,0,.06-.47A2.21,2.21,0,1,0,422,50.46a2.16,2.16,0,0,0,1.27-.41,1.19,1.19,0,1,0,1.17-1.36Z"/><path class="cls-16" d="M429.28,35.78A33.29,33.29,0,0,0,426.81,27a22.8,22.8,0,0,0-5.65-7.84l3.65-1.66a.42.42,0,0,0,.21-.55.41.41,0,0,0-.55-.2l-8.15,3.69a.42.42,0,0,0-.2.55.41.41,0,0,0,.38.25.38.38,0,0,0,.17,0l3.55-1.61a28.89,28.89,0,0,1,.15,7.53,26.88,26.88,0,0,1-7,15.55.41.41,0,0,0,.61.56A26.61,26.61,0,0,0,419.27,35a30.13,30.13,0,0,0,1.89-14.71c4.79,4.57,6.61,11,7.29,15.62a40.56,40.56,0,0,1,.26,9.79.43.43,0,0,0,.36.47h.06a.43.43,0,0,0,.41-.37A42.23,42.23,0,0,0,429.28,35.78Z"/><path class="cls-14" d="M413.64,42.38c-2.41-1-4.12-2.59-4.32-4a1.64,1.64,0,0,0-.51.66c-.59,1.49,1.31,3.64,4.23,4.81s5.78.9,6.37-.59a1.68,1.68,0,0,0,.09-.84C418.41,43.33,416.05,43.34,413.64,42.38Z"/><path class="cls-14" d="M429.13,45.72c-2.6,0-4.79-.88-5.48-2.08a1.55,1.55,0,0,0-.23.81c0,1.6,2.56,2.89,5.71,2.89s5.7-1.29,5.7-2.89a1.55,1.55,0,0,0-.23-.81C433.91,44.84,431.72,45.72,429.13,45.72Z"/><path class="cls-17" d="M420.87,19.49s-.35-4.93,2.71-6.87S431.29,11,431.29,11a23.24,23.24,0,0,1-4.66,7.17A5.45,5.45,0,0,1,420.87,19.49Z"/><path class="cls-18" d="M426,14.06c.73.8.44,2.24-.64,3.22s-2.54,1.14-3.26.35-.44-2.24.64-3.22S425.25,13.27,426,14.06Z"/><path class="cls-19" d="M421,19.21a3.3,3.3,0,0,1,.12-.54c0-.16.12-.36.21-.59s.22-.47.36-.74a9.07,9.07,0,0,1,.52-.82c.2-.27.42-.56.67-.84l.2-.21.19-.21.21-.2.22-.2.45-.39a2.11,2.11,0,0,0,.23-.19l.24-.18c.08,0,.16-.12.25-.17l.24-.17.5-.32c.17-.11.34-.2.51-.29a2,2,0,0,1,.25-.14l.25-.13.25-.12.24-.12.48-.21c.32-.13.62-.25.9-.34l.4-.14.37-.12.32-.09.28-.07.39-.1.14,0s0,0,0,0,0,0,0,0h0l-.13.06-.37.15-.26.1-.31.14-.35.15-.38.17c-.27.12-.55.26-.85.41l-.46.23-.47.26-.24.13-.24.15q-.24.13-.48.3l-.48.31-.23.17-.23.17-.24.17-.22.18c-.16.12-.3.25-.44.37s-.28.25-.42.38l-.2.19-.19.19-.19.2-.17.19q-.18.2-.33.39c-.1.13-.21.25-.3.38l-.26.37-.23.34-.1.17-.09.16c-.11.2-.21.39-.28.54l-.15.36a.93.93,0,0,0-.05.13.05.05,0,0,1-.05,0S421,19.23,421,19.21Z"/></g></g></svg>